<svg width="191" height="220" viewBox="0 0 191 220" fill="none" xmlns="http://www.w3.org/2000/svg">
<path d="M154.58 214.3H32.7C27.8147 214.3 23.1295 212.359 19.6751 208.905C16.2207 205.451 14.28 200.765 14.28 195.88V18.42C14.28 13.5347 16.2207 8.84953 19.6751 5.39511C23.1295 1.94069 27.8147 3.05176e-05 32.7 3.05176e-05H154.58C159.465 3.05176e-05 164.15 1.94069 167.605 5.39511C171.059 8.84953 173 13.5347 173 18.42V195.88C173 200.765 171.059 205.451 167.605 208.905C164.15 212.359 159.465 214.3 154.58 214.3Z" fill="#D19155"/>
<path d="M139.73 117.31C147.379 117.31 153.58 111.109 153.58 103.46C153.58 95.8108 147.379 89.61 139.73 89.61C132.081 89.61 125.88 95.8108 125.88 103.46C125.88 111.109 132.081 117.31 139.73 117.31Z" fill="#FCBE00"/>
<mask id="mask0_41_2716" style="mask-type:luminance" maskUnits="userSpaceOnUse" x="13" y="1" width="160" height="215">
<path d="M154.22 215.46H32.33C27.4447 215.46 22.7595 213.519 19.3051 210.065C15.8507 206.61 13.91 201.925 13.91 197.04V19.58C13.9126 14.6964 15.8545 10.0138 19.3086 6.56152C22.7628 3.10927 27.4464 1.16998 32.33 1.16998H154.22C159.105 1.16998 163.79 3.11064 167.245 6.56506C170.699 10.0195 172.64 14.7047 172.64 19.59V197.04C172.64 201.925 170.699 206.61 167.245 210.065C163.79 213.519 159.105 215.46 154.22 215.46Z" fill="white"/>
</mask>
<g mask="url(#mask0_41_2716)">
<path d="M38.74 179.73C38.74 179.73 49.8599 161.64 58.0399 173.83C66.2199 186.02 66.47 189.37 66.47 189.37L35.08 186.29L38.74 179.73Z" fill="url(#paint0_linear_41_2716)"/>
<path d="M65.96 175.28C65.96 175.28 78.15 157.2 87.12 169.39C96.09 181.58 96.37 184.93 96.37 184.93L61.9399 181.85L65.96 175.28Z" fill="url(#paint1_linear_41_2716)"/>
<path d="M26.34 183.22C26.34 183.22 35.16 165.14 41.65 177.33C48.14 189.52 48.34 192.87 48.34 192.87L23.43 189.79L26.34 183.22Z" fill="url(#paint2_linear_41_2716)"/>
<path d="M109.84 177.42C109.84 177.42 117.43 165.08 123.73 172.92C130.03 180.76 130.29 182.99 130.29 182.99L107.35 181.89L109.84 177.42Z" fill="url(#paint3_linear_41_2716)"/>
<path d="M62.46 45.85C62.46 45.85 41.69 52.02 57.46 66.79C73.23 81.56 93.3199 73.44 93.3199 90.79C93.3199 108.14 80.4999 110.87 82.9399 121.44C82.9399 121.44 78.7199 120.16 95.5999 102.96C112.48 85.76 112.96 75.21 96.4099 70.01C79.8599 64.81 65.58 56.4 81.58 49.26L62.46 45.85Z" fill="url(#paint4_linear_41_2716)"/>
<path d="M120.52 212.37L196.77 205.62V158.23C196.77 158.23 190.99 145.42 183.54 142.23C176.09 139.04 166.4 95.63 159.43 111.98C152.46 128.33 141.61 147.52 139.43 160.98C137.25 174.44 120.52 212.37 120.52 212.37Z" fill="#3C592A"/>
<path d="M35.36 154.64C35.36 154.64 46.42 142.96 49.77 133.73C53.12 124.5 55.77 117.81 59.23 123.64C62.69 129.47 61.3 139.02 68.23 140.11C75.16 141.2 79.5 148.87 80.89 148.87C82.28 148.87 94.19 150.87 99.69 159.65C105.19 168.43 107.45 168.73 107.45 168.73L35.45 171.12L35.36 154.64Z" fill="#2A6B42"/>
<path d="M66.58 155.28C66.58 155.28 82.63 139.73 63.24 135.11C43.85 130.49 17.79 133.26 15.48 117.65C13.17 102.04 8.47998 96.24 8.47998 96.24L14.23 81.73C14.23 81.73 28.84 85.73 27.81 101.57C26.78 117.41 25.01 124.47 48.69 126.43C72.37 128.39 81.25 140.7 66.58 155.28Z" fill="url(#paint5_linear_41_2716)"/>
<path d="M85.73 200.17C85.73 200.17 78.64 194.54 71.21 182.1C63.78 169.66 61.21 147.57 53.67 142.25C46.13 136.93 47.67 127.76 40.51 130.6C33.35 133.44 32.45 164.38 22.64 171.83C12.83 179.28 0 209.17 0 209.17L89.42 206.25L85.73 200.17Z" fill="#417946"/>
<path d="M10.58 146.93C10.58 146.93 20.46 99.35 31.12 117.21C41.78 135.07 45.23 166.21 60.65 179.21C76.07 192.21 80.88 210.06 88.65 214.12L10.58 214.17V146.93Z" fill="#31552D"/>
<path d="M33.76 143.8C33.76 143.8 49.85 145.41 45.76 156.6C41.67 167.79 37.4 170.2 54.9 174.95C72.4 179.7 72.9 180.07 71.5 188.13C71.5 188.13 83.66 175.13 69.34 171.65C55.02 168.17 47.58 169.17 52.44 159.91C57.3 150.65 62.2 146.47 48.99 141.01C35.78 135.55 33.76 135.37 33.76 135.37V143.8Z" fill="url(#paint6_linear_41_2716)"/>
<path d="M202.5 210.02C202.5 210.02 195.41 204.39 187.98 191.95C180.55 179.51 177.98 157.42 170.44 152.1C162.9 146.78 164.44 137.62 157.28 140.45C150.12 143.28 149.22 174.23 139.41 181.68C129.6 189.13 116.76 219.06 116.76 219.06L206.19 216.17L202.5 210.02Z" fill="#516533"/>
<path d="M126.22 147.68C126.22 147.68 111.91 140.35 129.46 133.53C147.01 126.71 151.77 130.16 152.79 119.31C153.81 108.46 148.24 95.72 148.24 95.72L167.8 101.24C167.8 101.24 169.11 134.84 153.32 136.15C137.53 137.46 121.78 137.15 126 143.41C128.407 147.019 131.081 150.441 134 153.65L126.22 147.68Z" fill="url(#paint7_linear_41_2716)"/>
<path d="M147.65 187.71C147.65 187.71 140.56 182.08 133.13 169.64C125.7 157.2 123.13 135.11 115.59 129.8C108.05 124.49 109.59 115.31 102.43 118.15C95.27 120.99 94.37 151.93 84.58 159.37C74.79 166.81 61.93 196.76 61.93 196.76L151.36 193.84L147.65 187.71Z" fill="#417946"/>
<path d="M178.03 200.17C178.03 200.17 170.93 194.54 163.5 182.1C156.07 169.66 153.5 147.57 145.96 142.25C138.42 136.93 139.96 127.76 132.8 130.6C125.64 133.44 124.74 164.38 114.93 171.83C105.12 179.28 92.29 209.17 92.29 209.17L181.72 206.25L178.03 200.17Z" fill="#417946"/>
<path d="M131.82 178.86C131.82 178.86 139.41 166.51 145.71 174.36C152.01 182.21 152.28 184.42 152.28 184.42L129.28 183.33L131.82 178.86Z" fill="url(#paint8_linear_41_2716)"/>
<path d="M36.34 47.75C46.13 54.47 85.86 54.62 75.34 69.81C64.82 85 91.99 89.09 94.77 107.35L98.86 106.35C98.86 106.35 102.95 93.35 89.8 85.75C76.65 78.15 93.31 69.98 91.7 55.22C90.09 40.46 94.0399 30.97 94.0399 30.97L36.34 47.75Z" fill="url(#paint9_linear_41_2716)"/>
<path d="M167.97 129.28C167.97 129.28 158.69 117.94 147.21 134.76C135.73 151.58 153.02 155.36 130.87 158.89C108.72 162.42 117.8 178.37 105.65 177.69C105.65 177.69 119.45 177.93 119.33 172.58C119.21 167.23 124.5 159.58 137.33 163.21C150.16 166.84 150.12 151.28 154.19 144.76C158.26 138.24 168.34 141.84 168.34 141.84L167.97 129.28Z" fill="url(#paint10_linear_41_2716)"/>
<path d="M22.58 50.29C22.58 50.29 39.39 56.07 40 70.87C40.61 85.67 67.23 78.71 79.67 93.51L92.0999 108.31C92.0999 108.31 85.9499 89.63 80.5699 84.65C63.0399 68.45 52.07 75.19 55.42 60.8C58.77 46.41 50.68 33.43 50.68 33.43L22.58 50.29Z" fill="url(#paint11_linear_41_2716)"/>
<path d="M11.86 159.17C11.86 159.17 21.22 157.45 25.27 171.17C26.93 176.77 29.68 180.24 32.97 182.06C37.71 184.68 43.56 183.83 48.8 180.91C57.65 175.98 56.26 162.17 72.07 175.91C87.88 189.65 114.95 181.46 123.55 173.91C132.15 166.36 134.93 176.62 140.49 177.11C146.05 177.6 153.54 170.21 159.1 161.94C164.66 153.67 175.28 152.33 175.28 152.33V213.87H11.36L11.86 159.17Z" fill="#EBB15C"/>
<path d="M144.95 53.48C144.95 53.48 162.58 66.17 142.84 74.91C123.1 83.65 106.78 69.43 101.08 85.84C95.38 102.25 106.61 109.01 100.85 118.2C100.85 118.2 105.25 118.38 94.95 96.59C84.65 74.8 87.64 64.68 104.95 65.2C122.26 65.72 138.55 62.43 125.71 50.42L144.95 53.48Z" fill="url(#paint12_linear_41_2716)"/>
<path d="M67.58 50.8L68.58 49.91C68.58 49.91 82.74 55.84 91.89 104.09H90.8199C90.8199 104.09 83.65 60 67.58 50.8Z" fill="#C3904B"/>
<path d="M71.77 52.36C71.7249 52.8451 71.5964 53.3187 71.39 53.76L71.58 53.95C71.58 53.95 71.93 53.78 72.01 52.6L71.77 52.36Z" fill="#FFF7B2"/>
<path d="M75.2 56.48C75.1548 56.965 75.0263 57.4387 74.8199 57.88L75.0099 58.07C75.0099 58.07 75.33 57.78 75.4 56.59L75.2 56.48Z" fill="#C3904B"/>
<path d="M81.51 68.48C81.4643 68.9681 81.3358 69.4449 81.13 69.89L81.32 70.08C81.32 70.08 81.64 69.78 81.72 68.6L81.51 68.48Z" fill="#FFF7B2"/>
<path d="M85.36 78.41C85.2916 78.8737 85.1391 79.321 84.91 79.73L85.09 79.96C85.09 79.96 85.42 79.73 85.56 78.57L85.36 78.41Z" fill="#FFF7B2"/>
<path d="M88 87.3C87.9033 87.7119 87.7115 88.0955 87.4399 88.42L87.59 88.71C87.59 88.71 87.94 88.62 88.18 87.53L88 87.3Z" fill="#FFF7B2"/>
<path d="M90.58 98.27C90.4595 98.6496 90.2464 98.9932 89.96 99.27L90.0999 99.59C90.0999 99.59 90.45 99.59 90.75 98.52L90.58 98.27Z" fill="#FFF7B2"/>
<path d="M78.52 62.04C78.4743 62.5281 78.3458 63.005 78.14 63.45L78.33 63.64C78.33 63.64 78.65 63.34 78.73 62.16L78.52 62.04Z" fill="#FFF7B2"/>
<path d="M103.37 46.85H102.37C102.37 46.85 92.22 60.85 93.73 105.64L94.58 104.95C94.58 104.95 92.3 64.73 103.37 46.85Z" fill="#C3904B"/>
<path d="M100.33 50.84C100.442 51.1774 100.634 51.4827 100.89 51.73L100.77 52C100.77 52 100.46 52.1 100.19 51.19L100.33 50.84Z" fill="#FFF7B2"/>
<path d="M98.36 56.39C98.4715 56.7254 98.6598 57.0302 98.9099 57.28L98.8 57.55C98.8 57.55 98.49 57.55 98.22 56.62L98.36 56.39Z" fill="#FFF7B2"/>
<path d="M95.58 70.17C95.686 70.5051 95.8752 70.8078 96.1299 71.05L96.02 71.33C96.02 71.33 95.7099 71.33 95.4399 70.39L95.58 70.17Z" fill="#FFF7B2"/>
<path d="M94.29 80.67C94.29 80.67 94.56 81.3 94.89 81.43L94.79 81.73C94.79 81.73 94.48 81.73 94.16 80.93L94.29 80.67Z" fill="#FFF7B2"/>
<path d="M93.81 89.54C93.81 89.54 94.13 90.07 94.46 90.08L94.39 90.41C94.39 90.41 94.1 90.56 93.71 89.85L93.81 89.54Z" fill="#FFF7B2"/>
<path d="M93.75 100.06C93.75 100.06 94.1 100.52 94.43 100.47L94.38 100.82C94.38 100.82 94.09 101.02 93.67 100.38L93.75 100.06Z" fill="#FFF7B2"/>
<path d="M96.74 63.04C96.846 63.3751 97.0352 63.6778 97.29 63.92L97.18 64.2C97.18 64.2 96.87 64.2 96.6 63.26L96.74 63.04Z" fill="#FFF7B2"/>
<path d="M60.45 83.65V81.78C60.45 81.78 84.8299 73.35 89.1899 106.99L87.36 103.63C87.36 103.63 83.18 77.82 60.45 83.65Z" fill="#C3904B"/>
<path d="M66.41 80.93C66.4892 81.457 66.4892 81.9929 66.41 82.52H66.58C66.7222 81.969 66.7222 81.3909 66.58 80.84L66.41 80.93Z" fill="#FFF7B2"/>
<path d="M79.58 85.29C79.4624 85.9709 79.2851 86.6402 79.05 87.29L79.31 87.49C79.6531 86.8789 79.8355 86.1908 79.84 85.49L79.58 85.29Z" fill="#FFF7B2"/>
<path d="M85.96 94.69C85.7999 95.2822 85.5171 95.8341 85.13 96.31L85.3 96.74C85.3 96.74 85.75 96.62 86.17 95.04L85.96 94.69Z" fill="#FFF7B2"/>
<path d="M73.5 82.17C73.51 82.6904 73.4426 83.2094 73.3 83.71L73.5 83.8C73.7227 83.291 73.7955 82.729 73.71 82.18L73.5 82.17Z" fill="#FFF7B2"/>
<path d="M129.91 85.4699V83.8C129.91 83.8 110.73 56.17 98.85 106.31H99.33C99.33 106.31 109.58 59.4799 129.91 85.4699Z" fill="#C3904B"/>
<path d="M124.1 78.5C124.001 78.9768 123.98 79.4667 124.04 79.95L123.83 79.85C123.722 79.3457 123.746 78.8222 123.9 78.33L124.1 78.5Z" fill="#FFF7B2"/>
<path d="M106.29 85.53C106.362 85.9632 106.476 86.3885 106.63 86.8L106.47 86.92C106.253 86.5383 106.132 86.109 106.12 85.67L106.29 85.53Z" fill="#FFF7B2"/>
<path d="M114.28 77.01C114.263 77.5172 114.31 78.0244 114.42 78.52L114.25 78.63C114.074 78.1228 114.026 77.5802 114.11 77.05L114.28 77.01Z" fill="#FFF7B2"/>
<path d="M125.68 57.17L125.32 56.11C125.32 56.11 98.82 50.6 95.4 103.19H96.47C96.47 103.19 98.18 57.17 125.68 57.17Z" fill="#C3904B"/>
<path d="M120.58 57.62C120.493 57.1832 120.32 56.7683 120.07 56.4L120.23 56.14C120.23 56.14 120.6 56.14 120.79 57.29L120.58 57.62Z" fill="#FFF7B2"/>
<path d="M114.82 59.82C114.756 59.3534 114.607 58.9026 114.38 58.49L114.56 58.27C114.56 58.27 114.89 58.5 115.02 59.67L114.82 59.82Z" fill="#C3904B"/>
<path d="M103.13 73.82C102.994 73.1836 102.75 72.5749 102.41 72.02L102.58 71.63C102.58 71.63 103 71.85 103.34 73.52L103.13 73.82Z" fill="#FFF7B2"/>
<path d="M99.8 82.33C99.6743 81.7569 99.4137 81.2222 99.04 80.77L99.29 80.41C99.29 80.41 99.8 80.58 100.08 82.05L99.8 82.33Z" fill="#FFF7B2"/>
<path d="M97.31 94.39C97.31 94.39 96.8 93.85 96.31 94V93.52C96.31 93.52 96.68 93.17 97.31 93.94V94.39Z" fill="#FFF7B2"/>
<path d="M101.71 96.11C101.71 96.11 101.9 96.49 102.17 96.48L102.07 96.74C102.07 96.74 101.81 96.87 101.59 96.35L101.71 96.11Z" fill="#FFF7B2"/>
<path d="M108.19 65.59C108.13 64.9965 107.968 64.418 107.71 63.88L107.93 63.63C107.93 63.63 108.32 63.97 108.43 65.43L108.19 65.59Z" fill="#FFF7B2"/>
<path d="M66.91 74.25C66.91 74.25 75.39 52.37 86.91 72.78C86.91 72.78 92.72 83.9 92.62 104.17H91.78C91.78 104.17 92.64 84.3 85.89 73.88C79.14 63.46 73.56 62.4299 67.44 75.6399L66.91 74.25Z" fill="#C3904B"/>
<path d="M71.97 68.25C71.97 68.25 71.71 68 71.6 66.83L71.75 66.69C71.8032 67.1509 71.921 67.602 72.1 68.03L71.97 68.25Z" fill="#FFF7B2"/>
<path d="M80.17 67.17C80.1439 66.582 80.257 65.9961 80.5 65.46L80.68 65.61C80.5039 66.1369 80.3996 66.6852 80.37 67.24L80.17 67.17Z" fill="#FFF7B2"/>
<path d="M85.46 73.03C85.4831 72.4759 85.6521 71.9378 85.95 71.47L86.11 71.68C85.8752 72.1478 85.7198 72.6513 85.65 73.17L85.46 73.03Z" fill="#FFF7B2"/>
<path d="M90.2599 85.64C90.3022 85.5155 90.3731 85.4028 90.4669 85.3107C90.5607 85.2187 90.6748 85.1499 90.8 85.11V85.34C90.5808 85.4477 90.402 85.623 90.2899 85.84L90.21 85.64" fill="#FFF7B2"/>
<path d="M106.82 114.52C106.529 114.389 106.272 114.193 106.069 113.947C105.866 113.702 105.723 113.412 105.649 113.102C105.576 112.792 105.575 112.469 105.646 112.158C105.717 111.847 105.859 111.557 106.06 111.31H106.2C107.2 110.11 108.29 109.1 109.57 107.42C111.57 104.82 106.34 103.82 106.34 103.82C94.93 101.16 80.21 103.82 80.21 103.82C80.21 103.82 74.99 104.82 76.98 107.42C78.26 109.1 79.38 110.11 80.35 111.31H80.22C80.4213 111.557 80.563 111.847 80.6343 112.158C80.7055 112.469 80.7044 112.792 80.6309 113.102C80.5574 113.412 80.4137 113.702 80.2106 113.947C80.0076 114.193 79.7508 114.389 79.46 114.52C74.07 116.95 62.51 122.91 63.56 141.95C64.1566 151.036 65.4538 160.063 67.44 168.95C69.6919 180.016 72.7944 190.892 76.72 201.48C76.8733 201.859 77.1147 202.197 77.4242 202.465C77.7337 202.733 78.1025 202.923 78.5 203.02C83.4193 204.148 88.4533 204.698 93.5 204.66C98.6715 204.549 103.824 203.994 108.9 203C109.516 202.886 110.091 202.611 110.566 202.201C111.04 201.792 111.397 201.263 111.6 200.67C115.21 190.12 119.66 162.16 122.68 141.96C125.3 124.7 112.21 116.95 106.82 114.52Z" fill="#946842"/>
<mask id="mask1_41_2716" style="mask-type:luminance" maskUnits="userSpaceOnUse" x="63" y="102" width="61" height="103">
<path d="M106.82 114.52C106.529 114.389 106.272 114.193 106.069 113.947C105.866 113.702 105.723 113.412 105.649 113.102C105.576 112.792 105.574 112.469 105.646 112.158C105.717 111.847 105.859 111.557 106.06 111.31H106.2C107.2 110.11 108.29 109.1 109.57 107.42C111.57 104.82 106.34 103.82 106.34 103.82C94.93 101.16 80.21 103.82 80.21 103.82C80.21 103.82 74.99 104.82 76.98 107.42C78.26 109.1 79.38 110.11 80.35 111.31H80.22C80.4212 111.557 80.563 111.847 80.6342 112.158C80.7054 112.469 80.7043 112.792 80.6308 113.102C80.5574 113.412 80.4136 113.702 80.2106 113.947C80.0076 114.193 79.7507 114.389 79.46 114.52C74.07 116.95 62.51 122.91 63.56 141.95C64.1565 151.036 65.4537 160.063 67.44 168.95C69.6918 180.016 72.7944 190.892 76.72 201.48C76.8733 201.859 77.1146 202.197 77.4241 202.465C77.7336 202.733 78.1024 202.923 78.5 203.02C83.4192 204.148 88.4532 204.698 93.5 204.66C98.6714 204.549 103.824 203.994 108.9 203C109.516 202.886 110.091 202.611 110.566 202.201C111.04 201.792 111.397 201.263 111.6 200.67C115.21 190.12 119.66 162.16 122.68 141.96C125.3 124.7 112.21 116.95 106.82 114.52Z" fill="white"/>
</mask>
<g mask="url(#mask1_41_2716)">
<path opacity="0.1" d="M122.33 131.17C122.33 131.17 115.52 134.43 110.83 134.72C106.14 135.01 101.83 142.67 103.93 153.2C106.03 163.73 105.08 190.92 95.4099 193.32C85.7399 195.72 88.5199 204.46 88.5199 204.46C88.5199 204.46 102.12 204.97 109.06 202.97C109.675 202.852 110.248 202.575 110.722 202.166C111.196 201.757 111.554 201.231 111.76 200.64C112.39 198.68 126.21 137.17 122.33 131.17Z" fill="#D3B696"/>
<path opacity="0.23" d="M63.6299 142.52C63.6299 142.52 65.94 153.91 72.27 154.21C78.6 154.51 90 148.56 96.52 155.77C103.04 162.98 107.92 170.35 113.77 166.48C119.62 162.61 120.01 160.17 120.01 160.17C120.01 160.17 112.64 198.57 111.77 200.51C111.561 201.099 111.202 201.624 110.729 202.033C110.255 202.441 109.684 202.72 109.07 202.84C108.62 202.92 97.4499 204.9 93.4099 204.5C89.3699 204.1 88.6599 204.96 78.6299 202.86C78.2365 202.756 77.8722 202.564 77.5652 202.297C77.2583 202.029 77.017 201.695 76.86 201.32C76.36 200.05 61.9699 157.94 63.6299 142.52Z" fill="#7D4E24"/>
<path opacity="0.46" d="M63.7399 135.61C63.7399 135.61 78.1399 201.24 85.1599 203.45C85.1599 203.45 80.2499 202.74 78.5999 202.3C76.9499 201.86 76.5999 200.39 75.4499 197.08C74.2999 193.77 61.5799 145.94 63.7399 135.61Z" fill="#B17F4A"/>
<path d="M68.7599 120.17C68.7599 120.17 81.6799 131.09 116.94 121.51L129.84 130.37C129.84 130.37 114.91 135.74 90.43 134.54C65.95 133.34 61.77 132.49 59.52 130.76L68.7599 120.17Z" fill="#946842"/>
<path d="M68.76 120.17C68.76 120.17 75.85 126 93.27 125.4C110.69 124.8 114.49 121.75 116.94 121.51L118.89 122.84C118.89 122.84 112.28 127.27 93.41 127.84C74.54 128.41 67.25 121.84 67.25 121.84L68.76 120.17Z" fill="#7D4E24"/>
<path d="M61.5799 128.36C61.5799 128.36 73.0499 133.36 93.0799 132.75C111.08 132.22 118.71 130.31 125.84 127.39L129.84 130.32C129.84 130.32 110.02 135.08 92.8399 135.04C81.1099 135.04 65.2499 134.65 59.5499 130.71L61.5799 128.36Z" fill="#7D4E24"/>
</g>
<path d="M117.32 195.24C117.32 195.24 124.91 182.9 131.21 190.74C137.51 198.58 137.78 200.8 137.78 200.8L114.78 199.71L117.32 195.24Z" fill="url(#paint13_linear_41_2716)"/>
<path d="M34.58 192.04C34.58 192.04 42.17 179.69 48.47 187.54C54.77 195.39 55.03 197.6 55.03 197.6L32.09 196.51L34.58 192.04Z" fill="url(#paint14_linear_41_2716)"/>
<path d="M149.44 192.49C149.44 192.49 157.03 180.14 163.33 187.98C169.63 195.82 169.89 198.05 169.89 198.05L146.95 196.96L149.44 192.49Z" fill="url(#paint15_linear_41_2716)"/>
<path d="M12.5 187.37C12.5 187.37 25.69 178.19 33 188.77C42.44 202.43 41.46 190.2 50.78 187.87C60.1 185.54 64.78 198.87 64.78 198.87C64.78 198.87 72.0799 184.3 83.0399 190C89.66 193.44 89.14 199.59 89.14 199.59C89.14 199.59 93.14 191.19 99.14 195.59L105.14 199.98C105.14 199.98 108.48 184.17 117.58 189.86C126.68 195.55 124.9 199.61 124.9 199.61C124.9 199.61 125.63 192.94 130.17 195.72C134.71 198.5 136.31 181.72 145.97 183.52C155.63 185.32 158.85 197.66 158.85 197.66C158.85 197.66 165.13 171.66 174.58 176.54V213.76L11.58 214.17L12.5 187.37Z" fill="#FDD396"/>
<path d="M14.81 202.04C14.81 202.04 27.54 197.8 39.68 213.83L14.81 214.3V202.04Z" fill="url(#paint16_linear_41_2716)"/>
<path d="M40.65 206.93C40.65 206.93 48.24 194.59 54.54 202.43C60.84 210.27 61.11 212.49 61.11 212.49L38.16 211.4L40.65 206.93Z" fill="url(#paint17_linear_41_2716)"/>
<path d="M131.58 211.58C131.58 211.58 139.17 199.24 145.47 207.08C151.77 214.92 152.07 217.17 152.07 217.17L129.12 216.08L131.58 211.58Z" fill="url(#paint18_linear_41_2716)"/>
<path d="M29.27 214.17C29.27 214.17 36.14 206 45.27 208.57C54.4 211.14 48.99 208.24 55.37 207.78C61.75 207.32 66.79 209.58 68.03 214.17H29.27Z" fill="url(#paint19_linear_41_2716)"/>
<path d="M175.15 201.24C175.15 201.24 168.4 193.98 159.59 201.24C150.78 208.5 143.84 213.58 139.28 212.54C134.72 211.5 134.4 214.3 134.4 214.3H175.15V201.24Z" fill="url(#paint20_linear_41_2716)"/>
<path d="M104.9 213.87C104.9 213.87 113.61 207.34 122.9 207.96C132.19 208.58 140.01 213.87 140.01 213.87H104.9Z" fill="url(#paint21_linear_41_2716)"/>
</g>
<path d="M32.9179 28V24.57H30.4819V23.814L32.3999 16.8H33.7929V23.737H34.7799V24.57H33.7929V28H32.9179ZM31.3989 23.737H32.9179L33.0229 20.713L33.1279 17.64H32.8619L32.1479 20.713L31.3989 23.737ZM36.1133 28V26.747H37.6813V28H36.1133ZM43.742 28V16.8H44.666V21.945H46.458V16.8H47.382V28H46.458V22.778H44.666V28H43.742ZM50.619 28.098C50.185 28.098 49.8373 28.0373 49.576 27.916C49.3146 27.79 49.1233 27.594 49.002 27.328C48.8853 27.062 48.8176 26.712 48.799 26.278C48.785 25.9 48.7733 25.5033 48.764 25.088C48.7593 24.668 48.757 24.2433 48.757 23.814C48.757 23.38 48.7593 22.953 48.764 22.533C48.7733 22.113 48.785 21.7093 48.799 21.322C48.8176 20.888 48.8853 20.538 49.002 20.272C49.1233 20.006 49.3146 19.8123 49.576 19.691C49.8373 19.565 50.185 19.502 50.619 19.502C51.0576 19.502 51.4053 19.565 51.662 19.691C51.9186 19.8123 52.1053 20.006 52.222 20.272C52.3433 20.538 52.4133 20.888 52.432 21.322C52.4413 21.7 52.4483 22.099 52.453 22.519C52.4623 22.939 52.467 23.3637 52.467 23.793C52.467 24.2223 52.4623 24.6493 52.453 25.074C52.4483 25.494 52.4413 25.8953 52.432 26.278C52.4133 26.7073 52.3433 27.0573 52.222 27.328C52.1053 27.594 51.9186 27.79 51.662 27.916C51.4053 28.0373 51.0576 28.098 50.619 28.098ZM50.619 27.356C50.927 27.356 51.1486 27.2907 51.284 27.16C51.4193 27.0293 51.4916 26.8007 51.501 26.474C51.515 25.9747 51.5266 25.508 51.536 25.074C51.5453 24.64 51.55 24.2153 51.55 23.8C51.55 23.3847 51.5453 22.96 51.536 22.526C51.5266 22.092 51.515 21.6277 51.501 21.133C51.4916 20.8017 51.4216 20.5707 51.291 20.44C51.1603 20.3093 50.9363 20.244 50.619 20.244C50.3016 20.244 50.0753 20.3093 49.94 20.44C49.8046 20.5707 49.7323 20.8017 49.723 21.133C49.709 21.6277 49.6973 22.092 49.688 22.526C49.6833 22.96 49.681 23.387 49.681 23.807C49.681 24.2223 49.6833 24.647 49.688 25.081C49.6973 25.515 49.709 25.9793 49.723 26.474C49.7323 26.8007 49.8046 27.0293 49.94 27.16C50.08 27.2907 50.3063 27.356 50.619 27.356ZM51.676 20.202C51.634 20.202 51.5896 20.1997 51.543 20.195C51.501 20.1903 51.4566 20.1833 51.41 20.174L51.396 19.6C51.4566 19.6 51.508 19.6 51.55 19.6C51.592 19.6 51.634 19.6 51.676 19.6C51.9886 19.5907 52.1963 19.5253 52.299 19.404C52.4063 19.2827 52.467 19.054 52.481 18.718C52.4856 18.6247 52.488 18.515 52.488 18.389C52.4926 18.263 52.4926 18.137 52.488 18.011C52.488 17.8803 52.4856 17.7683 52.481 17.675H53.118C53.1226 17.7683 53.125 17.8803 53.125 18.011C53.1296 18.137 53.1296 18.263 53.125 18.389C53.125 18.515 53.1226 18.6247 53.118 18.718C53.09 19.2453 52.9663 19.6257 52.747 19.859C52.5276 20.0877 52.1706 20.202 51.676 20.202ZM53.6005 17.92V16.8H55.0705V17.92H53.6005ZM53.8735 28V19.6H54.7975V28H53.8735ZM59.2049 28V16.8H60.9059L61.5779 21.378L62.0259 27.111H62.2919L62.7259 21.378L63.4119 16.8H65.1129V28H64.1749V24.738L64.3429 17.64H64.0279L63.2789 24.78L62.7749 27.951H61.5289L61.0389 24.78L60.2899 17.64H59.9889L60.1359 24.738V28H59.2049ZM68.3374 28.091C67.7027 28.091 67.2477 27.9603 66.9724 27.699C66.697 27.433 66.5454 26.9967 66.5174 26.39C66.508 26.012 66.501 25.606 66.4964 25.172C66.4917 24.7333 66.4894 24.283 66.4894 23.821C66.4894 23.359 66.4917 22.9063 66.4964 22.463C66.501 22.0197 66.508 21.6067 66.5174 21.224C66.5454 20.608 66.6994 20.1693 66.9794 19.908C67.264 19.642 67.7144 19.509 68.3304 19.509C68.9277 19.509 69.3594 19.6397 69.6254 19.901C69.896 20.1577 70.0477 20.587 70.0804 21.189C70.085 21.3337 70.0897 21.546 70.0944 21.826C70.099 22.106 70.099 22.4327 70.0944 22.806C70.0944 23.1747 70.085 23.5713 70.0664 23.996H67.4204C67.4204 24.3787 67.4227 24.773 67.4274 25.179C67.4367 25.585 67.4437 26.0167 67.4484 26.474C67.4577 26.81 67.53 27.041 67.6654 27.167C67.8007 27.293 68.02 27.356 68.3234 27.356C68.6174 27.356 68.8274 27.293 68.9534 27.167C69.0794 27.041 69.1494 26.81 69.1634 26.474C69.1727 26.3013 69.1774 26.1007 69.1774 25.872C69.1774 25.6433 69.1727 25.389 69.1634 25.109H70.0664C70.0804 25.319 70.0874 25.5407 70.0874 25.774C70.092 26.0027 70.0897 26.208 70.0804 26.39C70.0477 26.9967 69.903 27.433 69.6464 27.699C69.3897 27.9603 68.9534 28.091 68.3374 28.091ZM67.4204 23.275H69.1774C69.182 22.9763 69.1844 22.6847 69.1844 22.4C69.1844 22.1107 69.182 21.8517 69.1774 21.623C69.1727 21.3943 69.168 21.2217 69.1634 21.105C69.1494 20.797 69.077 20.5777 68.9464 20.447C68.8204 20.3117 68.615 20.244 68.3304 20.244C68.0224 20.244 67.8007 20.3117 67.6654 20.447C67.53 20.5777 67.4577 20.797 67.4484 21.105C67.4437 21.5063 67.439 21.8843 67.4344 22.239C67.4297 22.589 67.425 22.9343 67.4204 23.275ZM71.4212 28V19.6H72.3522V20.349H72.5552C72.6859 20.0783 72.8445 19.8707 73.0312 19.726C73.2225 19.5767 73.4745 19.502 73.7872 19.502C74.2259 19.502 74.5549 19.6303 74.7742 19.887C74.9935 20.1437 75.1055 20.5707 75.1102 21.168V28H74.1862V21.105C74.1815 20.7923 74.1209 20.5683 74.0042 20.433C73.8922 20.2977 73.7102 20.23 73.4582 20.23C73.2155 20.23 72.9939 20.3047 72.7932 20.454C72.5925 20.5987 72.4455 20.8087 72.3522 21.084V28H71.4212ZM81.2513 28.098C80.8126 28.098 80.4603 28.035 80.1943 27.909C79.9329 27.783 79.7393 27.5847 79.6133 27.314C79.4919 27.0433 79.4266 26.6887 79.4173 26.25C79.4033 25.6107 79.3916 24.9713 79.3823 24.332C79.3776 23.6927 79.3753 23.0533 79.3753 22.414C79.3753 21.7747 79.3776 21.1353 79.3823 20.496C79.3916 19.8567 79.4033 19.2197 79.4173 18.585C79.4266 18.1323 79.4943 17.7683 79.6203 17.493C79.7463 17.2177 79.9399 17.017 80.2013 16.891C80.4673 16.765 80.8126 16.702 81.2373 16.702C81.8533 16.702 82.3013 16.8443 82.5813 17.129C82.8659 17.4137 83.0223 17.885 83.0503 18.543C83.0643 18.9023 83.0713 19.2593 83.0713 19.614C83.0713 19.964 83.0643 20.321 83.0503 20.685H82.1263C82.1403 20.307 82.1473 19.9267 82.1473 19.544C82.1473 19.1567 82.1403 18.7763 82.1263 18.403C82.1123 18.0857 82.0329 17.8547 81.8883 17.71C81.7483 17.5653 81.5313 17.493 81.2373 17.493C80.9339 17.493 80.7099 17.5653 80.5653 17.71C80.4253 17.8547 80.3506 18.0857 80.3413 18.403C80.3273 19.075 80.3156 19.7447 80.3063 20.412C80.3016 21.0747 80.2993 21.7373 80.2993 22.4C80.2993 23.058 80.3016 23.7183 80.3063 24.381C80.3156 25.0437 80.3273 25.7133 80.3413 26.39C80.3506 26.7073 80.4253 26.9383 80.5653 27.083C80.7099 27.2277 80.9386 27.3 81.2513 27.3C81.5593 27.3 81.7903 27.2277 81.9443 27.083C82.1029 26.9383 82.1869 26.7073 82.1963 26.39C82.2009 26.138 82.2033 25.886 82.2033 25.634C82.2079 25.3773 82.2079 25.123 82.2033 24.871C82.2033 24.6143 82.2009 24.3623 82.1963 24.115H81.2653V23.282H83.1063C83.1156 23.6413 83.1179 24.0637 83.1133 24.549C83.1133 25.0297 83.1086 25.5967 83.0993 26.25C83.0759 26.908 82.9196 27.3817 82.6303 27.671C82.3456 27.9557 81.8859 28.098 81.2513 28.098ZM85.5581 28.091C85.1055 28.091 84.7718 27.958 84.5571 27.692C84.3425 27.426 84.2141 27.0293 84.1721 26.502C84.1675 26.3853 84.1628 26.2663 84.1581 26.145C84.1535 26.0237 84.1535 25.907 84.1581 25.795C84.1815 25.4683 84.2375 25.172 84.3261 24.906C84.4148 24.64 84.5571 24.3973 84.7531 24.178C84.9538 23.9587 85.2268 23.7487 85.5721 23.548C85.7728 23.4313 85.9805 23.3193 86.1951 23.212C86.4098 23.1047 86.6245 23.0043 86.8391 22.911V21.126C86.8391 20.818 86.7808 20.594 86.6641 20.454C86.5475 20.314 86.3375 20.244 86.0341 20.244C85.7681 20.244 85.5698 20.3047 85.4391 20.426C85.3085 20.5473 85.2361 20.7737 85.2221 21.105C85.2175 21.2123 85.2128 21.3477 85.2081 21.511C85.2081 21.6697 85.2081 21.8353 85.2081 22.008C85.2128 22.176 85.2175 22.3277 85.2221 22.463H84.3191C84.3145 22.2763 84.3098 22.064 84.3051 21.826C84.3005 21.588 84.3005 21.3757 84.3051 21.189C84.3191 20.7923 84.3868 20.4703 84.5081 20.223C84.6295 19.9757 84.8161 19.796 85.0681 19.684C85.3201 19.5673 85.6515 19.509 86.0621 19.509C86.4915 19.509 86.8275 19.572 87.0701 19.698C87.3175 19.8193 87.4925 20.013 87.5951 20.279C87.7025 20.5403 87.7561 20.8833 87.7561 21.308V28H86.8321V27.244H86.6781C86.5755 27.51 86.4401 27.7177 86.2721 27.867C86.1041 28.0163 85.8661 28.091 85.5581 28.091ZM85.8661 27.37C86.1041 27.37 86.3025 27.3023 86.4611 27.167C86.6245 27.027 86.7505 26.824 86.8391 26.558V23.681C86.6758 23.7463 86.5078 23.8233 86.3351 23.912C86.1671 24.0007 85.9781 24.1243 85.7681 24.283C85.5021 24.479 85.3248 24.7007 85.2361 24.948C85.1475 25.1907 85.0961 25.473 85.0821 25.795C85.0775 25.879 85.0751 25.9793 85.0751 26.096C85.0798 26.2127 85.0845 26.3293 85.0891 26.446C85.1125 26.74 85.1918 26.9687 85.3271 27.132C85.4625 27.2907 85.6421 27.37 85.8661 27.37ZM86.0621 19.082C85.5535 19.082 85.1848 18.97 84.9561 18.746C84.7275 18.5173 84.6038 18.1393 84.5851 17.612H85.1941C85.1988 17.948 85.2665 18.1883 85.3971 18.333C85.5278 18.4777 85.7495 18.55 86.0621 18.55C86.3748 18.55 86.5965 18.4777 86.7271 18.333C86.8578 18.1883 86.9255 17.948 86.9301 17.612H87.5321C87.5088 18.1393 87.3828 18.5173 87.1541 18.746C86.9301 18.97 86.5661 19.082 86.0621 19.082ZM85.7401 17.276L86.7201 15.687H87.4201L86.4121 17.276H85.7401ZM89.2493 28V19.6H90.1803V20.349H90.3833C90.514 20.0783 90.6727 19.8707 90.8593 19.726C91.0507 19.5767 91.3027 19.502 91.6153 19.502C92.054 19.502 92.383 19.6303 92.6023 19.887C92.8217 20.1437 92.9337 20.5707 92.9383 21.168V28H92.0143V21.105C92.0097 20.7923 91.949 20.5683 91.8323 20.433C91.7203 20.2977 91.5383 20.23 91.2863 20.23C91.0437 20.23 90.822 20.3047 90.6213 20.454C90.4207 20.5987 90.2737 20.8087 90.1803 21.084V28H89.2493ZM97.3084 28V16.8H98.2884L98.2744 19.453L98.1414 22.309H98.3794L99.2684 19.201L100.045 16.8H101.06L99.3944 21.812L101.235 28H100.276L98.7994 22.925L98.2534 24.388V28H97.3084ZM103.365 28.091C102.73 28.091 102.275 27.9603 102 27.699C101.724 27.433 101.573 26.9967 101.545 26.39C101.535 26.012 101.528 25.606 101.524 25.172C101.519 24.7333 101.517 24.283 101.517 23.821C101.517 23.359 101.519 22.9063 101.524 22.463C101.528 22.0197 101.535 21.6067 101.545 21.224C101.573 20.608 101.727 20.1693 102.007 19.908C102.291 19.642 102.742 19.509 103.358 19.509C103.955 19.509 104.387 19.6397 104.653 19.901C104.923 20.1577 105.075 20.587 105.108 21.189C105.112 21.3337 105.117 21.546 105.122 21.826C105.126 22.106 105.126 22.4327 105.122 22.806C105.122 23.1747 105.112 23.5713 105.094 23.996H102.448C102.448 24.3787 102.45 24.773 102.455 25.179C102.464 25.585 102.471 26.0167 102.476 26.474C102.485 26.81 102.557 27.041 102.693 27.167C102.828 27.293 103.047 27.356 103.351 27.356C103.645 27.356 103.855 27.293 103.981 27.167C104.107 27.041 104.177 26.81 104.191 26.474C104.2 26.3013 104.205 26.1007 104.205 25.872C104.205 25.6433 104.2 25.389 104.191 25.109H105.094C105.108 25.319 105.115 25.5407 105.115 25.774C105.119 26.0027 105.117 26.208 105.108 26.39C105.075 26.9967 104.93 27.433 104.674 27.699C104.417 27.9603 103.981 28.091 103.365 28.091ZM102.448 23.275H104.205C104.209 22.9763 104.212 22.6847 104.212 22.4C104.212 22.1107 104.209 21.8517 104.205 21.623C104.2 21.3943 104.195 21.2217 104.191 21.105C104.177 20.797 104.104 20.5777 103.974 20.447C103.848 20.3117 103.642 20.244 103.358 20.244C103.05 20.244 102.828 20.3117 102.693 20.447C102.557 20.5777 102.485 20.797 102.476 21.105C102.471 21.5063 102.466 21.8843 102.462 22.239C102.457 22.589 102.452 22.9343 102.448 23.275ZM102.112 19.033L103.015 17.444H103.631L104.541 19.033H103.855L103.33 18.053L102.798 19.033H102.112ZM104.387 17.64L105.367 16.051H106.067L105.059 17.64H104.387ZM108.29 28.098C107.641 28.098 107.193 27.965 106.946 27.699C106.703 27.433 106.582 26.9967 106.582 26.39V20.342H106.001V19.6H106.596V17.22H107.527V19.6H108.773V20.342H107.506V26.481C107.506 26.817 107.552 27.048 107.646 27.174C107.739 27.3 107.961 27.363 108.311 27.363C108.441 27.363 108.549 27.3607 108.633 27.356C108.717 27.3467 108.81 27.3327 108.913 27.314V28.028C108.824 28.0467 108.726 28.063 108.619 28.077C108.511 28.091 108.402 28.098 108.29 28.098Z" fill="black"/>
<defs>
<linearGradient id="paint0_linear_41_2716" x1="51.38" y1="170.99" x2="50.8" y2="187.02" gradientUnits="userSpaceOnUse">
<stop offset="0.01" stop-color="#F3DEC5"/>
<stop offset="0.98" stop-color="#FDE6D8" stop-opacity="0"/>
</linearGradient>
<linearGradient id="paint1_linear_41_2716" x1="79.15" y1="183.68" x2="79.3" y2="167.35" gradientUnits="userSpaceOnUse">
<stop offset="0.01" stop-color="#F3DEC5"/>
<stop offset="0.98" stop-color="#FDE6D8" stop-opacity="0.7"/>
</linearGradient>
<linearGradient id="paint2_linear_41_2716" x1="37.2" y1="174.13" x2="35.84" y2="191.97" gradientUnits="userSpaceOnUse">
<stop offset="0.01" stop-color="#F3DEC5"/>
<stop offset="0.98" stop-color="#FDE6D8" stop-opacity="0"/>
</linearGradient>
<linearGradient id="paint3_linear_41_2716" x1="118.91" y1="173.24" x2="118.81" y2="183.19" gradientUnits="userSpaceOnUse">
<stop offset="0.01" stop-color="#F3DEC5"/>
<stop offset="0.98" stop-color="#FDE6D8" stop-opacity="0"/>
</linearGradient>
<linearGradient id="paint4_linear_41_2716" x1="96.6199" y1="111.37" x2="72.1299" y2="48.83" gradientUnits="userSpaceOnUse">
<stop offset="0.01" stop-color="white" stop-opacity="0.4"/>
<stop offset="0.98" stop-color="#FDE6D8" stop-opacity="0"/>
</linearGradient>
<linearGradient id="paint5_linear_41_2716" x1="64.6933" y1="145.449" x2="14.5902" y2="93.9084" gradientUnits="userSpaceOnUse">
<stop stop-color="#FDE6D8" stop-opacity="0.4"/>
<stop offset="0.98" stop-color="#FDE6D8" stop-opacity="0"/>
</linearGradient>
<linearGradient id="paint6_linear_41_2716" x1="68.76" y1="181.02" x2="36.79" y2="141.82" gradientUnits="userSpaceOnUse">
<stop stop-color="#FDE6D8" stop-opacity="0.4"/>
<stop offset="0.98" stop-color="#FDE6D8" stop-opacity="0"/>
</linearGradient>
<linearGradient id="paint7_linear_41_2716" x1="122.62" y1="144.51" x2="159.72" y2="108.99" gradientUnits="userSpaceOnUse">
<stop stop-color="#FDE6D8" stop-opacity="0.4"/>
<stop offset="0.98" stop-color="#FDE6D8" stop-opacity="0"/>
</linearGradient>
<linearGradient id="paint8_linear_41_2716" x1="140.89" y1="174.67" x2="140.8" y2="184.63" gradientUnits="userSpaceOnUse">
<stop offset="0.01" stop-color="#F3DEC5"/>
<stop offset="0.98" stop-color="#FDE6D8" stop-opacity="0"/>
</linearGradient>
<linearGradient id="paint9_linear_41_2716" x1="96.44" y1="111.73" x2="57.7799" y2="22.2" gradientUnits="userSpaceOnUse">
<stop stop-color="white" stop-opacity="0.4"/>
<stop offset="0.74" stop-color="#FDE6D8" stop-opacity="0"/>
</linearGradient>
<linearGradient id="paint10_linear_41_2716" x1="116.001" y1="168.975" x2="159.126" y2="138.259" gradientUnits="userSpaceOnUse">
<stop stop-color="#FDE6D8" stop-opacity="0.4"/>
<stop offset="0.98" stop-color="#FDE6D8" stop-opacity="0"/>
</linearGradient>
<linearGradient id="paint11_linear_41_2716" x1="99.864" y1="103.219" x2="34.7102" y2="44.3829" gradientUnits="userSpaceOnUse">
<stop offset="0.01" stop-color="white" stop-opacity="0.4"/>
<stop offset="0.98" stop-color="#FDE6D8" stop-opacity="0"/>
</linearGradient>
<linearGradient id="paint12_linear_41_2716" x1="91.9726" y1="99.6882" x2="135.631" y2="48.9823" gradientUnits="userSpaceOnUse">
<stop offset="0.01" stop-color="white" stop-opacity="0.4"/>
<stop offset="0.98" stop-color="#FDE6D8" stop-opacity="0"/>
</linearGradient>
<linearGradient id="paint13_linear_41_2716" x1="126.4" y1="191.05" x2="126.3" y2="201.01" gradientUnits="userSpaceOnUse">
<stop offset="0.01" stop-color="#F3DEC5"/>
<stop offset="0.98" stop-color="#FDE6D8" stop-opacity="0"/>
</linearGradient>
<linearGradient id="paint14_linear_41_2716" x1="43.67" y1="187.85" x2="43.57" y2="197.81" gradientUnits="userSpaceOnUse">
<stop offset="0.01" stop-color="#F3DEC5"/>
<stop offset="0.98" stop-color="#FDE6D8" stop-opacity="0"/>
</linearGradient>
<linearGradient id="paint15_linear_41_2716" x1="158.51" y1="188.3" x2="158.41" y2="198.26" gradientUnits="userSpaceOnUse">
<stop offset="0.01" stop-color="#F3DEC5"/>
<stop offset="0.98" stop-color="#FDE6D8" stop-opacity="0"/>
</linearGradient>
<linearGradient id="paint16_linear_41_2716" x1="27.25" y1="214.3" x2="27.25" y2="201.53" gradientUnits="userSpaceOnUse">
<stop stop-color="#F2DCA3"/>
<stop offset="0.98" stop-color="#FDE6D8" stop-opacity="0.6"/>
</linearGradient>
<linearGradient id="paint17_linear_41_2716" x1="49.73" y1="202.74" x2="49.63" y2="212.7" gradientUnits="userSpaceOnUse">
<stop offset="0.01" stop-color="#F3DEC5"/>
<stop offset="0.98" stop-color="#FDE6D8" stop-opacity="0"/>
</linearGradient>
<linearGradient id="paint18_linear_41_2716" x1="140.68" y1="207.39" x2="140.59" y2="217.35" gradientUnits="userSpaceOnUse">
<stop offset="0.01" stop-color="#F3DEC5"/>
<stop offset="0.98" stop-color="#FDE6D8" stop-opacity="0"/>
</linearGradient>
<linearGradient id="paint19_linear_41_2716" x1="48.64" y1="214.12" x2="48.64" y2="207.67" gradientUnits="userSpaceOnUse">
<stop stop-color="#F2DCA3"/>
<stop offset="0.98" stop-color="#FDE6D8" stop-opacity="0.6"/>
</linearGradient>
<linearGradient id="paint20_linear_41_2716" x1="154.78" y1="213.28" x2="154.78" y2="198.65" gradientUnits="userSpaceOnUse">
<stop stop-color="#F2DCA3"/>
<stop offset="0.98" stop-color="#FDE6D8" stop-opacity="0.6"/>
</linearGradient>
<linearGradient id="paint21_linear_41_2716" x1="122.47" y1="214.04" x2="122.53" y2="207.93" gradientUnits="userSpaceOnUse">
<stop stop-color="#F2DCA3"/>
<stop offset="0.38" stop-color="#F4DEAD" stop-opacity="0.91"/>
<stop offset="0.98" stop-color="#FDE6D8" stop-opacity="0.7"/>
</linearGradient>
</defs>
</svg>
