<svg width="157" height="215" viewBox="0 0 157 215" fill="none" xmlns="http://www.w3.org/2000/svg">
<path d="M140.31 214.3H18.42C16.0015 214.301 13.6065 213.826 11.3717 212.902C9.13696 211.977 7.10628 210.621 5.39569 208.911C3.6851 207.202 2.32814 205.172 1.40233 202.938C0.476514 200.703 -3.56783e-07 198.309 0 195.89V18.4201C0 13.5348 1.94068 8.84957 5.3951 5.39515C8.84952 1.94073 13.5347 6.7868e-05 18.42 6.7868e-05H140.31C142.733 -0.00650966 145.134 0.465078 147.374 1.38782C149.615 2.31057 151.651 3.66634 153.367 5.37745C155.083 7.08856 156.444 9.12136 157.373 11.3594C158.302 13.5975 158.78 15.9969 158.78 18.4201V195.89C158.779 198.312 158.3 200.711 157.37 202.948C156.441 205.184 155.079 207.216 153.364 208.926C151.648 210.636 149.612 211.991 147.372 212.913C145.132 213.835 142.732 214.307 140.31 214.3Z" fill="#DFB56B"/>
<mask id="mask0_40_2710" style="mask-type:luminance" maskUnits="userSpaceOnUse" x="0" y="0" width="159" height="215">
<path d="M140.31 214.3H18.42C16.0015 214.301 13.6065 213.826 11.3717 212.902C9.13696 211.977 7.10628 210.621 5.39569 208.911C3.6851 207.202 2.32814 205.172 1.40233 202.938C0.476514 200.703 -3.56783e-07 198.309 0 195.89V18.4201C0 13.5348 1.94068 8.84957 5.3951 5.39515C8.84952 1.94073 13.5347 6.7868e-05 18.42 6.7868e-05H140.31C142.733 -0.00650966 145.134 0.465078 147.374 1.38782C149.615 2.31057 151.651 3.66634 153.367 5.37745C155.083 7.08856 156.444 9.12136 157.373 11.3594C158.302 13.5975 158.78 15.9969 158.78 18.4201V195.89C158.779 198.312 158.3 200.711 157.37 202.948C156.441 205.184 155.079 207.216 153.364 208.926C151.648 210.636 149.612 211.991 147.372 212.913C145.132 213.835 142.732 214.307 140.31 214.3Z" fill="white"/>
</mask>
<g mask="url(#mask0_40_2710)">
<path d="M119.55 121.19C129.237 121.19 137.09 113.337 137.09 103.65C137.09 93.963 129.237 86.11 119.55 86.11C109.863 86.11 102.01 93.963 102.01 103.65C102.01 113.337 109.863 121.19 119.55 121.19Z" fill="#F49700"/>
<path d="M-0.389999 131.5C-0.389999 131.5 48.83 114.71 58.76 114.17C68.69 113.63 82.95 103.52 90.35 105.86C97.75 108.2 109.13 110.2 111.47 108.57C113.81 106.94 129.89 112.12 133.86 116.66C137.83 121.2 158.35 139.44 158.35 139.44L159.13 223.03L-0.410004 217.61L-0.389999 131.5Z" fill="url(#paint0_linear_40_2710)"/>
<path d="M0.649994 95.16C0.649994 95.16 6.02 94.93 8 93.85C9.98 92.77 16.49 94.93 23.17 93.85C29.85 92.77 35.27 96.74 40.68 97.85C46.09 98.96 56.75 115.36 64.68 119.85C72.61 124.34 84.36 133.93 90.32 130.85C96.28 127.77 107.83 116.76 119.75 113.96C130.336 111.527 140.464 107.415 149.75 101.78C157.7 96.9101 159.45 96.5501 159.45 96.5501V223.64L0.720001 224.91L0.649994 95.16Z" fill="url(#paint1_linear_40_2710)"/>
<path d="M-1.52588e-05 136.5C-1.52588e-05 136.5 14.74 129.09 28.64 129.5C42.54 129.91 54.82 141.05 72.33 139.79C89.84 138.53 100.67 131.3 110.24 132.2C119.81 133.1 138.58 135.81 146.71 132.2C150.626 130.372 154.658 128.802 158.78 127.5V256.4L-0.0200195 261.25L-1.52588e-05 136.5Z" fill="url(#paint2_linear_40_2710)"/>
<path d="M-0.0100098 171.15C-0.0100098 171.15 24.73 154.02 48.32 154.77C71.91 155.52 77.76 154.77 90.38 156.57C103 158.37 107.96 153.95 118.93 151.43C129.9 148.91 155.98 149.96 158.72 147.26V247.61L-0.0200195 251.68L-0.0100098 171.15Z" fill="url(#paint3_linear_40_2710)"/>
<path d="M1.58213e-05 170.96C1.58213e-05 170.96 -1.22998 188.64 15.05 186.05C31.33 183.46 48.33 180.23 58.69 182.17C69.05 184.11 97.69 187.17 108.02 185.41C118.35 183.65 129.72 183.25 136.63 180.23C143.54 177.21 158.73 170.96 158.73 170.96V201.14C158.73 201.14 160.02 216.05 140.31 217.24C120.6 218.43 18.42 217.24 18.42 217.24C18.42 217.24 1.58213e-05 216.66 1.58213e-05 201.14V170.96Z" fill="#2B1B11"/>
<path d="M43.72 98.05C50.55 102.74 78.28 102.84 70.94 113.45C63.6 124.06 82.57 126.91 84.5 139.65L87.36 138.94C88.1017 136.182 87.8796 133.253 86.7304 130.638C85.5811 128.023 83.5736 125.879 81.04 124.56C71.86 119.26 83.48 113.56 82.36 103.25C81.24 92.9401 83.99 86.3301 83.99 86.3301L43.72 98.05Z" fill="url(#paint4_linear_40_2710)"/>
<path d="M34.14 99.8201C34.14 99.8201 45.87 103.82 46.3 114.19C46.73 124.56 65.3 119.66 73.99 129.99L82.67 140.32C82.67 140.32 78.37 127.32 74.62 123.81C62.39 112.5 54.73 117.21 57.07 107.16C59.41 97.11 53.78 88.05 53.78 88.05L34.14 99.8201Z" fill="url(#paint5_linear_40_2710)"/>
<path d="M119.53 102.05C119.53 102.05 131.82 110.87 118.06 117.05C104.3 123.23 92.88 113.23 88.91 124.68C84.94 136.13 92.77 140.85 88.74 147.27C88.74 147.27 91.82 147.39 84.63 132.18C77.44 116.97 79.53 109.91 91.63 110.27C103.73 110.63 115.08 108.34 106.12 99.9501L119.53 102.05Z" fill="url(#paint6_linear_40_2710)"/>
<path d="M69.93 134.01C69.24 133.15 68.44 132.44 67.54 131.25C66.13 129.4 69.83 128.69 69.83 128.69C69.83 128.69 80.28 126.8 88.38 128.69C88.38 128.69 92.08 129.4 90.67 131.25C89.77 132.44 88.97 133.16 88.28 134.01" fill="#3A2000"/>
<path d="M70.09 133.89C70.2324 134.066 70.3326 134.272 70.3829 134.493C70.4332 134.713 70.4322 134.943 70.3801 135.163C70.3279 135.383 70.226 135.588 70.0821 135.763C69.9382 135.938 69.7561 136.077 69.5499 136.17C65.7299 137.89 57.55 142.17 58.26 155.64C58.6852 162.095 59.6079 168.507 61.0199 174.82C62.6183 182.675 64.8215 190.395 67.6099 197.91C67.7174 198.18 67.8878 198.421 68.1069 198.612C68.326 198.804 68.5876 198.94 68.87 199.01C72.3731 199.809 75.957 200.198 79.5499 200.17C83.2238 200.093 86.8842 199.698 90.4899 198.99C90.9257 198.908 91.3319 198.712 91.6674 198.423C92.0029 198.133 92.2557 197.759 92.3999 197.34C94.9699 189.85 98.1299 169.99 100.27 155.64C102.1 143.4 92.81 137.89 88.98 136.17C88.7738 136.077 88.5917 135.938 88.4478 135.763C88.3039 135.588 88.202 135.383 88.1498 135.163C88.0977 134.943 88.0967 134.713 88.147 134.493C88.1973 134.272 88.2975 134.066 88.44 133.89" fill="#3A2000"/>
<path d="M125.46 133.56C125.46 133.56 133.4 141.98 127.82 164.15" stroke="#2C1B11" stroke-miterlimit="10" stroke-linecap="round"/>
<path d="M127.2 125.67L129.2 124.18C129.2 124.18 130.83 123.9 130.2 123.18C129.57 122.46 128.82 123.85 128.82 123.85L127.99 124.57L127.27 125.2L127.2 125.67Z" fill="#351C11"/>
<path d="M108.38 163.67C108.38 163.67 115.46 158.53 119.2 160.18C119.2 160.18 120.3 165.67 121.8 166.87C123.3 168.07 126.39 174.7 125.49 176.15C124.59 177.6 118.26 187.57 120.1 189.47C121.093 189.631 122.095 189.732 123.1 189.77C125.04 189.87 122.68 191.87 119.26 191.09C115.84 190.31 115.16 190.7 116.21 187.79C117.26 184.88 117.47 176.73 120.88 176.13C120.88 176.13 122.32 174.93 120.19 173.73C118.06 172.53 115.01 170.04 115.7 168.73C115.7 168.73 112.97 167.44 111.83 169.06C110.69 170.68 108.56 175.3 107.24 175.54C105.92 175.78 105.24 179.7 102.96 181.65C100.68 183.6 103.69 185.27 105.23 185.49C106.77 185.71 103.98 187.49 100.62 186.02C97.26 184.55 99.87 183.66 99.9 183.02C99.93 182.38 101.4 174.87 104.48 173.69C104.838 171.747 105.847 169.984 107.34 168.69L108.38 163.67Z" fill="#2B1A10"/>
<path d="M114.25 139.28C114.25 139.28 109.25 140.94 108.25 144.7C107.25 148.46 110.35 153.52 109.25 156.7C108.15 159.88 106.2 164.41 106.2 164.41C106.2 164.41 119.29 160.15 120.99 161.32C120.99 161.32 118.72 157.68 119.35 156.32C119.98 154.96 118.8 147 117.84 146.24C116.88 145.48 116 141.98 116.75 140.93L114.25 139.28Z" fill="#2B1A10"/>
<path d="M114.17 139.63C114.17 139.63 114.17 138.89 115.29 138.04C116.41 137.19 118.81 133.34 119.99 131.68C121.17 130.02 123.27 128.87 123.48 128.13C123.69 127.39 124.75 125.04 126.67 124.73C128.59 124.42 128.67 125.01 128.67 125.01C128.67 125.01 128.07 126.3 127.54 126.3C127.01 126.3 125.54 129.3 124.8 129.14C124.06 128.98 120.87 136.83 119.42 137.74C117.6 138.89 116.49 142.35 116.49 142.35L114.16 140.43L114.17 139.63Z" fill="#2B1A10"/>
<path d="M104.78 140.34C104.751 139.594 104.932 138.855 105.301 138.207C105.67 137.558 106.214 137.026 106.87 136.67C109.1 135.59 109.61 135.47 109.98 136.8C110.35 138.13 110.98 137.8 111.46 137.8C111.94 137.8 113.11 139.53 111.83 140.35C110.55 141.17 109.78 143.15 107.47 142.72C106.836 142.635 106.241 142.364 105.762 141.94C105.283 141.516 104.941 140.959 104.78 140.34Z" fill="#2B1A10"/>
<path d="M120.79 148.12L141.86 149.67" stroke="#2C1B11" stroke-miterlimit="10" stroke-linecap="round"/>
<path d="M121.37 150.33L139.22 152.06" stroke="#2C1B11" stroke-miterlimit="10" stroke-linecap="round"/>
<path d="M120.91 152.59L138.04 154.56" stroke="#2C1B11" stroke-miterlimit="10" stroke-linecap="round"/>
<path d="M120.35 154.42L134.79 156.09" stroke="#2C1B11" stroke-miterlimit="10" stroke-linecap="round"/>
<path d="M119.61 156.49L133.45 157.67" stroke="#2C1B11" stroke-miterlimit="10" stroke-linecap="round"/>
<path d="M119.21 158.42L130.3 159.36" stroke="#2C1B11" stroke-miterlimit="10" stroke-linecap="round"/>
<path d="M118.75 160.24L128.43 161.07" stroke="#2C1B11" stroke-miterlimit="10" stroke-linecap="round"/>
<path d="M118.06 161.54L125.4 162.16" stroke="#2C1B11" stroke-miterlimit="10" stroke-linecap="round"/>
<path d="M117.52 162.96L123.59 163.29" stroke="#2C1B11" stroke-miterlimit="10" stroke-linecap="round"/>
<path d="M116.87 164.09L121.36 164.34" stroke="#2C1B11" stroke-miterlimit="10" stroke-linecap="round"/>
<path d="M146.78 137.28C146.78 137.28 152.47 153.58 127.53 168.44" stroke="#2C1B11" stroke-miterlimit="10" stroke-linecap="round"/>
<path d="M146.38 137.16C146.38 137.16 131.45 165.69 120.55 164.08H119.89C125.89 162.35 125.46 134.08 125.46 134.08" stroke="#2C1B11" stroke-width="0.25" stroke-miterlimit="10"/>
<path d="M120.84 166.17C120.84 166.17 125.39 164.54 125.46 164.17C125.53 163.8 125.2 163.17 126.38 163.17C127.56 163.17 128.94 162.88 128.44 164.32C127.94 165.76 127.44 165.32 127.63 166.62C127.883 167.871 128.251 169.097 128.73 170.28C128.869 170.315 128.999 170.38 129.111 170.469C129.223 170.559 129.314 170.672 129.378 170.8C129.443 170.928 129.479 171.068 129.484 171.211C129.49 171.355 129.465 171.497 129.41 171.63C129 172.63 130.8 180.5 131.18 180.76C131.56 181.02 135.18 183 135.24 184.09C135.3 185.18 131.06 182.59 131.06 182.59L131.27 191.28L128.64 191.7L128.79 180.85C128.79 180.85 127.17 180.23 128.29 179.53C128.29 179.53 128.29 172.81 126.94 175.02C125.59 177.23 120.19 187.78 118.89 187.9C117.59 188.02 118.57 186.69 119.1 185.9C119.63 185.11 125.7 175.62 125.7 175.62C125.7 175.62 127.05 173.79 126.97 172.55C126.89 171.31 127.53 169.4 126.38 169.28C125.23 169.16 125.96 165.89 125.96 165.89C125.96 165.89 123.12 166.51 121.73 166.69C120.34 166.87 120.84 166.17 120.84 166.17Z" fill="#2D1B11"/>
<path d="M41.68 138.94C41.68 138.94 34.85 141.74 34.81 147.53C34.77 153.32 34.29 153.33 34.29 153.33H44.64C44.64 153.33 43.83 145.64 44.43 145.13C45.03 144.62 46.62 137.66 41.68 138.94Z" fill="#2B1B11"/>
<path d="M34.78 153.05C34.78 153.05 33.49 172.9 34.35 174.83C34.35 174.83 42.35 172.25 43.35 169.03C43.35 169.03 43.95 154.82 43.13 152.63L34.78 153.05Z" fill="#2B1B11"/>
<path d="M37.55 172.23C37.55 172.23 37.74 178.23 38.81 179.92C39.4567 181.245 39.72 182.724 39.57 184.19C39.553 184.355 39.4804 184.509 39.364 184.627C39.2477 184.745 39.0946 184.821 38.93 184.84C38.16 184.95 36.86 185.16 36.7 185.47C36.54 185.78 37.56 186.35 37.56 186.35C37.56 186.35 40.76 186.81 42.14 186.35C43.14 185.98 42.49 185.35 42.14 185.02C41.9996 184.887 41.917 184.704 41.91 184.51C41.85 183.75 41.72 181.92 41.7 181.58C41.7 180.7 42.42 173.81 41.16 173C41.16 173 44.56 175.46 45.79 175.58C47.02 175.7 52.36 180.35 52.36 180.35C52.36 180.35 53.31 183.01 53.11 183.72C52.91 184.43 54.3 186.82 54.88 185.32C55.46 183.82 55.73 178.79 54.88 178.41C54.03 178.03 53.21 178.07 53.04 177.8C52.87 177.53 44.22 168.16 42.18 168.47C40.14 168.78 37.55 172.23 37.55 172.23Z" fill="#2B1B11"/>
<path d="M33.3 132.1C33.36 131.91 33.63 131.54 33.83 131.51H34.59C34.59 131.51 35.65 140.06 35.31 140.63C34.97 141.2 39.03 140.81 40.53 139.43C42.03 138.05 44.34 142.79 41.31 143.36C38.28 143.93 33.88 144.65 33.46 142.55C33.08 140.62 32.72 133.78 33.3 132.1Z" fill="#2B1B11"/>
<path d="M30.29 133.4C30.3129 133.066 30.4619 132.753 30.7071 132.524C30.9522 132.296 31.275 132.169 31.61 132.17L31.98 132.41C32.29 132.85 31.98 138.29 32.06 139.41C32.21 141.02 32.36 144.95 34.45 144.68H34.87C35.1098 144.653 35.3525 144.692 35.5716 144.793C35.7908 144.894 35.9781 145.053 36.1132 145.253C36.2482 145.453 36.3259 145.686 36.3376 145.927C36.3494 146.168 36.2949 146.408 36.18 146.62C36.0696 146.828 35.9057 147.002 35.7053 147.125C35.5048 147.248 35.2752 147.316 35.04 147.32C34.04 147.32 32.18 147.25 31.58 146.44C30.4 144.87 30.16 139.91 30.2 140.06C30.24 140.21 30.12 135.67 30.29 133.4Z" fill="#2B1B11"/>
<path d="M41.71 137.65C41.8228 138.162 41.8632 138.687 41.83 139.21L44.46 139.82C44.46 139.82 44.08 137.99 44.59 137.97L41.71 137.65Z" fill="#2B1B11"/>
<path d="M44.84 131.09C44.84 131.09 42.71 132.77 41.58 133.55C40.45 134.33 39.58 136.14 40.42 136.89C41.26 137.64 44.42 139.31 46.58 137.99C48.74 136.67 49.78 131.24 44.84 131.09Z" fill="#2B1B11"/>
<path d="M47.78 135.67C47.78 135.67 48.5601 136.45 48.2301 137.17C47.9001 137.89 46.1201 140.45 46.2301 141.42C46.3401 142.39 45.9901 145.01 46.5401 146.3C47.0901 147.59 46.82 145.75 47.47 144.93C48.12 144.11 50.2901 142.64 50.0101 140.43C49.7301 138.22 49.19 134.22 47.55 134.88C45.91 135.54 47.78 135.67 47.78 135.67Z" fill="#2B1B11"/>
<path d="M35.3 120.79C35.3 120.79 33.22 134.51 35.3 137.94" stroke="#2C1A10" stroke-width="0.5" stroke-miterlimit="10" stroke-linecap="round"/>
<path d="M36.2 118.42C36.2 118.42 29 132.33 31.45 139.11" stroke="#2C1A10" stroke-width="0.5" stroke-miterlimit="10" stroke-linecap="round"/>
<path d="M33.78 123.56C33.78 123.56 35.62 125.32 36.78 125.56" stroke="#2C1A10" stroke-width="0.5" stroke-miterlimit="10" stroke-linecap="round"/>
<path d="M33.29 124.93C33.29 124.93 35.75 127.28 37.23 127.54" stroke="#2C1A10" stroke-width="0.5" stroke-miterlimit="10" stroke-linecap="round"/>
<path d="M32.91 126.39C32.91 126.39 35.61 128.97 37.24 129.26" stroke="#2C1A10" stroke-width="0.5" stroke-miterlimit="10" stroke-linecap="round"/>
<path d="M32.29 127.69C32.29 127.69 36 131.24 38.29 131.63" stroke="#2C1A10" stroke-width="0.5" stroke-miterlimit="10" stroke-linecap="round"/>
<path d="M31.65 129.26C31.65 129.26 35.65 133.06 38.02 133.48" stroke="#2C1A10" stroke-width="0.5" stroke-miterlimit="10" stroke-linecap="round"/>
<path d="M31.34 130.62C31.34 130.62 35.64 134.74 38.24 135.19" stroke="#2C1A10" stroke-width="0.5" stroke-miterlimit="10" stroke-linecap="round"/>
<path d="M31.06 132.5C31.06 132.5 35.65 136.89 38.41 137.36" stroke="#2C1A10" stroke-width="0.5" stroke-miterlimit="10" stroke-linecap="round"/>
</g>
<defs>
<linearGradient id="paint0_linear_40_2710" x1="80.21" y1="146.77" x2="81.79" y2="89.51" gradientUnits="userSpaceOnUse">
<stop stop-color="#F7C172"/>
<stop offset="0.42" stop-color="#F4AA61"/>
<stop offset="1" stop-color="#BF662F"/>
</linearGradient>
<linearGradient id="paint1_linear_40_2710" x1="79.07" y1="213.73" x2="80.86" y2="112.12" gradientUnits="userSpaceOnUse">
<stop stop-color="#F7C172"/>
<stop offset="0.54" stop-color="#F4AA61"/>
<stop offset="1" stop-color="#D97F3B"/>
</linearGradient>
<linearGradient id="paint2_linear_40_2710" x1="72.88" y1="267.88" x2="86.24" y2="120.89" gradientUnits="userSpaceOnUse">
<stop stop-color="#F7C172"/>
<stop offset="0.42" stop-color="#F4AA61"/>
<stop offset="1" stop-color="#BF662F"/>
</linearGradient>
<linearGradient id="paint3_linear_40_2710" x1="74.9" y1="258.49" x2="85.61" y2="140.61" gradientUnits="userSpaceOnUse">
<stop stop-color="#F7C172"/>
<stop offset="0.42" stop-color="#F4AA61"/>
<stop offset="1" stop-color="#BF662F"/>
</linearGradient>
<linearGradient id="paint4_linear_40_2710" x1="85.67" y1="142.71" x2="58.6899" y2="80.2201" gradientUnits="userSpaceOnUse">
<stop stop-color="white" stop-opacity="0.4"/>
<stop offset="0.74" stop-color="#FDE6D8" stop-opacity="0"/>
</linearGradient>
<linearGradient id="paint5_linear_40_2710" x1="88.0618" y1="136.77" x2="42.5875" y2="95.6939" gradientUnits="userSpaceOnUse">
<stop offset="0.01" stop-color="white" stop-opacity="0.4"/>
<stop offset="0.98" stop-color="#FDE6D8" stop-opacity="0"/>
</linearGradient>
<linearGradient id="paint6_linear_40_2710" x1="83.5079" y1="132.395" x2="113.977" y2="97.0041" gradientUnits="userSpaceOnUse">
<stop offset="0.01" stop-color="white" stop-opacity="0.4"/>
<stop offset="0.98" stop-color="#FDE6D8" stop-opacity="0"/>
</linearGradient>
</defs>
</svg>
