<svg width="167" height="215" viewBox="0 0 167 215" fill="none" xmlns="http://www.w3.org/2000/svg">
<g clip-path="url(#clip0_41_2713)">
<path d="M147.31 214.3H25.42C20.5347 214.3 15.8495 212.359 12.3951 208.905C8.94071 205.45 7.00003 200.765 7.00003 195.88V18.42C7.00003 13.5347 8.94071 8.8495 12.3951 5.39508C15.8495 1.94066 20.5347 0 25.42 0H147.31C152.195 0 156.881 1.94066 160.335 5.39508C163.789 8.8495 165.73 13.5347 165.73 18.42V195.88C165.73 200.765 163.789 205.45 160.335 208.905C156.881 212.359 152.195 214.3 147.31 214.3Z" fill="#D19155"/>
<path d="M54.09 74.39C65.5168 74.39 74.78 65.1268 74.78 53.7C74.78 42.2732 65.5168 33.01 54.09 33.01C42.6633 33.01 33.4 42.2732 33.4 53.7C33.4 65.1268 42.6633 74.39 54.09 74.39Z" fill="#FCBE00"/>
<mask id="mask0_41_2713" style="mask-type:luminance" maskUnits="userSpaceOnUse" x="7" y="0" width="159" height="215">
<path d="M147.31 214.3H25.42C20.5347 214.3 15.8495 212.359 12.3951 208.905C8.94068 205.45 7 200.765 7 195.88V18.42C7 13.5347 8.94068 8.8495 12.3951 5.39508C15.8495 1.94066 20.5347 0 25.42 0H147.31C152.195 0 156.88 1.94066 160.335 5.39508C163.789 8.8495 165.73 13.5347 165.73 18.42V195.88C165.73 200.765 163.789 205.45 160.335 208.905C156.88 212.359 152.195 214.3 147.31 214.3Z" fill="white"/>
</mask>
<g mask="url(#mask0_41_2713)">
<path d="M169.58 91.84H3.14001V214.3H169.58V91.84Z" fill="#D6906A"/>
<path d="M17.98 94.09C17.98 94.09 33.15 67.09 38.41 59.09C43.67 51.09 49.66 37.71 53.9 45.27C58.14 52.83 68.08 89.1 97.82 94.7L17.98 94.09Z" fill="#D6906A"/>
<path d="M41.37 95.7C41.37 95.7 65.78 73.75 68.85 66.91C71.92 60.07 79.37 44.2 93.76 59.09C108.15 73.98 149 97.66 149 97.66L41.37 95.7Z" fill="#D6906A"/>
<path d="M79.68 97.62C97.94 99.33 97.8 103.9 95.32 105.53C87.6 110.61 91.58 112.09 95.32 114.97C99.06 117.85 114.32 126.48 115.11 131.2C115.9 135.92 110.89 142.28 124.84 143.2C138.79 144.12 128.84 156.62 107.99 164.51C87.14 172.4 123.17 173.78 132.51 175.42C141.85 177.06 150.75 201.14 100.19 214.26H50.37C50.37 214.26 53.37 203.59 65.87 196.09C78.37 188.59 98.15 188.5 90.27 184.5C82.39 180.5 75.56 182.67 73.05 176.32C70.54 169.97 74.57 162.72 79.71 161.9C84.85 161.08 85.82 160.9 85.71 159.74C85.27 156.52 70.51 158.66 69.52 155.51C68.74 153.03 66.74 149.08 71.99 148.57C77.24 148.06 80.52 144.57 70.58 143.33C60.64 142.09 59.53 133.41 59.18 125.22C59.18 125.22 54.26 117.22 64.5 116.49C74.74 115.76 76.75 115.38 76.62 114.74C76.49 114.1 76.68 113.57 62.74 113.74C62.74 113.74 60.52 112.04 64.74 111.64C68.96 111.24 68.74 110.39 66.26 110.34C63.78 110.29 56.45 110.59 56.45 110.59C56.45 110.59 54.45 107.48 58.11 107.59C58.11 107.59 67.11 105.59 67.56 105.18C71.47 101.69 67.92 99.41 66.07 94.51C63.29 87.16 67.89 64.12 70.63 59.59C74.22 53.65 76.28 53.17 76.28 53.17C76.28 53.17 73.01 56.77 72.52 60.81C71.27 71.09 68.52 96.57 79.68 97.62Z" fill="url(#paint0_linear_41_2713)"/>
<path d="M77.23 62.44C75.91 62.37 74.63 62.51 72.84 62.37C70.05 62.15 72.39 58.27 72.39 58.27C72.39 58.27 79.09 47.39 87.28 41.66C87.28 41.66 90.88 38.91 91.41 41.66C91.75 43.43 91.75 44.72 91.96 46.02" fill="#946842"/>
<path d="M77.23 62.44C77.5015 62.4535 77.7663 62.5291 78.0041 62.6608C78.2418 62.7925 78.4463 62.977 78.6017 63.2C78.7571 63.423 78.8595 63.6787 78.9008 63.9474C78.9421 64.216 78.9213 64.4906 78.84 64.75C77.31 69.56 74.51 80.31 87.2 90.49C93.3162 95.2864 99.792 99.6058 106.57 103.41C114.899 108.285 123.591 112.511 132.57 116.05C132.899 116.171 133.252 116.211 133.6 116.168C133.948 116.124 134.281 115.998 134.57 115.8C138.1 113.306 141.329 110.41 144.19 107.17C147.062 103.818 149.645 100.229 151.91 96.44C152.192 95.9834 152.346 95.4596 152.357 94.9232C152.367 94.3867 152.234 93.8573 151.97 93.39C147.32 85.09 132.09 66.33 120.97 52.89C111.48 41.43 99.09 45.33 94.48 47.37C94.231 47.4787 93.9604 47.529 93.6889 47.517C93.4175 47.505 93.1524 47.431 92.9139 47.3007C92.6755 47.1704 92.4701 46.9872 92.3134 46.7652C92.1567 46.5432 92.0529 46.2883 92.01 46.02" fill="#946842"/>
<path d="M133.87 151.5C133.87 151.5 122.79 137.64 104.03 139.97C85.27 142.3 101.53 126.29 102.78 120.89C104.03 115.49 110.78 67.09 123.23 66.19C123.23 66.19 124.72 66.34 125.23 62.98C125.74 59.62 127.18 60.88 128.79 60.16C130.4 59.44 135.01 54.89 137.59 59.74C140.17 64.59 139.21 69.65 144.12 72.79C149.03 75.93 155.26 151.5 155.26 151.5H133.87Z" fill="#B16F42"/>
<path d="M55.09 130.48C55.09 130.48 67.97 129.48 68.58 126.48C69.19 123.48 52.89 103.94 49.66 95.42C46.43 86.9 44.88 86.42 42.03 76.13C39.18 65.84 36.47 50.58 32.21 53.58C27.95 56.58 7.00003 130.49 7.00003 130.49L55.09 130.48Z" fill="#753623"/>
<path d="M8.22003 118.8C8.22003 118.8 19.6 96.86 25.95 95.4C32.3 93.94 31.15 93.12 32.78 88.07C34.41 83.02 45.78 100.5 61.5 141.44H8.22003V118.8Z" fill="#8B5B19"/>
<path d="M6.53002 34.81C6.53002 34.81 12.86 30.08 16.02 43.81C19.18 57.54 21.09 55.48 23.2 58.95C25.31 62.42 40.29 213.64 40.29 213.64L23.37 213.56C23.37 213.56 7.43001 211.56 6.96001 195.25C6.49001 178.94 6.53002 34.81 6.53002 34.81Z" fill="#5D481D"/>
<path d="M37.29 159.41C37.29 159.41 47.29 140.77 53.06 133.98C58.83 127.19 51.81 126.21 59.34 126.41C66.87 126.61 64.34 117.52 67.58 132.41C70.82 147.3 72.58 164.81 76.72 161.9C80.86 158.99 87.3 189.66 87.3 189.66C87.3 189.66 58.44 201.12 34.24 196.46C10.04 191.8 37.29 159.41 37.29 159.41Z" fill="#5D481D"/>
<path d="M4.59003 94.09C4.59003 94.09 6.69003 70.95 11.2 76.96C15.71 82.97 25.92 115.13 34.04 113.62C42.16 112.11 44.85 116.93 53.57 151.18C62.29 185.43 68.57 213.42 68.57 213.42H24.51C24.51 213.42 8.51003 215.08 6.09003 195C3.67003 174.92 4.59003 94.09 4.59003 94.09Z" fill="#B16F42"/>
<path d="M4.49002 146.5C4.49002 146.5 9.30002 142.41 10.76 160.73C12.22 179.05 12.42 155 20.92 165.99C29.42 176.98 24.37 187.14 32.6 193.99C40.83 200.84 44.6 185.49 51.82 189.43C59.04 193.37 65.71 199.43 69.65 202.91C73.59 206.39 72.55 214.31 72.55 214.31L23.37 213.56C23.37 213.56 6.47003 213.86 5.58003 189.82C4.69003 165.78 4.49002 146.5 4.49002 146.5Z" fill="#8B5B19"/>
<path d="M165.74 38.16C165.74 38.16 162.05 33.74 160.22 40.44C158.39 47.14 156.97 45.92 155.95 49.37C154.93 52.82 137.06 154.42 137.06 154.42H165.74V38.16Z" fill="#5D481D"/>
<path d="M167.28 69.09C165.926 68.0864 164.775 66.8341 163.89 65.4C161.45 61.4 156.38 53.25 155.25 52.27C153.75 50.97 153.34 52.27 153.34 52.27C153.34 52.27 152.14 49.36 149.64 53.57C147.14 57.78 146.33 51.97 145.23 57.68C144.13 63.39 135.52 157.82 135.52 157.82H167.28V69.09Z" fill="#8B5B19"/>
<path d="M165.73 91.35C165.73 91.35 162.65 93.47 162.51 89.99C162.37 86.51 162.65 78.14 159.32 80.31C155.99 82.48 159.76 66.42 155.85 72.06C151.94 77.7 148.48 129.65 144.85 123.85C141.22 118.05 141.41 134.68 140.24 140.61C139.07 146.54 104.79 155.94 110.87 174.31C116.95 192.68 92.65 214.31 92.65 214.31H149.91C154.105 213.211 157.866 210.859 160.691 207.568C163.516 204.277 165.27 200.204 165.72 195.89C167.71 180.38 165.73 91.35 165.73 91.35Z" fill="#4A331C"/>
</g>
</g>
<path d="M21.7932 27V16.822H21.3172L21.2752 16.444L21.9752 15.8H22.7242V27H21.7932ZM24.1133 27V25.747H25.6813V27H24.1133ZM32.498 27V16.64H31.07V15.8H34.85V16.64H33.429V27H32.498ZM36.4663 27.091C36.0137 27.091 35.68 26.958 35.4653 26.692C35.2507 26.426 35.1223 26.0293 35.0803 25.502C35.0757 25.3853 35.071 25.2663 35.0663 25.145C35.0617 25.0237 35.0617 24.907 35.0663 24.795C35.0897 24.4683 35.1457 24.172 35.2343 23.906C35.323 23.64 35.4653 23.3973 35.6613 23.178C35.862 22.9587 36.135 22.7487 36.4803 22.548C36.681 22.4313 36.8887 22.3193 37.1033 22.212C37.318 22.1047 37.5327 22.0043 37.7473 21.911V20.126C37.7473 19.818 37.689 19.594 37.5723 19.454C37.4557 19.314 37.2457 19.244 36.9423 19.244C36.6763 19.244 36.478 19.3047 36.3473 19.426C36.2167 19.5473 36.1443 19.7737 36.1303 20.105C36.1257 20.2123 36.121 20.3477 36.1163 20.511C36.1163 20.6697 36.1163 20.8353 36.1163 21.008C36.121 21.176 36.1257 21.3277 36.1303 21.463H35.2273C35.2227 21.2763 35.218 21.064 35.2133 20.826C35.2087 20.588 35.2087 20.3757 35.2133 20.189C35.2273 19.7923 35.295 19.4703 35.4163 19.223C35.5377 18.9757 35.7243 18.796 35.9763 18.684C36.2283 18.5673 36.5597 18.509 36.9703 18.509C37.3997 18.509 37.7357 18.572 37.9783 18.698C38.2257 18.8193 38.4007 19.013 38.5033 19.279C38.6107 19.5403 38.6643 19.8833 38.6643 20.308V27H37.7403V26.244H37.5863C37.4837 26.51 37.3483 26.7177 37.1803 26.867C37.0123 27.0163 36.7743 27.091 36.4663 27.091ZM36.7743 26.37C37.0123 26.37 37.2107 26.3023 37.3693 26.167C37.5327 26.027 37.6587 25.824 37.7473 25.558V22.681C37.584 22.7463 37.416 22.8233 37.2433 22.912C37.0753 23.0007 36.8863 23.1243 36.6763 23.283C36.4103 23.479 36.233 23.7007 36.1443 23.948C36.0557 24.1907 36.0043 24.473 35.9903 24.795C35.9857 24.879 35.9833 24.9793 35.9833 25.096C35.988 25.2127 35.9927 25.3293 35.9973 25.446C36.0207 25.74 36.1 25.9687 36.2353 26.132C36.3707 26.2907 36.5503 26.37 36.7743 26.37ZM35.7523 18.033L36.6553 16.444H37.2713L38.1813 18.033H37.4953L36.9703 17.053L36.4383 18.033H35.7523ZM40.1575 27V18.6H41.0885V19.349H41.2705C41.4105 19.0597 41.5715 18.8473 41.7535 18.712C41.9355 18.572 42.1922 18.502 42.5235 18.502C42.8549 18.502 43.1209 18.572 43.3215 18.712C43.5222 18.8473 43.6645 19.076 43.7485 19.398H43.9305C44.0705 19.1087 44.2432 18.887 44.4485 18.733C44.6539 18.579 44.9199 18.502 45.2465 18.502C45.6852 18.502 46.0142 18.6303 46.2335 18.887C46.4575 19.1437 46.5719 19.5707 46.5765 20.168V27H45.6455V20.105C45.6409 19.7923 45.5802 19.5683 45.4635 19.433C45.3515 19.2977 45.1719 19.23 44.9245 19.23C44.6679 19.23 44.4462 19.3023 44.2595 19.447C44.0775 19.5917 43.9399 19.8087 43.8465 20.098V27H42.9155V20.105C42.9109 19.7923 42.8525 19.5683 42.7405 19.433C42.6285 19.2977 42.4465 19.23 42.1945 19.23C41.9332 19.23 41.7069 19.2977 41.5155 19.433C41.3242 19.5683 41.1819 19.7853 41.0885 20.084V27H40.1575ZM50.9373 27V15.8H51.8613V20.945H53.6533V15.8H54.5773V27H53.6533V21.778H51.8613V27H50.9373ZM57.8143 27.098C57.3803 27.098 57.0326 27.0373 56.7713 26.916C56.5099 26.79 56.3186 26.594 56.1973 26.328C56.0806 26.062 56.0129 25.712 55.9943 25.278C55.9803 24.9 55.9686 24.5033 55.9593 24.088C55.9546 23.668 55.9523 23.2433 55.9523 22.814C55.9523 22.38 55.9546 21.953 55.9593 21.533C55.9686 21.113 55.9803 20.7093 55.9943 20.322C56.0129 19.888 56.0806 19.538 56.1973 19.272C56.3186 19.006 56.5099 18.8123 56.7713 18.691C57.0326 18.565 57.3803 18.502 57.8143 18.502C58.2529 18.502 58.6006 18.565 58.8573 18.691C59.1139 18.8123 59.3006 19.006 59.4173 19.272C59.5386 19.538 59.6086 19.888 59.6273 20.322C59.6366 20.7 59.6436 21.099 59.6483 21.519C59.6576 21.939 59.6623 22.3637 59.6623 22.793C59.6623 23.2223 59.6576 23.6493 59.6483 24.074C59.6436 24.494 59.6366 24.8953 59.6273 25.278C59.6086 25.7073 59.5386 26.0573 59.4173 26.328C59.3006 26.594 59.1139 26.79 58.8573 26.916C58.6006 27.0373 58.2529 27.098 57.8143 27.098ZM57.8143 26.356C58.1223 26.356 58.3439 26.2907 58.4793 26.16C58.6146 26.0293 58.6869 25.8007 58.6963 25.474C58.7103 24.9747 58.7219 24.508 58.7313 24.074C58.7406 23.64 58.7453 23.2153 58.7453 22.8C58.7453 22.3847 58.7406 21.96 58.7313 21.526C58.7219 21.092 58.7103 20.6277 58.6963 20.133C58.6869 19.8017 58.6169 19.5707 58.4863 19.44C58.3556 19.3093 58.1316 19.244 57.8143 19.244C57.4969 19.244 57.2706 19.3093 57.1353 19.44C56.9999 19.5707 56.9276 19.8017 56.9183 20.133C56.9043 20.6277 56.8926 21.092 56.8833 21.526C56.8786 21.96 56.8763 22.387 56.8763 22.807C56.8763 23.2223 56.8786 23.647 56.8833 24.081C56.8926 24.515 56.9043 24.9793 56.9183 25.474C56.9276 25.8007 56.9999 26.0293 57.1353 26.16C57.2753 26.2907 57.5016 26.356 57.8143 26.356ZM56.5963 18.033L57.4993 16.444H58.1153L59.0253 18.033H58.3393L57.8143 17.053L57.2823 18.033H56.5963ZM59.1093 16.64L58.1573 15.051H58.8573L59.7883 16.64H59.1093ZM61.0618 27V18.6H61.9928V19.349H62.1958C62.3265 19.0783 62.4852 18.8707 62.6718 18.726C62.8632 18.5767 63.1152 18.502 63.4278 18.502C63.8665 18.502 64.1955 18.6303 64.4148 18.887C64.6342 19.1437 64.7462 19.5707 64.7508 20.168V27H63.8268V20.105C63.8222 19.7923 63.7615 19.5683 63.6448 19.433C63.5328 19.2977 63.3508 19.23 63.0988 19.23C62.8562 19.23 62.6345 19.3047 62.4338 19.454C62.2332 19.5987 62.0862 19.8087 61.9928 20.084V27H61.0618ZM70.8639 27.105C70.2246 27.105 69.7649 26.9627 69.4849 26.678C69.2096 26.3887 69.0649 25.9173 69.0509 25.264C69.0369 24.606 69.0276 23.9573 69.0229 23.318C69.0182 22.6787 69.0159 22.0417 69.0159 21.407C69.0159 20.7723 69.0182 20.1353 69.0229 19.496C69.0276 18.852 69.0369 18.201 69.0509 17.543C69.0602 16.9363 69.2049 16.4813 69.4849 16.178C69.7696 15.87 70.2246 15.716 70.8499 15.716C71.4892 15.716 71.9512 15.8583 72.2359 16.143C72.5206 16.423 72.6746 16.892 72.6979 17.55C72.7026 17.7273 72.7049 17.9513 72.7049 18.222C72.7049 18.488 72.7026 18.7563 72.6979 19.027C72.6932 19.293 72.6886 19.5147 72.6839 19.692H71.7599C71.7646 19.454 71.7669 19.2043 71.7669 18.943C71.7716 18.6817 71.7739 18.4203 71.7739 18.159C71.7739 17.893 71.7716 17.6433 71.7669 17.41C71.7622 17.0787 71.6876 16.8453 71.5429 16.71C71.4029 16.57 71.1719 16.5 70.8499 16.5C70.5512 16.5 70.3342 16.57 70.1989 16.71C70.0636 16.8453 69.9912 17.0787 69.9819 17.41C69.9679 18.1007 69.9562 18.7773 69.9469 19.44C69.9422 20.098 69.9399 20.7537 69.9399 21.407C69.9399 22.0557 69.9422 22.7113 69.9469 23.374C69.9562 24.032 69.9679 24.7087 69.9819 25.404C69.9912 25.726 70.0636 25.9593 70.1989 26.104C70.3389 26.244 70.5606 26.314 70.8639 26.314C71.1999 26.314 71.4426 26.244 71.5919 26.104C71.7412 25.9593 71.8182 25.726 71.8229 25.404C71.8276 25.1473 71.8299 24.879 71.8299 24.599C71.8299 24.319 71.8276 24.039 71.8229 23.759C71.8182 23.479 71.8136 23.213 71.8089 22.961H72.7399C72.7539 23.3577 72.7609 23.7427 72.7609 24.116C72.7656 24.4847 72.7632 24.8673 72.7539 25.264C72.7306 25.9173 72.5719 26.3887 72.2779 26.678C71.9886 26.9627 71.5172 27.105 70.8639 27.105ZM75.3314 27.098C74.8928 27.098 74.5568 26.9673 74.3234 26.706C74.0948 26.4447 73.9804 26.02 73.9804 25.432V18.6H74.9114V25.495C74.9114 25.803 74.9674 26.027 75.0794 26.167C75.1961 26.3023 75.3781 26.37 75.6254 26.37C75.8728 26.37 76.0968 26.2953 76.2974 26.146C76.4981 25.9967 76.6428 25.7867 76.7314 25.516V18.6H77.6624V27H76.7314V26.251H76.5634C76.4281 26.5357 76.2578 26.748 76.0524 26.888C75.8471 27.028 75.6068 27.098 75.3314 27.098ZM75.8004 17.907L75.8914 17.291C75.9241 17.1137 75.9101 16.9947 75.8494 16.934C75.7888 16.8733 75.6558 16.843 75.4504 16.843H74.8834V16.353H75.4504C75.8331 16.353 76.1061 16.4253 76.2694 16.57C76.4328 16.7147 76.4864 16.955 76.4304 17.291L76.3394 17.907H75.8004ZM80.3667 27.091C79.9141 27.091 79.5804 26.958 79.3657 26.692C79.1511 26.426 79.0227 26.0293 78.9807 25.502C78.9761 25.3853 78.9714 25.2663 78.9667 25.145C78.9621 25.0237 78.9621 24.907 78.9667 24.795C78.9901 24.4683 79.0461 24.172 79.1347 23.906C79.2234 23.64 79.3657 23.3973 79.5617 23.178C79.7624 22.9587 80.0354 22.7487 80.3807 22.548C80.5814 22.4313 80.7891 22.3193 81.0037 22.212C81.2184 22.1047 81.4331 22.0043 81.6477 21.911V20.126C81.6477 19.818 81.5894 19.594 81.4727 19.454C81.3561 19.314 81.1461 19.244 80.8427 19.244C80.5767 19.244 80.3784 19.3047 80.2477 19.426C80.1171 19.5473 80.0447 19.7737 80.0307 20.105C80.0261 20.2123 80.0214 20.3477 80.0167 20.511C80.0167 20.6697 80.0167 20.8353 80.0167 21.008C80.0214 21.176 80.0261 21.3277 80.0307 21.463H79.1277C79.1231 21.2763 79.1184 21.064 79.1137 20.826C79.1091 20.588 79.1091 20.3757 79.1137 20.189C79.1277 19.7923 79.1954 19.4703 79.3167 19.223C79.4381 18.9757 79.6247 18.796 79.8767 18.684C80.1287 18.5673 80.4601 18.509 80.8707 18.509C81.3001 18.509 81.6361 18.572 81.8787 18.698C82.1261 18.8193 82.3011 19.013 82.4037 19.279C82.5111 19.5403 82.5647 19.8833 82.5647 20.308V27H81.6407V26.244H81.4867C81.3841 26.51 81.2487 26.7177 81.0807 26.867C80.9127 27.0163 80.6747 27.091 80.3667 27.091ZM80.6747 26.37C80.9127 26.37 81.1111 26.3023 81.2697 26.167C81.4331 26.027 81.5591 25.824 81.6477 25.558V22.681C81.4844 22.7463 81.3164 22.8233 81.1437 22.912C80.9757 23.0007 80.7867 23.1243 80.5767 23.283C80.3107 23.479 80.1334 23.7007 80.0447 23.948C79.9561 24.1907 79.9047 24.473 79.8907 24.795C79.8861 24.879 79.8837 24.9793 79.8837 25.096C79.8884 25.2127 79.8931 25.3293 79.8977 25.446C79.9211 25.74 80.0004 25.9687 80.1357 26.132C80.2711 26.2907 80.4507 26.37 80.6747 26.37ZM86.9354 27V15.8H88.5174L89.1404 19.349L90.0924 26.16H90.4074L90.2464 19.762L90.1834 15.8H91.0934V27H89.4554L88.7554 22.982L87.9574 16.64H87.6214L87.7754 22.807L87.8314 27H86.9354ZM93.8978 27.098C93.4592 27.098 93.1232 26.9673 92.8898 26.706C92.6612 26.4447 92.5468 26.02 92.5468 25.432V18.6H93.4778V25.495C93.4778 25.803 93.5338 26.027 93.6458 26.167C93.7625 26.3023 93.9445 26.37 94.1918 26.37C94.4392 26.37 94.6632 26.2953 94.8638 26.146C95.0645 25.9967 95.2092 25.7867 95.2978 25.516V18.6H96.2288V27H95.2978V26.251H95.1298C94.9945 26.5357 94.8242 26.748 94.6188 26.888C94.4135 27.028 94.1732 27.098 93.8978 27.098ZM94.0518 18.04L95.0318 16.451H95.7318L94.7238 18.04H94.0518ZM97.4911 16.92V15.8H98.9611V16.92H97.4911ZM97.7641 27V18.6H98.6881V27H97.7641ZM103.096 27V15.8H104.797C105.431 15.8 105.891 15.94 106.176 16.22C106.46 16.5 106.617 16.9643 106.645 17.613C106.659 18.0283 106.668 18.4227 106.673 18.796C106.677 19.1647 106.677 19.524 106.673 19.874C106.668 20.2193 106.659 20.5647 106.645 20.91C106.631 21.3627 106.551 21.7243 106.407 21.995C106.262 22.261 106.038 22.45 105.735 22.562L106.862 27H105.868L104.839 22.723H104.02V27H103.096ZM104.02 21.883H104.79C105.107 21.883 105.336 21.8083 105.476 21.659C105.62 21.5097 105.7 21.274 105.714 20.952C105.728 20.5833 105.737 20.21 105.742 19.832C105.746 19.4493 105.746 19.069 105.742 18.691C105.737 18.313 105.728 17.9397 105.714 17.571C105.7 17.249 105.623 17.0133 105.483 16.864C105.343 16.7147 105.114 16.64 104.797 16.64H104.02V21.883ZM109.292 27.098C108.854 27.098 108.518 26.9673 108.284 26.706C108.056 26.4447 107.941 26.02 107.941 25.432V18.6H108.872V25.495C108.872 25.803 108.928 26.027 109.04 26.167C109.157 26.3023 109.339 26.37 109.586 26.37C109.834 26.37 110.058 26.2953 110.258 26.146C110.459 25.9967 110.604 25.7867 110.692 25.516V18.6H111.623V27H110.692V26.251H110.524C110.389 26.5357 110.219 26.748 110.013 26.888C109.808 27.028 109.568 27.098 109.292 27.098ZM111.091 19.209C111.049 19.209 111.005 19.2067 110.958 19.202C110.916 19.1973 110.872 19.1903 110.825 19.181L110.811 18.607C110.872 18.607 110.923 18.607 110.965 18.607C111.007 18.607 111.049 18.607 111.091 18.607C111.404 18.5977 111.612 18.5323 111.714 18.411C111.822 18.2897 111.882 18.061 111.896 17.725C111.901 17.6317 111.903 17.522 111.903 17.396C111.908 17.27 111.908 17.144 111.903 17.018C111.903 16.8873 111.901 16.7753 111.896 16.682H112.533C112.538 16.7753 112.54 16.8873 112.54 17.018C112.545 17.144 112.545 17.27 112.54 17.396C112.54 17.522 112.538 17.6317 112.533 17.725C112.505 18.2523 112.382 18.6327 112.162 18.866C111.943 19.0947 111.586 19.209 111.091 19.209ZM109.348 18.04L108.396 16.451H109.096L110.027 18.04H109.348ZM113.152 27V18.6H114.083V19.349H114.286C114.416 19.0783 114.575 18.8707 114.762 18.726C114.953 18.5767 115.205 18.502 115.518 18.502C115.956 18.502 116.285 18.6303 116.505 18.887C116.724 19.1437 116.836 19.5707 116.841 20.168V27H115.917V20.105C115.912 19.7923 115.851 19.5683 115.735 19.433C115.623 19.2977 115.441 19.23 115.189 19.23C114.946 19.23 114.724 19.3047 114.524 19.454C114.323 19.5987 114.176 19.8087 114.083 20.084V27H113.152ZM120.041 29.275C119.453 29.275 118.987 29.1817 118.641 28.995C118.296 28.813 118.107 28.512 118.074 28.092C118.074 28.0547 118.07 28.008 118.06 27.952C118.056 27.9007 118.056 27.8447 118.06 27.784C118.074 27.518 118.163 27.3103 118.326 27.161C118.494 27.0117 118.69 26.9207 118.914 26.888V26.699C118.709 26.6337 118.55 26.5427 118.438 26.426C118.331 26.3093 118.27 26.1623 118.256 25.985C118.256 25.943 118.256 25.9033 118.256 25.866C118.256 25.8287 118.256 25.789 118.256 25.747C118.266 25.5557 118.336 25.3947 118.466 25.264C118.597 25.1333 118.751 25.0563 118.928 25.033V24.844C118.686 24.7227 118.504 24.5383 118.382 24.291C118.266 24.0437 118.198 23.7263 118.179 23.339C118.17 23.0357 118.163 22.765 118.158 22.527C118.154 22.2843 118.151 22.051 118.151 21.827C118.151 21.603 118.154 21.3627 118.158 21.106C118.163 20.8493 118.17 20.5553 118.179 20.224C118.198 19.818 118.27 19.489 118.396 19.237C118.522 18.9803 118.714 18.796 118.97 18.684C119.232 18.5673 119.572 18.509 119.992 18.509C120.445 18.509 120.8 18.5743 121.056 18.705C121.318 18.831 121.509 19.0363 121.63 19.321H121.812C121.831 19.0783 121.91 18.8987 122.05 18.782C122.195 18.6607 122.393 18.6 122.645 18.6V19.342H122.421C122.244 19.342 122.104 19.4213 122.001 19.58C121.899 19.7387 121.845 19.9813 121.84 20.308L121.826 21.092C121.831 21.2927 121.833 21.4817 121.833 21.659C121.833 21.8363 121.833 22.0113 121.833 22.184C121.833 22.352 121.831 22.5293 121.826 22.716C121.826 22.9027 121.822 23.1103 121.812 23.339C121.789 23.745 121.714 24.074 121.588 24.326C121.462 24.578 121.269 24.7623 121.007 24.879C120.751 24.991 120.412 25.047 119.992 25.047C119.642 25.0377 119.388 25.0797 119.229 25.173C119.075 25.2617 118.998 25.404 118.998 25.6V25.684C119.003 25.8053 119.038 25.901 119.103 25.971C119.173 26.041 119.285 26.0947 119.439 26.132C119.593 26.1647 119.803 26.188 120.069 26.202C120.713 26.2207 121.206 26.3257 121.546 26.517C121.887 26.7083 122.076 27.0513 122.113 27.546C122.118 27.6067 122.12 27.6673 122.12 27.728C122.12 27.7887 122.118 27.8517 122.113 27.917C122.09 28.2623 121.99 28.533 121.812 28.729C121.635 28.9297 121.395 29.0697 121.091 29.149C120.788 29.233 120.438 29.275 120.041 29.275ZM120.055 28.554C120.293 28.554 120.501 28.5353 120.678 28.498C120.856 28.4607 120.996 28.393 121.098 28.295C121.206 28.197 121.266 28.057 121.28 27.875C121.285 27.819 121.285 27.7653 121.28 27.714C121.28 27.6673 121.278 27.6183 121.273 27.567C121.259 27.3803 121.201 27.2427 121.098 27.154C121 27.07 120.863 27.0117 120.685 26.979C120.508 26.9463 120.3 26.9253 120.062 26.916C119.708 26.8927 119.43 26.9277 119.229 27.021C119.029 27.1143 118.919 27.301 118.9 27.581C118.896 27.6277 118.893 27.6767 118.893 27.728C118.893 27.7793 118.896 27.8283 118.9 27.875C118.914 28.0663 118.968 28.211 119.061 28.309C119.159 28.407 119.292 28.4723 119.46 28.505C119.628 28.5377 119.827 28.554 120.055 28.554ZM119.992 24.305C120.31 24.305 120.536 24.242 120.671 24.116C120.807 23.9853 120.881 23.7567 120.895 23.43C120.905 23.1827 120.912 22.9237 120.916 22.653C120.926 22.3823 120.93 22.1047 120.93 21.82C120.93 21.5307 120.926 21.2437 120.916 20.959C120.912 20.6743 120.905 20.3967 120.895 20.126C120.881 19.7947 120.807 19.566 120.671 19.44C120.536 19.3093 120.31 19.244 119.992 19.244C119.675 19.244 119.446 19.3093 119.306 19.44C119.171 19.566 119.099 19.7947 119.089 20.126C119.08 20.4107 119.073 20.6977 119.068 20.987C119.064 21.2763 119.061 21.561 119.061 21.841C119.061 22.1163 119.064 22.387 119.068 22.653C119.073 22.919 119.08 23.1757 119.089 23.423C119.103 23.7497 119.178 23.9783 119.313 24.109C119.449 24.2397 119.675 24.305 119.992 24.305Z" fill="black"/>
<defs>
<linearGradient id="paint0_linear_41_2713" x1="96.07" y1="213.31" x2="83.17" y2="42.1" gradientUnits="userSpaceOnUse">
<stop stop-color="#EEBFA4"/>
<stop offset="1" stop-color="#FDE6D8"/>
</linearGradient>
<clipPath id="clip0_41_2713">
<rect width="166.44" height="214.3" fill="white"/>
</clipPath>
</defs>
</svg>
