<svg width="185" height="222" viewBox="0 0 185 222" fill="none" xmlns="http://www.w3.org/2000/svg">
<path d="M147.31 214.32H25.42C20.5347 214.32 15.8495 212.379 12.3951 208.925C8.94069 205.47 7 200.785 7 195.9V15C7 8.27 15.25 0 25.42 0H147.31C152.194 -7.19659e-07 156.877 1.93931 160.331 5.39157C163.785 8.84383 165.727 13.5264 165.73 18.41V195.9C165.73 198.319 165.254 200.714 164.328 202.949C163.402 205.184 162.045 207.214 160.335 208.925C158.624 210.635 156.594 211.992 154.359 212.918C152.124 213.844 149.729 214.32 147.31 214.32Z" fill="#DFB56B"/>
<mask id="mask0_41_2714" style="mask-type:luminance" maskUnits="userSpaceOnUse" x="7" y="0" width="159" height="215">
<path d="M147.31 214.32H25.42C20.5347 214.32 15.8495 212.379 12.3951 208.925C8.94069 205.47 7 200.785 7 195.9V15C7 8.27 15.25 0 25.42 0H147.31C152.194 -7.19659e-07 156.877 1.93931 160.331 5.39157C163.785 8.84383 165.727 13.5264 165.73 18.41V195.9C165.73 198.319 165.254 200.714 164.328 202.949C163.402 205.184 162.045 207.214 160.335 208.925C158.624 210.635 156.594 211.992 154.359 212.918C152.124 213.844 149.729 214.32 147.31 214.32Z" fill="white"/>
</mask>
<g mask="url(#mask0_41_2714)">
<path d="M6.88 89.04C6.88 89.04 25.96 102.29 28.62 99.04C31.28 95.79 38.41 80.43 58.76 90.1C63.99 92.58 73.17 87.44 75 85.97C76.83 84.5 79.79 81.66 87.41 84.38C95.03 87.1 101.75 86 104.04 79.29C106.33 72.58 113.79 63.47 121.04 68.51C128.29 73.55 165.58 96.41 165.58 96.41L165.87 129.82L6.87 131.17L6.88 89.04Z" fill="url(#paint0_linear_41_2714)"/>
<path d="M34.83 72.73C43.0038 72.73 49.63 66.1038 49.63 57.93C49.63 49.7562 43.0038 43.13 34.83 43.13C26.6562 43.13 20.03 49.7562 20.03 57.93C20.03 66.1038 26.6562 72.73 34.83 72.73Z" fill="#F49700"/>
<path d="M103.48 122.27C97.3919 119.406 91.7663 115.648 86.79 111.12C78.26 103.45 75.35 89.83 66.64 86.55C57.93 83.27 59.73 77.62 51.52 79.37C43.31 81.12 42.26 100.2 30.99 104.79C19.72 109.38 4.98999 127.85 4.98999 127.85L107.73 126.05L103.48 122.27Z" fill="#245C36"/>
<path d="M166.98 104.51C166.98 104.51 160.93 94.31 155.09 83.07C149.25 71.83 141.09 56.66 133.85 64.78C126.61 72.9 126.33 89.18 114.4 92.73C102.47 96.28 84.57 128.63 84.57 128.63H166.33L166.98 104.51Z" fill="#3F7E61"/>
<path d="M167.11 84.41C165.803 81.791 164.1 79.3894 162.06 77.29C158.72 73.89 156.56 71.75 150.14 77.09C143.72 82.43 130.63 110.36 116.72 113.77C102.81 117.18 100.51 128.18 100.51 128.18H167.11V84.41Z" fill="#2E5D3B"/>
<path d="M88.3 134.97L143.6 134.73L144.27 117.81C144.27 117.81 140.27 113.07 134.93 111.72C129.59 110.37 123.2 94.6 117.93 100.24C112.66 105.88 104.5 112.41 102.76 117.18C101.02 121.95 88.3 134.97 88.3 134.97Z" fill="#3C592A"/>
<path d="M7 112.61C7 112.61 18.06 100.94 21.41 91.7C24.76 82.46 27.46 75.78 30.88 81.62C34.3 87.46 32.94 96.99 39.88 98.08C46.82 99.17 51.15 106.84 52.55 106.84C53.95 106.84 65.84 108.84 71.35 117.62C76.86 126.4 79.1 126.71 79.1 126.71L7.10001 129.1L7 112.61Z" fill="#2A6B42"/>
<path opacity="0.97" d="M110.75 221.24C110.75 221.24 28.39 212.69 59.21 192.86C90.03 173.03 129.01 185.4 148.3 159.6C167.59 133.8 73.4 114.4 13.15 131.78C13.15 131.78 100.68 138.78 76.15 149.46C51.62 160.14 -91.85 224.23 110.75 221.24Z" fill="url(#paint1_linear_41_2714)"/>
<path d="M122.97 56.92L124.06 55.98C124.06 55.98 139.06 62.26 148.73 113.32H147.6C147.6 113.32 139.99 66.67 122.97 56.92Z" fill="#C3904B"/>
<path d="M127.41 58.57C127.365 59.0863 127.23 59.5907 127.01 60.06L127.21 60.26C127.21 60.26 127.58 60.08 127.66 58.83L127.41 58.57Z" fill="#FFF7B2"/>
<path d="M131.04 62.93C130.995 63.4463 130.86 63.9507 130.64 64.42L130.84 64.62C130.84 64.62 131.18 64.31 131.26 63.06L131.04 62.93Z" fill="#C3904B"/>
<path d="M137.72 75.64C137.674 76.1561 137.539 76.6603 137.32 77.13L137.52 77.33C137.52 77.33 137.86 77.02 137.94 75.76L137.72 75.64Z" fill="#FFF7B2"/>
<path d="M141.8 86.15C141.727 86.639 141.565 87.1103 141.32 87.54L141.51 87.78C141.51 87.78 141.86 87.55 142.01 86.32L141.8 86.15Z" fill="#FFF7B2"/>
<path d="M144.6 95.56C144.486 95.9966 144.278 96.4028 143.99 96.75L144.16 97.05C144.16 97.05 144.52 96.95 144.79 95.8L144.6 95.56Z" fill="#FFF7B2"/>
<path d="M147.33 107.17C147.208 107.576 146.984 107.944 146.68 108.24L146.82 108.58C146.82 108.58 147.19 108.58 147.51 107.45L147.33 107.17Z" fill="#FFF7B2"/>
<path d="M134.56 68.83C134.515 69.343 134.379 69.844 134.16 70.31L134.36 70.51C134.36 70.51 134.7 70.2 134.78 68.95L134.56 68.83Z" fill="#FFF7B2"/>
<path d="M160.88 52.74H159.88C159.88 52.74 149.14 67.55 150.74 114.97L151.64 114.23C151.64 114.23 149.14 71.67 160.88 52.74Z" fill="#C3904B"/>
<path d="M157.64 56.97C157.755 57.3248 157.958 57.6448 158.23 57.9L158.11 58.19C158.11 58.19 157.78 58.3 157.49 57.34L157.64 56.97Z" fill="#FFF7B2"/>
<path d="M155.56 62.84C155.673 63.1961 155.873 63.5189 156.14 63.78L156.02 64.07C156.02 64.07 155.7 64.07 155.41 63.07L155.56 62.84Z" fill="#FFF7B2"/>
<path d="M152.57 77.41C152.684 77.7681 152.887 78.0914 153.16 78.35L153.03 78.64C153.03 78.64 152.71 78.64 152.42 77.64L152.57 77.41Z" fill="#FFF7B2"/>
<path d="M151.25 88.54C151.25 88.54 151.54 89.21 151.88 89.35L151.78 89.66C151.78 89.66 151.45 89.66 151.11 88.81L151.25 88.54Z" fill="#FFF7B2"/>
<path d="M150.74 97.93C150.74 97.93 151.08 98.49 151.43 98.5L151.36 98.85C151.36 98.85 151.05 99.01 150.63 98.25L150.74 97.93Z" fill="#FFF7B2"/>
<path d="M150.68 109.06C150.68 109.06 151.05 109.55 151.4 109.5L151.34 109.87C151.34 109.87 151.04 110.08 150.59 109.4L150.68 109.06Z" fill="#FFF7B2"/>
<path d="M153.88 69.88C153.995 70.2348 154.198 70.5548 154.47 70.81L154.34 71.1C154.34 71.1 154.02 71.1 153.73 70.1L153.88 69.88Z" fill="#FFF7B2"/>
<path d="M115.43 91.69V89.69C115.43 89.69 141.23 80.79 145.88 116.41L143.88 112.84C143.88 112.84 139.49 85.53 115.43 91.69Z" fill="#C3904B"/>
<path d="M121.74 88.81C121.825 89.3668 121.825 89.9332 121.74 90.49H121.96C122.116 89.9103 122.116 89.2997 121.96 88.72L121.74 88.81Z" fill="#FFF7B2"/>
<path d="M135.64 93.41C135.525 94.149 135.341 94.8755 135.09 95.58L135.36 95.8C135.728 95.1427 135.924 94.4032 135.93 93.65L135.64 93.41Z" fill="#FFF7B2"/>
<path d="M142.43 103.41C142.259 104.033 141.963 104.615 141.56 105.12L141.73 105.58C141.73 105.58 142.21 105.46 142.65 103.78L142.43 103.41Z" fill="#FFF7B2"/>
<path d="M129.24 90.16C129.255 90.7142 129.185 91.2675 129.03 91.8L129.25 91.9C129.481 91.358 129.557 90.7626 129.47 90.18L129.24 90.16Z" fill="#FFF7B2"/>
<path d="M188.95 93.62V91.85C188.95 91.85 168.65 62.61 156.07 115.68H156.59C156.59 115.68 167.45 66.11 188.95 93.62Z" fill="#C3904B"/>
<path d="M163.95 93.69C164.03 94.1466 164.15 94.595 164.31 95.03L164.14 95.15C163.908 94.7479 163.781 94.2941 163.77 93.83L163.95 93.69Z" fill="#FFF7B2"/>
<path d="M184.48 63.65L184.09 62.52C184.09 62.52 156.04 56.69 152.42 112.36H153.55C153.55 112.36 155.37 63.65 184.48 63.65Z" fill="#C3904B"/>
<path d="M160.6 81.29C160.464 80.6283 160.221 79.9932 159.88 79.41L160.06 79C160.06 79 160.5 79.23 160.85 81L160.6 81.29Z" fill="#FFF7B2"/>
<path d="M157.08 90.29C156.945 89.6883 156.671 89.1265 156.28 88.65L156.54 88.27C156.54 88.27 157.08 88.45 157.38 90L157.08 90.29Z" fill="#FFF7B2"/>
<path d="M154.44 103.06C154.44 103.06 153.91 102.49 153.44 102.65V102.14C153.44 102.14 153.83 101.78 154.5 102.58L154.44 103.06Z" fill="#FFF7B2"/>
<path d="M159.1 104.89C159.1 104.89 159.31 105.29 159.59 105.27L159.48 105.55C159.48 105.55 159.21 105.69 158.97 105.14L159.1 104.89Z" fill="#FFF7B2"/>
<path d="M165.96 72.58C165.896 71.953 165.727 71.3411 165.46 70.77L165.69 70.5C165.69 70.5 166.09 70.86 166.21 72.41L165.96 72.58Z" fill="#FFF7B2"/>
<path d="M122.27 81.75C122.27 81.75 131.27 58.58 143.39 80.19C143.39 80.19 149.55 91.96 149.39 113.41H148.51C148.51 113.41 149.42 92.41 142.28 81.35C135.14 70.29 129.22 69.23 122.74 83.22L122.27 81.75Z" fill="#C3904B"/>
<path d="M127.62 75.41C127.62 75.41 127.35 75.15 127.23 73.91L127.39 73.76C127.448 74.2523 127.576 74.7338 127.77 75.19L127.62 75.41Z" fill="#FFF7B2"/>
<path d="M136.31 74.19C136.28 73.5674 136.4 72.9467 136.66 72.38L136.85 72.55C136.657 73.1043 136.546 73.6837 136.52 74.27L136.31 74.19Z" fill="#FFF7B2"/>
<path d="M141.88 80.41C141.907 79.8241 142.086 79.2554 142.4 78.76L142.57 78.99C142.321 79.4827 142.156 80.0132 142.08 80.56L141.88 80.41Z" fill="#FFF7B2"/>
<path d="M146.99 93.8C147.032 93.669 147.105 93.5499 147.203 93.4526C147.3 93.3552 147.419 93.2824 147.55 93.24L147.61 93.48C147.376 93.5964 147.186 93.786 147.07 94.02L146.99 93.8Z" fill="#FFF7B2"/>
<path d="M143.03 111.68C142.36 110.85 141.58 110.15 140.69 108.98C139.31 107.17 142.93 106.48 142.93 106.48C142.93 106.48 153.15 104.64 161.07 106.48C161.07 106.48 164.69 107.17 163.31 108.98C162.42 110.15 161.64 110.85 160.97 111.68" fill="#683C11"/>
<path d="M143.03 111.68C143.169 111.852 143.267 112.053 143.317 112.268C143.366 112.483 143.366 112.707 143.316 112.922C143.265 113.137 143.167 113.338 143.027 113.509C142.888 113.681 142.711 113.818 142.51 113.91C138.77 115.59 130.74 119.73 131.51 132.91C131.927 139.216 132.826 145.481 134.2 151.65C135.766 159.331 137.922 166.88 140.65 174.23C140.756 174.493 140.922 174.727 141.136 174.913C141.35 175.099 141.605 175.232 141.88 175.3C145.304 176.083 148.808 176.466 152.32 176.44C155.91 176.363 159.487 175.975 163.01 175.28C163.437 175.202 163.835 175.012 164.164 174.729C164.492 174.446 164.74 174.08 164.88 173.67C167.39 166.34 170.48 146.94 172.57 132.91C174.36 120.91 165.28 115.56 161.57 113.91C161.367 113.82 161.188 113.685 161.046 113.514C160.904 113.343 160.804 113.142 160.752 112.926C160.701 112.71 160.7 112.486 160.75 112.269C160.8 112.053 160.899 111.852 161.04 111.68" fill="#683C11"/>
<path d="M5.80005 100.74C5.80005 100.74 10.7 82.51 15.98 89.35C21.26 96.19 22.98 108.12 30.63 113.1C38.28 118.08 40.63 124.92 44.5 126.48H5.80005V100.74Z" fill="#31552D"/>
<path d="M150.98 177.04V186.98C151.385 187.166 151.825 187.262 152.27 187.262C152.715 187.262 153.155 187.166 153.56 186.98V177.04H150.98Z" fill="#7D4E24"/>
<path d="M155.22 174.86V184.8C155.625 184.986 156.065 185.082 156.51 185.082C156.955 185.082 157.395 184.986 157.8 184.8V174.86H155.22Z" fill="#7D4E24"/>
<path d="M159.88 172.93V182.87C160.284 183.053 160.722 183.147 161.165 183.147C161.608 183.147 162.046 183.053 162.45 182.87V172.93H159.88Z" fill="#7D4E24"/>
<path d="M164.1 173.27V181.6C164.93 181.919 165.85 181.919 166.68 181.6V173.27H164.1Z" fill="#7D4E24"/>
<path d="M123.37 189.6V201.86C123.867 202.088 124.408 202.206 124.955 202.206C125.502 202.206 126.043 202.088 126.54 201.86V189.6H123.37Z" fill="#7D4E24"/>
<path d="M132.44 183.49V195.75C132.937 195.979 133.478 196.097 134.025 196.097C134.572 196.097 135.113 195.979 135.61 195.75V183.49H132.44Z" fill="#7D4E24"/>
<path d="M137.14 181.88V193.8C137.624 194.02 138.149 194.134 138.68 194.134C139.211 194.134 139.736 194.02 140.22 193.8V181.88H137.14Z" fill="#7D4E24"/>
<path d="M141.65 180.41V191.19C142.086 191.39 142.56 191.494 143.04 191.494C143.52 191.494 143.994 191.39 144.43 191.19V180.41H141.65Z" fill="#7D4E24"/>
<path d="M146.52 179.94V189.06C146.891 189.229 147.293 189.316 147.7 189.316C148.107 189.316 148.509 189.229 148.88 189.06V179.94H146.52Z" fill="#7D4E24"/>
<path d="M124.88 194.14L166.68 178.81V177.56L124.47 191.02L124.88 194.14Z" fill="#B17F4A"/>
<path d="M124.64 194.14C125.336 194.14 125.9 193.406 125.9 192.5C125.9 191.594 125.336 190.86 124.64 190.86C123.944 190.86 123.38 191.594 123.38 192.5C123.38 193.406 123.944 194.14 124.64 194.14Z" fill="#753623"/>
<path d="M48.76 182.15V201.61C48.76 201.61 55.88 204.41 61.88 201.61V182.98L48.76 182.15Z" fill="#7D4E24"/>
<path d="M40.87 187.48L85.23 183.69L85.56 182.48L41.3 184.36L40.87 187.48Z" fill="#B17F4A"/>
<path d="M41.07 187.71C41.6831 187.71 42.18 186.958 42.18 186.03C42.18 185.102 41.6831 184.35 41.07 184.35C40.457 184.35 39.96 185.102 39.96 186.03C39.96 186.958 40.457 187.71 41.07 187.71Z" fill="#753623"/>
<path d="M103.88 188.01V207.47C103.88 207.47 110.99 210.23 116.97 207.47V188.83L103.88 188.01Z" fill="#7D4E24"/>
<path d="M74.67 190.17L119.08 187.05L119.43 185.85L75.15 187.06L74.67 190.17Z" fill="#B17F4A"/>
<path d="M76.1134 188.917C76.3651 188.047 76.0271 187.185 75.3586 186.992C74.6902 186.798 73.9443 187.347 73.6926 188.217C73.441 189.087 73.7789 189.949 74.4474 190.142C75.1159 190.336 75.8618 189.787 76.1134 188.917Z" fill="#753623"/>
<path d="M94.61 191.67L138.91 187.21L139.22 186L94.99 188.55L94.61 191.67Z" fill="#B17F4A"/>
<path d="M95.9921 190.299C96.2172 189.422 95.8533 188.57 95.1792 188.397C94.5052 188.224 93.7763 188.795 93.5512 189.673C93.3261 190.55 93.69 191.402 94.3641 191.574C95.0381 191.747 95.767 191.176 95.9921 190.299Z" fill="#753623"/>
<path d="M40.51 182.44V184.87L128.32 190.8V188.25L40.51 182.44Z" fill="#5D481D"/>
<path d="M128.32 188.25V190.8L166.68 177.88V176.91L128.32 188.25Z" fill="#5D481D"/>
<path d="M40.97 182.67L90.54 180.43L149.09 182.12L128.81 188.83L40.97 182.67Z" fill="#B17F4A"/>
<path d="M146.77 170.01L146.35 183L166.68 177.31V172.82L146.77 170.01Z" fill="#683C11"/>
<path d="M85.89 160.32V181.97L146.69 183L147.02 171.49L104.79 132.87L84.86 156.55L85.89 160.32Z" fill="#683C11"/>
<path d="M75.02 168.79C74.8936 168.698 74.8061 168.561 74.7747 168.408C74.7432 168.254 74.7701 168.095 74.85 167.96C77.8 163.12 101.77 123.96 106.14 126.13C110.81 128.41 148.88 154.41 148.88 154.41L168.33 173.68L147.88 171.9C147.261 171.845 146.675 171.593 146.21 171.18L107.21 136.18C107.087 136.071 106.942 135.989 106.786 135.939C106.629 135.889 106.464 135.872 106.301 135.889C106.137 135.906 105.979 135.956 105.836 136.037C105.693 136.119 105.568 136.228 105.47 136.36L79.64 171.15C79.5044 171.333 79.302 171.454 79.0771 171.488C78.8523 171.521 78.6232 171.465 78.44 171.33L75.02 168.79Z" fill="#B17F4A"/>
<path d="M84.41 161.63H97.05C97.5287 163.098 97.7486 164.637 97.7 166.18C97.5 168.23 85.82 212.9 85.82 212.9L81.27 214.69L68.46 212.51L73.22 210.33L84.61 171.88L84.41 163.88V161.63Z" fill="#936037"/>
<path d="M84.41 163.88H96.24C96.3833 165.039 96.3833 166.211 96.24 167.37L95.98 168.49L84.61 213.41L81.27 214.72L68.46 212.54L73.22 210.36L84.61 171.91L84.41 163.88Z" fill="#B17F4A"/>
<path d="M68.47 212.51L68.8 210.2L81.01 212.18L81.27 214.69L68.47 212.51Z" fill="#DAB89F"/>
<path d="M68.8 210.2L70.47 209.16L82.08 211.31L81.01 212.18L68.8 210.2Z" fill="#936037"/>
<path d="M82.08 211.31L70.4 209.21L70.82 204.48L82.48 206.46L82.08 211.31Z" fill="#DAB89F"/>
<path d="M70.82 204.48L72.43 203.47L84 205.51L82.48 206.46L70.82 204.48Z" fill="#936037"/>
<path d="M73.04 198.9L72.43 203.47L84 205.51L84.41 200.62L73.04 198.9Z" fill="#DAB89F"/>
<path d="M73.04 198.9L74.71 197.03L86.02 199L84.41 200.62L73.04 198.9Z" fill="#936037"/>
<path d="M74.67 193.12V197.06L86.02 199L86.37 194.57L74.67 193.12Z" fill="#DAB89F"/>
<path d="M74.67 193.15L77.6 192.05L88.57 193.28L86.37 194.72L74.67 193.15Z" fill="#936037"/>
<path d="M77.79 186.38L77.6 192.05L88.57 193.28L88.84 187.4L77.79 186.38Z" fill="#DAB89F"/>
<path d="M77.79 186.38L80.69 185.1L91.38 185.8L88.84 187.4L77.79 186.38Z" fill="#936037"/>
<path d="M83.88 171.96C83.88 171.96 83.88 172.96 85.49 172.96C87.1 172.96 90.7 173.31 92.49 170.96C92.49 170.96 92.66 173.7 90.49 174.18C88.24 174.69 82.56 175.09 83.88 171.96Z" fill="#7D4E24"/>
<path d="M83.49 176.8C83.49 176.8 81.05 177.88 81.62 179.22C82.19 180.56 84.36 179.73 84.55 179.08C84.74 178.43 84.98 176.8 83.49 176.8Z" fill="#7D4E24"/>
<path d="M84 171.57C84 171.57 83.79 172.68 85.35 172.72C86.91 172.76 90.71 173.07 92.49 170.72C92.49 170.72 92.56 173.5 90.25 173.96C87.94 174.42 82.09 174.86 84 171.57Z" fill="#936037"/>
<path d="M83.35 176.73C83.35 176.73 80.92 177.8 81.49 179.14C82.06 180.48 84.23 179.65 84.41 179C84.59 178.35 84.88 176.73 83.35 176.73Z" fill="#936037"/>
<path d="M89.79 176.95C89.79 176.95 87.69 177.95 87.88 179C88.07 180.05 88.98 180.61 90.06 179.39C91.14 178.17 90.88 176.88 89.79 176.95Z" fill="#7D4E24"/>
<path d="M89.61 176.84C89.61 176.84 87.52 177.84 87.7 178.89C87.88 179.94 88.81 180.5 89.89 179.28C90.97 178.06 90.67 176.77 89.61 176.84Z" fill="#936037"/>
<path d="M82.73 178.08C82.73 178.08 82.34 178.22 82.73 178.29C83.12 178.36 83.14 178.17 83.1 178.08C83.06 177.99 82.73 178.08 82.73 178.08Z" fill="#7D4E24"/>
<path d="M88.94 178.17C88.94 178.17 88.71 178.68 89.13 178.54C89.55 178.4 89.13 178.22 88.94 178.17Z" fill="#7D4E24"/>
<path d="M61.88 166.41H66.12C66.12 166.41 67.74 167.7 67.23 170.71C66.72 173.72 49.72 207.46 49.72 207.46C49.72 207.46 49.03 209.4 41 208.69L41.56 203.8L45.3 202.19L61.3 169.98L61.47 167.98L61.88 166.41Z" fill="#936037"/>
<path d="M61.42 167.95H64.88C64.88 167.95 66.07 168.36 64.88 170.41C63.69 172.46 49.04 202.21 49.04 202.21C48.9182 202.757 48.6204 203.248 48.1923 203.61C47.7642 203.971 47.2295 204.182 46.67 204.21C44.75 204.21 41.51 203.83 41.51 203.83L45.25 202.22L61.25 170.01L61.42 167.95Z" fill="#B17F4A"/>
<path d="M44.92 199.89L49.23 200.47L48.88 202.59L44.81 202.2L44.92 199.89Z" fill="#DAB89F"/>
<path d="M44.92 199.89L46.84 198.75L50.48 199.35L49.23 200.47L44.92 199.89Z" fill="#936037"/>
<path d="M47.31 194.94L51.29 195.49L50.48 199.35L46.84 198.75L47.31 194.94Z" fill="#DAB89F"/>
<path d="M47.31 194.94L48.77 193.5L53.01 194.22L51.29 195.49L47.31 194.94Z" fill="#936037"/>
<path d="M49.23 190.53L48.77 193.5L53.01 194.22L53.48 191.21L49.23 190.53Z" fill="#DAB89F"/>
<path d="M49.23 190.53L51.15 189.12L55.2 189.78L53.48 191.21L49.23 190.53Z" fill="#936037"/>
<path d="M51.41 186.62L51.15 189.12L55.2 189.78L55.88 186.91L51.41 186.62Z" fill="#DAB89F"/>
<path d="M51.41 186.62L53.58 185.46L57.41 185.85L55.88 186.91L51.41 186.62Z" fill="#936037"/>
<path d="M118.96 159.27H131.69V181.93L118.24 181.45L118.96 159.27Z" fill="#B17F4A"/>
<path d="M119.3 171.5L119.51 170.93H116.29L116.5 171.5C116.5 171.5 114.63 173.19 114.68 174.68C114.76 176.73 116.68 182.52 116.68 182.52H119.18C119.18 182.52 121.07 176.73 121.18 174.68C121.17 173.19 119.3 171.5 119.3 171.5Z" fill="#7D4E24"/>
<path d="M132.78 171.72L132.99 171.15H129.77L129.98 171.72C129.98 171.72 128.11 173.41 128.17 174.9C128.24 176.9 130.17 182.74 130.17 182.74H132.67C132.67 182.74 134.56 176.95 134.67 174.9C134.66 173.41 132.78 171.72 132.78 171.72Z" fill="#7D4E24"/>
<path d="M32.29 137.03V144.66C31.9768 144.806 31.6355 144.881 31.29 144.881C30.9446 144.881 30.6033 144.806 30.29 144.66V137.03H32.29Z" fill="#7D4E24"/>
<path d="M26.65 133.24V140.86C26.3368 141.006 25.9955 141.081 25.65 141.081C25.3045 141.081 24.9632 141.006 24.65 140.86V133.24H26.65Z" fill="#7D4E24"/>
<path d="M23.72 132.24V139.65C23.4204 139.787 23.0947 139.859 22.765 139.859C22.4354 139.859 22.1096 139.787 21.81 139.65V132.24H23.72Z" fill="#7D4E24"/>
<path d="M20.88 131.35V138.05C20.6089 138.175 20.3138 138.24 20.015 138.24C19.7163 138.24 19.4211 138.175 19.15 138.05V131.35H20.88Z" fill="#7D4E24"/>
<path d="M17.88 131.03V136.7C17.6493 136.805 17.3987 136.86 17.1451 136.86C16.8914 136.86 16.6408 136.805 16.41 136.7V131.03H17.88Z" fill="#7D4E24"/>
<path d="M31.35 139.86L5.35999 130.33V129.55L31.6 137.92L31.35 139.86Z" fill="#B17F4A"/>
<path d="M31.5 139.86C31.9363 139.86 32.29 139.403 32.29 138.84C32.29 138.277 31.9363 137.82 31.5 137.82C31.0637 137.82 30.71 138.277 30.71 138.84C30.71 139.403 31.0637 139.86 31.5 139.86Z" fill="#753623"/>
<path d="M78.68 132.41V144.51C78.68 144.51 74.26 146.22 70.54 144.51V132.92L78.68 132.41Z" fill="#7D4E24"/>
<path d="M83.59 135.72L56.01 133.36L55.8 132.61L83.33 133.78L83.59 135.72Z" fill="#B17F4A"/>
<path d="M83.47 135.87C83.8511 135.87 84.16 135.4 84.16 134.82C84.16 134.24 83.8511 133.77 83.47 133.77C83.089 133.77 82.78 134.24 82.78 134.82C82.78 135.4 83.089 135.87 83.47 135.87Z" fill="#753623"/>
<path d="M44.43 136.05V148.15C44.43 148.15 40.01 149.87 36.3 148.15V136.56L44.43 136.05Z" fill="#7D4E24"/>
<path d="M62.57 137.39L34.95 135.45L34.74 134.71L62.28 135.46L62.57 137.39Z" fill="#B17F4A"/>
<path d="M62.7463 137.314C63.1654 137.193 63.3783 136.656 63.2218 136.115C63.0653 135.574 62.5987 135.233 62.1795 135.354C61.7604 135.476 61.5475 136.013 61.704 136.554C61.8605 137.095 62.3271 137.435 62.7463 137.314Z" fill="#753623"/>
<path d="M50.17 138.33L22.62 135.55L22.43 134.8L49.93 136.38L50.17 138.33Z" fill="#B17F4A"/>
<path d="M50.2955 138.32C50.7181 138.212 50.9472 137.682 50.8072 137.136C50.6672 136.59 50.2111 136.236 49.7885 136.344C49.3659 136.453 49.1368 136.983 49.2768 137.529C49.4168 138.074 49.8729 138.429 50.2955 138.32Z" fill="#753623"/>
<path d="M83.82 132.58V134.09L29.21 137.78V136.2L83.82 132.58Z" fill="#5D481D"/>
<path d="M29.21 136.2V137.78L5.35999 129.75V129.15L29.21 136.2Z" fill="#5D481D"/>
<path d="M83.53 132.73L52.71 131.33L16.29 132.39L28.91 136.56L83.53 132.73Z" fill="#B17F4A"/>
<path d="M17.74 124.85L18 132.93L5.35999 129.39V126.6L17.74 124.85Z" fill="#683C11"/>
<path d="M55.6 118.83V132.29L17.78 132.93L17.58 125.77L43.84 101.76L56.23 116.49L55.6 118.83Z" fill="#683C11"/>
<path d="M62.35 124.1C62.4291 124.042 62.4832 123.956 62.5018 123.86C62.5203 123.763 62.5018 123.663 62.45 123.58C60.62 120.58 45.72 96.23 43 97.58C40.1 99 16.41 115.14 16.41 115.14L4.32001 127.14L17.02 126.06C17.3933 126.022 17.7443 125.864 18.02 125.61L42.31 103.83C42.3871 103.764 42.4768 103.714 42.5737 103.684C42.6706 103.654 42.7726 103.643 42.8736 103.654C42.9745 103.664 43.0724 103.695 43.1611 103.744C43.2499 103.793 43.3278 103.86 43.39 103.94L59.45 125.58C59.4906 125.637 59.5422 125.685 59.6017 125.721C59.6613 125.758 59.7276 125.782 59.7967 125.792C59.8657 125.802 59.9361 125.799 60.0037 125.781C60.0713 125.763 60.1346 125.733 60.19 125.69L62.35 124.1Z" fill="#B17F4A"/>
<path d="M56.51 119.64H48.65C48.3528 120.556 48.2175 121.517 48.25 122.48C48.37 123.75 55.64 151.53 55.64 151.53L58.47 152.64L66.47 151.28L63.47 149.93L56.39 126.02L56.51 121.02V119.64Z" fill="#936037"/>
<path d="M56.51 121.04H49.15C49.0652 121.761 49.0652 122.489 49.15 123.21L49.32 123.91L56.39 151.82L58.47 152.64L66.47 151.28L63.47 149.93L56.39 126.02L56.51 121.04Z" fill="#B17F4A"/>
<path d="M66.43 151.28L66.22 149.85L58.63 151.08L58.47 152.64L66.43 151.28Z" fill="#DAB89F"/>
<path d="M66.22 149.85L65.19 149.2L57.97 150.54L58.63 151.08L66.22 149.85Z" fill="#936037"/>
<path d="M57.97 150.54L65.23 149.23L64.97 146.29L57.72 147.52L57.97 150.54Z" fill="#DAB89F"/>
<path d="M64.97 146.29L63.97 145.66L56.77 146.93L57.72 147.52L64.97 146.29Z" fill="#936037"/>
<path d="M63.59 142.82L63.97 145.66L56.77 146.93L56.51 143.89L63.59 142.82Z" fill="#DAB89F"/>
<path d="M63.59 142.82L62.55 141.66L55.51 142.88L56.51 143.89L63.59 142.82Z" fill="#936037"/>
<path d="M62.57 139.23V141.68L55.51 142.88L55.3 140.12L62.57 139.23Z" fill="#DAB89F"/>
<path d="M62.57 139.24L60.75 138.56L53.93 139.33L55.3 140.22L62.57 139.24Z" fill="#936037"/>
<path d="M60.64 135.03L60.75 138.56L53.93 139.33L53.76 135.67L60.64 135.03Z" fill="#DAB89F"/>
<path d="M60.64 135.03L58.83 134.24L52.18 134.67L53.76 135.67L60.64 135.03Z" fill="#936037"/>
<path d="M56.88 126.07C56.88 126.07 56.88 126.66 55.88 126.69C54.88 126.72 52.64 126.91 51.54 125.45C51.54 125.45 51.43 127.15 52.76 127.45C54.09 127.75 57.66 128.01 56.88 126.07Z" fill="#7D4E24"/>
<path d="M57.09 129.08C57.09 129.08 58.6 129.75 58.24 130.58C57.88 131.41 56.54 130.9 56.43 130.5C56.32 130.1 56.16 129.08 57.09 129.08Z" fill="#7D4E24"/>
<path d="M56.77 125.83C56.77 125.83 56.9 126.51 55.92 126.54C54.94 126.57 52.59 126.76 51.49 125.3C51.49 125.3 51.49 127.03 52.88 127.3C54.27 127.57 57.96 127.87 56.77 125.83Z" fill="#936037"/>
<path d="M57.17 129.03C57.17 129.03 58.68 129.7 58.33 130.53C57.98 131.36 56.63 130.85 56.51 130.45C56.39 130.05 56.24 129.03 57.17 129.03Z" fill="#936037"/>
<path d="M53.17 129.17C53.17 129.17 54.47 129.78 54.35 130.44C54.23 131.1 53.67 131.44 53 130.69C52.33 129.94 52.51 129.13 53.17 129.17Z" fill="#7D4E24"/>
<path d="M53.28 129.1C53.28 129.1 54.58 129.72 54.47 130.38C54.36 131.04 53.78 131.38 53.11 130.62C52.44 129.86 52.62 129.06 53.28 129.1Z" fill="#936037"/>
<path d="M57.56 129.87C57.56 129.87 57.8 129.96 57.56 130C57.32 130.04 57.3 129.93 57.33 129.87C57.36 129.81 57.56 129.87 57.56 129.87Z" fill="#7D4E24"/>
<path d="M53.69 129.93C53.69 129.93 53.84 130.25 53.58 130.16C53.32 130.07 53.58 129.96 53.69 129.93Z" fill="#7D4E24"/>
<path d="M70.54 122.62H67.88C67.5427 122.969 67.3025 123.399 67.1832 123.869C67.0639 124.34 67.0697 124.833 67.2 125.3C67.51 127.17 78.08 148.15 78.08 148.15C78.08 148.15 78.51 149.36 83.5 148.91L83.16 145.91L80.83 144.91L70.9 124.91L70.79 123.64L70.54 122.62Z" fill="#936037"/>
<path d="M70.81 123.57H68.64C68.64 123.57 67.91 123.83 68.64 125.1C69.37 126.37 78.49 144.88 78.49 144.88C78.5698 145.218 78.7574 145.521 79.0244 145.742C79.2914 145.964 79.6233 146.093 79.97 146.11C81.16 146.11 83.18 145.88 83.18 145.88L80.85 144.88L70.92 124.88L70.81 123.57Z" fill="#B17F4A"/>
<path d="M81.07 143.44L78.39 143.8L78.61 145.12L81.14 144.87L81.07 143.44Z" fill="#DAB89F"/>
<path d="M81.07 143.44L79.88 142.73L77.62 143.1L78.39 143.8L81.07 143.44Z" fill="#936037"/>
<path d="M79.58 140.36L77.11 140.7L77.62 143.1L79.88 142.73L79.58 140.36Z" fill="#DAB89F"/>
<path d="M79.58 140.36L78.68 139.46L76.04 139.91L77.11 140.7L79.58 140.36Z" fill="#936037"/>
<path d="M78.39 137.62L78.68 139.46L76.04 139.91L75.75 138.04L78.39 137.62Z" fill="#DAB89F"/>
<path d="M78.39 137.62L77.2 136.74L74.68 137.15L75.75 138.04L78.39 137.62Z" fill="#936037"/>
<path d="M77.04 135.18L77.2 136.74L74.68 137.15L74.26 135.36L77.04 135.18Z" fill="#DAB89F"/>
<path d="M77.04 135.18L75.69 134.46L73.3 134.71L74.26 135.36L77.04 135.18Z" fill="#936037"/>
<path d="M35.03 118.18H27.11V132.27L35.48 131.97L35.03 118.18Z" fill="#B17F4A"/>
<path d="M34.81 125.78L34.69 125.43H36.69L36.56 125.78C36.56 125.78 37.72 126.83 37.69 127.78C37.4124 129.434 37.001 131.063 36.46 132.65H34.88C34.3385 131.063 33.9304 129.434 33.66 127.78C33.65 126.83 34.81 125.78 34.81 125.78Z" fill="#7D4E24"/>
<path d="M26.43 125.92L26.3 125.56H28.3L28.17 125.92C28.17 125.92 29.34 126.97 29.3 127.92C29.0247 129.573 28.6167 131.202 28.08 132.79H26.52C25.9834 131.202 25.5754 129.573 25.3 127.92C25.27 126.97 26.43 125.92 26.43 125.92Z" fill="#7D4E24"/>
</g>
<path d="M23.2287 28C23.224 27.8413 23.2194 27.706 23.2147 27.594C23.2147 27.482 23.2124 27.3793 23.2077 27.286C23.2077 27.188 23.2077 27.083 23.2077 26.971C23.2077 26.8543 23.2077 26.7143 23.2077 26.551C23.2077 26.3877 23.21 26.1777 23.2147 25.921C23.224 25.2723 23.294 24.7403 23.4247 24.325C23.5554 23.905 23.728 23.5597 23.9427 23.289C24.162 23.0183 24.4094 22.785 24.6847 22.589L25.2937 22.113C25.583 21.8657 25.7697 21.6113 25.8537 21.35C25.9377 21.084 25.9867 20.804 26.0007 20.51C26.0194 20.16 26.0287 19.81 26.0287 19.46C26.0287 19.1053 26.0194 18.753 26.0007 18.403C25.9867 18.0857 25.905 17.8547 25.7557 17.71C25.611 17.5653 25.3707 17.493 25.0347 17.493C24.722 17.493 24.4934 17.5653 24.3487 17.71C24.2087 17.8547 24.134 18.0857 24.1247 18.403C24.12 18.781 24.1177 19.1613 24.1177 19.544C24.1177 19.922 24.1247 20.3023 24.1387 20.685H23.2217C23.217 20.4283 23.21 20.174 23.2007 19.922C23.196 19.6653 23.1937 19.4203 23.1937 19.187C23.1937 18.9537 23.196 18.739 23.2007 18.543C23.224 17.885 23.378 17.4137 23.6627 17.129C23.952 16.8443 24.414 16.702 25.0487 16.702C25.4967 16.702 25.8537 16.765 26.1197 16.891C26.3904 17.0123 26.5887 17.2083 26.7147 17.479C26.8407 17.745 26.913 18.095 26.9317 18.529C26.9364 18.669 26.941 18.8277 26.9457 19.005C26.9504 19.1777 26.9527 19.3573 26.9527 19.544C26.9527 19.726 26.9527 19.901 26.9527 20.069C26.9527 20.237 26.948 20.3817 26.9387 20.503C26.92 20.9323 26.857 21.2963 26.7497 21.595C26.647 21.889 26.5 22.148 26.3087 22.372C26.1174 22.5913 25.8794 22.8107 25.5947 23.03L24.9507 23.499C24.7687 23.6483 24.6194 23.849 24.5027 24.101C24.3907 24.3483 24.3044 24.6283 24.2437 24.941C24.1877 25.249 24.1597 25.5757 24.1597 25.921V27.16H26.9177V28H23.2287ZM28.1133 28V26.747H29.6813V28H28.1133ZM38.6404 28V16.8H39.5644V27.16H41.8044V28H38.6404ZM42.4423 17.92V16.8H43.9123V17.92H42.4423ZM42.7153 28V19.6H43.6393V28H42.7153ZM45.1693 28V19.6H46.1003V20.349H46.3033C46.4339 20.0783 46.5926 19.8707 46.7793 19.726C46.9706 19.5767 47.2226 19.502 47.5353 19.502C47.9739 19.502 48.3029 19.6303 48.5222 19.887C48.7416 20.1437 48.8536 20.5707 48.8583 21.168V28H47.9343V21.105C47.9296 20.7923 47.8689 20.5683 47.7523 20.433C47.6403 20.2977 47.4583 20.23 47.2063 20.23C46.9636 20.23 46.7419 20.3047 46.5413 20.454C46.3406 20.5987 46.1936 20.8087 46.1003 21.084V28H45.1693ZM50.3509 28V16.8H51.2819V20.349H51.4849C51.6249 20.0597 51.7836 19.8473 51.9609 19.712C52.1382 19.572 52.3902 19.502 52.7169 19.502C53.1556 19.502 53.4846 19.6303 53.7039 19.887C53.9279 20.1437 54.0399 20.5707 54.0399 21.168V28H53.1159V21.105C53.1159 20.7923 53.0576 20.5683 52.9409 20.433C52.8242 20.2977 52.6399 20.23 52.3879 20.23C52.1266 20.23 51.9002 20.2977 51.7089 20.433C51.5176 20.5683 51.3752 20.7853 51.2819 21.084V28H50.3509ZM58.41 28V16.8H59.334V21.945H61.126V16.8H62.05V28H61.126V22.778H59.334V28H58.41ZM65.2869 28.098C64.8529 28.098 64.5053 28.0373 64.2439 27.916C63.9826 27.79 63.7913 27.594 63.6699 27.328C63.5533 27.062 63.4856 26.712 63.4669 26.278C63.4529 25.9 63.4413 25.5033 63.4319 25.088C63.4273 24.668 63.4249 24.2433 63.4249 23.814C63.4249 23.38 63.4273 22.953 63.4319 22.533C63.4413 22.113 63.4529 21.7093 63.4669 21.322C63.4856 20.888 63.5533 20.538 63.6699 20.272C63.7913 20.006 63.9826 19.8123 64.2439 19.691C64.5053 19.565 64.8529 19.502 65.2869 19.502C65.7256 19.502 66.0733 19.565 66.3299 19.691C66.5866 19.8123 66.7733 20.006 66.8899 20.272C67.0113 20.538 67.0813 20.888 67.0999 21.322C67.1093 21.7 67.1163 22.099 67.1209 22.519C67.1303 22.939 67.1349 23.3637 67.1349 23.793C67.1349 24.2223 67.1303 24.6493 67.1209 25.074C67.1163 25.494 67.1093 25.8953 67.0999 26.278C67.0813 26.7073 67.0113 27.0573 66.8899 27.328C66.7733 27.594 66.5866 27.79 66.3299 27.916C66.0733 28.0373 65.7256 28.098 65.2869 28.098ZM65.2869 27.356C65.5949 27.356 65.8166 27.2907 65.9519 27.16C66.0873 27.0293 66.1596 26.8007 66.1689 26.474C66.1829 25.9747 66.1946 25.508 66.2039 25.074C66.2133 24.64 66.2179 24.2153 66.2179 23.8C66.2179 23.3847 66.2133 22.96 66.2039 22.526C66.1946 22.092 66.1829 21.6277 66.1689 21.133C66.1596 20.8017 66.0896 20.5707 65.9589 20.44C65.8283 20.3093 65.6043 20.244 65.2869 20.244C64.9696 20.244 64.7433 20.3093 64.6079 20.44C64.4726 20.5707 64.4003 20.8017 64.3909 21.133C64.3769 21.6277 64.3653 22.092 64.3559 22.526C64.3513 22.96 64.3489 23.387 64.3489 23.807C64.3489 24.2223 64.3513 24.647 64.3559 25.081C64.3653 25.515 64.3769 25.9793 64.3909 26.474C64.4003 26.8007 64.4726 27.0293 64.6079 27.16C64.7479 27.2907 64.9743 27.356 65.2869 27.356ZM64.0689 19.033L64.9719 17.444H65.5879L66.4979 19.033H65.8119L65.2869 18.053L64.7549 19.033H64.0689ZM66.5819 17.64L65.6299 16.051H66.3299L67.2609 17.64H66.5819ZM68.5345 28V19.6H69.4655V20.349H69.6685C69.7992 20.0783 69.9578 19.8707 70.1445 19.726C70.3358 19.5767 70.5878 19.502 70.9005 19.502C71.3392 19.502 71.6682 19.6303 71.8875 19.887C72.1068 20.1437 72.2188 20.5707 72.2235 21.168V28H71.2995V21.105C71.2948 20.7923 71.2342 20.5683 71.1175 20.433C71.0055 20.2977 70.8235 20.23 70.5715 20.23C70.3288 20.23 70.1072 20.3047 69.9065 20.454C69.7058 20.5987 69.5588 20.8087 69.4655 21.084V28H68.5345ZM78.3366 28.105C77.6972 28.105 77.2376 27.9627 76.9576 27.678C76.6822 27.3887 76.5376 26.9173 76.5236 26.264C76.5096 25.606 76.5002 24.9573 76.4956 24.318C76.4909 23.6787 76.4886 23.0417 76.4886 22.407C76.4886 21.7723 76.4909 21.1353 76.4956 20.496C76.5002 19.852 76.5096 19.201 76.5236 18.543C76.5329 17.9363 76.6776 17.4813 76.9576 17.178C77.2422 16.87 77.6972 16.716 78.3226 16.716C78.9619 16.716 79.4239 16.8583 79.7086 17.143C79.9932 17.423 80.1472 17.892 80.1706 18.55C80.1752 18.7273 80.1776 18.9513 80.1776 19.222C80.1776 19.488 80.1752 19.7563 80.1706 20.027C80.1659 20.293 80.1612 20.5147 80.1566 20.692H79.2326C79.2372 20.454 79.2396 20.2043 79.2396 19.943C79.2442 19.6817 79.2466 19.4203 79.2466 19.159C79.2466 18.893 79.2442 18.6433 79.2396 18.41C79.2349 18.0787 79.1602 17.8453 79.0156 17.71C78.8756 17.57 78.6446 17.5 78.3226 17.5C78.0239 17.5 77.8069 17.57 77.6716 17.71C77.5362 17.8453 77.4639 18.0787 77.4546 18.41C77.4406 19.1007 77.4289 19.7773 77.4196 20.44C77.4149 21.098 77.4126 21.7537 77.4126 22.407C77.4126 23.0557 77.4149 23.7113 77.4196 24.374C77.4289 25.032 77.4406 25.7087 77.4546 26.404C77.4639 26.726 77.5362 26.9593 77.6716 27.104C77.8116 27.244 78.0332 27.314 78.3366 27.314C78.6726 27.314 78.9152 27.244 79.0646 27.104C79.2139 26.9593 79.2909 26.726 79.2956 26.404C79.3002 26.1473 79.3026 25.879 79.3026 25.599C79.3026 25.319 79.3002 25.039 79.2956 24.759C79.2909 24.479 79.2862 24.213 79.2816 23.961H80.2126C80.2266 24.3577 80.2336 24.7427 80.2336 25.116C80.2382 25.4847 80.2359 25.8673 80.2266 26.264C80.2032 26.9173 80.0446 27.3887 79.7506 27.678C79.4612 27.9627 78.9899 28.105 78.3366 28.105ZM82.8041 28.098C82.3654 28.098 82.0294 27.9673 81.7961 27.706C81.5674 27.4447 81.4531 27.02 81.4531 26.432V19.6H82.3841V26.495C82.3841 26.803 82.4401 27.027 82.5521 27.167C82.6688 27.3023 82.8508 27.37 83.0981 27.37C83.3454 27.37 83.5694 27.2953 83.7701 27.146C83.9708 26.9967 84.1154 26.7867 84.2041 26.516V19.6H85.1351V28H84.2041V27.251H84.0361C83.9008 27.5357 83.7304 27.748 83.5251 27.888C83.3198 28.028 83.0794 28.098 82.8041 28.098ZM83.2731 18.907L83.3641 18.291C83.3968 18.1137 83.3828 17.9947 83.3221 17.934C83.2614 17.8733 83.1284 17.843 82.9231 17.843H82.3561V17.353H82.9231C83.3058 17.353 83.5788 17.4253 83.7421 17.57C83.9054 17.7147 83.9591 17.955 83.9031 18.291L83.8121 18.907H83.2731ZM87.8394 28.091C87.3867 28.091 87.0531 27.958 86.8384 27.692C86.6237 27.426 86.4954 27.0293 86.4534 26.502C86.4487 26.3853 86.4441 26.2663 86.4394 26.145C86.4347 26.0237 86.4347 25.907 86.4394 25.795C86.4627 25.4683 86.5187 25.172 86.6074 24.906C86.6961 24.64 86.8384 24.3973 87.0344 24.178C87.2351 23.9587 87.5081 23.7487 87.8534 23.548C88.0541 23.4313 88.2617 23.3193 88.4764 23.212C88.6911 23.1047 88.9057 23.0043 89.1204 22.911V21.126C89.1204 20.818 89.0621 20.594 88.9454 20.454C88.8287 20.314 88.6187 20.244 88.3154 20.244C88.0494 20.244 87.8511 20.3047 87.7204 20.426C87.5897 20.5473 87.5174 20.7737 87.5034 21.105C87.4987 21.2123 87.4941 21.3477 87.4894 21.511C87.4894 21.6697 87.4894 21.8353 87.4894 22.008C87.4941 22.176 87.4987 22.3277 87.5034 22.463H86.6004C86.5957 22.2763 86.5911 22.064 86.5864 21.826C86.5817 21.588 86.5817 21.3757 86.5864 21.189C86.6004 20.7923 86.6681 20.4703 86.7894 20.223C86.9107 19.9757 87.0974 19.796 87.3494 19.684C87.6014 19.5673 87.9327 19.509 88.3434 19.509C88.7727 19.509 89.1087 19.572 89.3514 19.698C89.5987 19.8193 89.7737 20.013 89.8764 20.279C89.9837 20.5403 90.0374 20.8833 90.0374 21.308V28H89.1134V27.244H88.9594C88.8567 27.51 88.7214 27.7177 88.5534 27.867C88.3854 28.0163 88.1474 28.091 87.8394 28.091ZM88.1474 27.37C88.3854 27.37 88.5837 27.3023 88.7424 27.167C88.9057 27.027 89.0317 26.824 89.1204 26.558V23.681C88.9571 23.7463 88.7891 23.8233 88.6164 23.912C88.4484 24.0007 88.2594 24.1243 88.0494 24.283C87.7834 24.479 87.6061 24.7007 87.5174 24.948C87.4287 25.1907 87.3774 25.473 87.3634 25.795C87.3587 25.879 87.3564 25.9793 87.3564 26.096C87.3611 26.2127 87.3657 26.3293 87.3704 26.446C87.3937 26.74 87.4731 26.9687 87.6084 27.132C87.7437 27.2907 87.9234 27.37 88.1474 27.37ZM94.408 28V16.8H96.074C96.7087 16.8 97.1707 16.94 97.46 17.22C97.754 17.5 97.9057 17.9643 97.915 18.613C97.9243 19.0797 97.929 19.488 97.929 19.838C97.929 20.188 97.9243 20.524 97.915 20.846C97.8963 21.238 97.8217 21.5437 97.691 21.763C97.5603 21.9823 97.355 22.1433 97.075 22.246V22.505C97.3643 22.5983 97.5743 22.757 97.705 22.981C97.8403 23.205 97.915 23.513 97.929 23.905C97.9383 24.3157 97.943 24.696 97.943 25.046C97.943 25.396 97.9383 25.7763 97.929 26.187C97.9057 26.831 97.7493 27.2953 97.46 27.58C97.1753 27.86 96.7133 28 96.074 28H94.408ZM95.332 27.16H96.074C96.3867 27.16 96.6153 27.0807 96.76 26.922C96.9093 26.7633 96.9887 26.516 96.998 26.18C97.012 25.7833 97.019 25.41 97.019 25.06C97.019 24.71 97.012 24.3367 96.998 23.94C96.9887 23.5247 96.907 23.2283 96.753 23.051C96.6037 22.869 96.361 22.778 96.025 22.778H95.332V27.16ZM95.332 21.945H96.06C96.3727 21.945 96.6037 21.854 96.753 21.672C96.9023 21.49 96.9793 21.21 96.984 20.832C97.0027 20.4307 97.012 20.0527 97.012 19.698C97.012 19.3433 97.0027 18.9677 96.984 18.571C96.9793 18.249 96.9023 18.0133 96.753 17.864C96.6037 17.7147 96.3773 17.64 96.074 17.64H95.332V21.945ZM100.578 28.098C100.139 28.098 99.8029 27.9673 99.5695 27.706C99.3409 27.4447 99.2265 27.02 99.2265 26.432V19.6H100.158V26.495C100.158 26.803 100.214 27.027 100.326 27.167C100.442 27.3023 100.624 27.37 100.872 27.37C101.119 27.37 101.343 27.2953 101.544 27.146C101.744 26.9967 101.889 26.7867 101.978 26.516V19.6H102.909V28H101.978V27.251H101.81C101.674 27.5357 101.504 27.748 101.299 27.888C101.093 28.028 100.853 28.098 100.578 28.098ZM106.166 28.098C105.732 28.098 105.384 28.0373 105.123 27.916C104.861 27.79 104.67 27.594 104.549 27.328C104.432 27.062 104.364 26.712 104.346 26.278C104.332 25.9 104.32 25.5033 104.311 25.088C104.306 24.668 104.304 24.2433 104.304 23.814C104.304 23.38 104.306 22.953 104.311 22.533C104.32 22.113 104.332 21.7093 104.346 21.322C104.364 20.888 104.432 20.538 104.549 20.272C104.67 20.006 104.861 19.8123 105.123 19.691C105.384 19.565 105.732 19.502 106.166 19.502C106.604 19.502 106.952 19.565 107.209 19.691C107.465 19.8123 107.652 20.006 107.769 20.272C107.89 20.538 107.96 20.888 107.979 21.322C107.988 21.7 107.995 22.099 108 22.519C108.009 22.939 108.014 23.3637 108.014 23.793C108.014 24.2223 108.009 24.6493 108 25.074C107.995 25.494 107.988 25.8953 107.979 26.278C107.96 26.7073 107.89 27.0573 107.769 27.328C107.652 27.594 107.465 27.79 107.209 27.916C106.952 28.0373 106.604 28.098 106.166 28.098ZM106.166 27.356C106.474 27.356 106.695 27.2907 106.831 27.16C106.966 27.0293 107.038 26.8007 107.048 26.474C107.062 25.9747 107.073 25.508 107.083 25.074C107.092 24.64 107.097 24.2153 107.097 23.8C107.097 23.3847 107.092 22.96 107.083 22.526C107.073 22.092 107.062 21.6277 107.048 21.133C107.038 20.8017 106.968 20.5707 106.838 20.44C106.707 20.3093 106.483 20.244 106.166 20.244C105.848 20.244 105.622 20.3093 105.487 20.44C105.351 20.5707 105.279 20.8017 105.27 21.133C105.256 21.6277 105.244 22.092 105.235 22.526C105.23 22.96 105.228 23.387 105.228 23.807C105.228 24.2223 105.23 24.647 105.235 25.081C105.244 25.515 105.256 25.9793 105.27 26.474C105.279 26.8007 105.351 27.0293 105.487 27.16C105.627 27.2907 105.853 27.356 106.166 27.356ZM104.948 19.033L105.851 17.444H106.467L107.377 19.033H106.691L106.166 18.053L105.634 19.033H104.948ZM109.413 28V19.6H110.344V20.349H110.547C110.678 20.0783 110.837 19.8707 111.023 19.726C111.215 19.5767 111.467 19.502 111.779 19.502C112.218 19.502 112.547 19.6303 112.766 19.887C112.986 20.1437 113.098 20.5707 113.102 21.168V28H112.178V21.105C112.174 20.7923 112.113 20.5683 111.996 20.433C111.884 20.2977 111.702 20.23 111.45 20.23C111.208 20.23 110.986 20.3047 110.785 20.454C110.585 20.5987 110.438 20.8087 110.344 21.084V28H109.413ZM117.472 28V16.8H118.396V27.16H120.636V28H117.472ZM122.716 28.091C122.264 28.091 121.93 27.958 121.715 27.692C121.501 27.426 121.372 27.0293 121.33 26.502C121.326 26.3853 121.321 26.2663 121.316 26.145C121.312 26.0237 121.312 25.907 121.316 25.795C121.34 25.4683 121.396 25.172 121.484 24.906C121.573 24.64 121.715 24.3973 121.911 24.178C122.112 23.9587 122.385 23.7487 122.73 23.548C122.931 23.4313 123.139 23.3193 123.353 23.212C123.568 23.1047 123.783 23.0043 123.997 22.911V21.126C123.997 20.818 123.939 20.594 123.822 20.454C123.706 20.314 123.496 20.244 123.192 20.244C122.926 20.244 122.728 20.3047 122.597 20.426C122.467 20.5473 122.394 20.7737 122.38 21.105C122.376 21.2123 122.371 21.3477 122.366 21.511C122.366 21.6697 122.366 21.8353 122.366 22.008C122.371 22.176 122.376 22.3277 122.38 22.463H121.477C121.473 22.2763 121.468 22.064 121.463 21.826C121.459 21.588 121.459 21.3757 121.463 21.189C121.477 20.7923 121.545 20.4703 121.666 20.223C121.788 19.9757 121.974 19.796 122.226 19.684C122.478 19.5673 122.81 19.509 123.22 19.509C123.65 19.509 123.986 19.572 124.228 19.698C124.476 19.8193 124.651 20.013 124.753 20.279C124.861 20.5403 124.914 20.8833 124.914 21.308V28H123.99V27.244H123.836C123.734 27.51 123.598 27.7177 123.43 27.867C123.262 28.0163 123.024 28.091 122.716 28.091ZM123.024 27.37C123.262 27.37 123.461 27.3023 123.619 27.167C123.783 27.027 123.909 26.824 123.997 26.558V23.681C123.834 23.7463 123.666 23.8233 123.493 23.912C123.325 24.0007 123.136 24.1243 122.926 24.283C122.66 24.479 122.483 24.7007 122.394 24.948C122.306 25.1907 122.254 25.473 122.24 25.795C122.236 25.879 122.233 25.9793 122.233 26.096C122.238 26.2127 122.243 26.3293 122.247 26.446C122.271 26.74 122.35 26.9687 122.485 27.132C122.621 27.2907 122.8 27.37 123.024 27.37ZM122.8 19.04L121.848 17.451H122.548L123.479 19.04H122.8ZM126.408 28V19.6H127.339V20.349H127.542C127.672 20.0783 127.831 19.8707 128.018 19.726C128.209 19.5767 128.461 19.502 128.774 19.502C129.212 19.502 129.541 19.6303 129.761 19.887C129.98 20.1437 130.092 20.5707 130.097 21.168V28H129.173V21.105C129.168 20.7923 129.107 20.5683 128.991 20.433C128.879 20.2977 128.697 20.23 128.445 20.23C128.202 20.23 127.98 20.3047 127.78 20.454C127.579 20.5987 127.432 20.8087 127.339 21.084V28H126.408ZM133.297 30.275C132.709 30.275 132.243 30.1817 131.897 29.995C131.552 29.813 131.363 29.512 131.33 29.092C131.33 29.0547 131.326 29.008 131.316 28.952C131.312 28.9007 131.312 28.8447 131.316 28.784C131.33 28.518 131.419 28.3103 131.582 28.161C131.75 28.0117 131.946 27.9207 132.17 27.888V27.699C131.965 27.6337 131.806 27.5427 131.694 27.426C131.587 27.3093 131.526 27.1623 131.512 26.985C131.512 26.943 131.512 26.9033 131.512 26.866C131.512 26.8287 131.512 26.789 131.512 26.747C131.522 26.5557 131.592 26.3947 131.722 26.264C131.853 26.1333 132.007 26.0563 132.184 26.033V25.844C131.942 25.7227 131.76 25.5383 131.638 25.291C131.522 25.0437 131.454 24.7263 131.435 24.339C131.426 24.0357 131.419 23.765 131.414 23.527C131.41 23.2843 131.407 23.051 131.407 22.827C131.407 22.603 131.41 22.3627 131.414 22.106C131.419 21.8493 131.426 21.5553 131.435 21.224C131.454 20.818 131.526 20.489 131.652 20.237C131.778 19.9803 131.97 19.796 132.226 19.684C132.488 19.5673 132.828 19.509 133.248 19.509C133.701 19.509 134.056 19.5743 134.312 19.705C134.574 19.831 134.765 20.0363 134.886 20.321H135.068C135.087 20.0783 135.166 19.8987 135.306 19.782C135.451 19.6607 135.649 19.6 135.901 19.6V20.342H135.677C135.5 20.342 135.36 20.4213 135.257 20.58C135.155 20.7387 135.101 20.9813 135.096 21.308L135.082 22.092C135.087 22.2927 135.089 22.4817 135.089 22.659C135.089 22.8363 135.089 23.0113 135.089 23.184C135.089 23.352 135.087 23.5293 135.082 23.716C135.082 23.9027 135.078 24.1103 135.068 24.339C135.045 24.745 134.97 25.074 134.844 25.326C134.718 25.578 134.525 25.7623 134.263 25.879C134.007 25.991 133.668 26.047 133.248 26.047C132.898 26.0377 132.644 26.0797 132.485 26.173C132.331 26.2617 132.254 26.404 132.254 26.6V26.684C132.259 26.8053 132.294 26.901 132.359 26.971C132.429 27.041 132.541 27.0947 132.695 27.132C132.849 27.1647 133.059 27.188 133.325 27.202C133.969 27.2207 134.462 27.3257 134.802 27.517C135.143 27.7083 135.332 28.0513 135.369 28.546C135.374 28.6067 135.376 28.6673 135.376 28.728C135.376 28.7887 135.374 28.8517 135.369 28.917C135.346 29.2623 135.246 29.533 135.068 29.729C134.891 29.9297 134.651 30.0697 134.347 30.149C134.044 30.233 133.694 30.275 133.297 30.275ZM133.311 29.554C133.549 29.554 133.757 29.5353 133.934 29.498C134.112 29.4607 134.252 29.393 134.354 29.295C134.462 29.197 134.522 29.057 134.536 28.875C134.541 28.819 134.541 28.7653 134.536 28.714C134.536 28.6673 134.534 28.6183 134.529 28.567C134.515 28.3803 134.457 28.2427 134.354 28.154C134.256 28.07 134.119 28.0117 133.941 27.979C133.764 27.9463 133.556 27.9253 133.318 27.916C132.964 27.8927 132.686 27.9277 132.485 28.021C132.285 28.1143 132.175 28.301 132.156 28.581C132.152 28.6277 132.149 28.6767 132.149 28.728C132.149 28.7793 132.152 28.8283 132.156 28.875C132.17 29.0663 132.224 29.211 132.317 29.309C132.415 29.407 132.548 29.4723 132.716 29.505C132.884 29.5377 133.083 29.554 133.311 29.554ZM133.248 25.305C133.566 25.305 133.792 25.242 133.927 25.116C134.063 24.9853 134.137 24.7567 134.151 24.43C134.161 24.1827 134.168 23.9237 134.172 23.653C134.182 23.3823 134.186 23.1047 134.186 22.82C134.186 22.5307 134.182 22.2437 134.172 21.959C134.168 21.6743 134.161 21.3967 134.151 21.126C134.137 20.7947 134.063 20.566 133.927 20.44C133.792 20.3093 133.566 20.244 133.248 20.244C132.931 20.244 132.702 20.3093 132.562 20.44C132.427 20.566 132.355 20.7947 132.345 21.126C132.336 21.4107 132.329 21.6977 132.324 21.987C132.32 22.2763 132.317 22.561 132.317 22.841C132.317 23.1163 132.32 23.387 132.324 23.653C132.329 23.919 132.336 24.1757 132.345 24.423C132.359 24.7497 132.434 24.9783 132.569 25.109C132.705 25.2397 132.931 25.305 133.248 25.305Z" fill="black"/>
<defs>
<linearGradient id="paint0_linear_41_2714" x1="85.85" y1="126.19" x2="86.58" y2="102.39" gradientUnits="userSpaceOnUse">
<stop stop-color="#75895A"/>
<stop offset="1" stop-color="#577549"/>
</linearGradient>
<linearGradient id="paint1_linear_41_2714" x1="53.13" y1="211.07" x2="86.06" y2="133.71" gradientUnits="userSpaceOnUse">
<stop stop-color="#936037"/>
<stop offset="0.44" stop-color="#715E30"/>
<stop offset="0.58" stop-color="#665D2E"/>
<stop offset="0.8" stop-color="#595C2D"/>
<stop offset="0.98" stop-color="#3C592A"/>
</linearGradient>
</defs>
</svg>
