<svg width="34" height="14" viewBox="0 0 34 14" fill="none" xmlns="http://www.w3.org/2000/svg">
<path d="M26.1801 0.38355C26.0507 0.511297 25.9479 0.663463 25.8778 0.831237C25.8077 0.999012 25.7715 1.17904 25.7715 1.36089C25.7715 1.54273 25.8077 1.72276 25.8778 1.89054C25.9479 2.05831 26.0507 2.21049 26.1801 2.33824L27.0178 3.17139C27.2047 3.36383 27.3312 3.60681 27.3816 3.87032C27.432 4.13383 27.4041 4.40633 27.3014 4.65417C27.1986 4.902 27.0255 5.11433 26.8035 5.2649C26.5815 5.41548 26.3202 5.49771 26.0519 5.50146H19.4737C19.1095 5.50146 18.7602 5.64614 18.5026 5.90369C18.2451 6.16123 18.1004 6.51055 18.1004 6.87478C18.1004 7.23901 18.2451 7.58831 18.5026 7.84586C18.7602 8.10341 19.1095 8.2481 19.4737 8.2481H26.0473C26.3147 8.25269 26.5749 8.33521 26.796 8.48555C27.0171 8.63589 27.1895 8.84751 27.2921 9.09444C27.3946 9.34137 27.4229 9.61286 27.3733 9.87561C27.3238 10.1384 27.1987 10.3809 27.0132 10.5736L26.1801 11.3747C26.0514 11.5024 25.9492 11.6543 25.8795 11.8216C25.8098 11.989 25.7739 12.1685 25.7739 12.3498C25.7739 12.531 25.8098 12.7106 25.8795 12.8779C25.9492 13.0453 26.0514 13.1971 26.1801 13.3248C26.4372 13.5792 26.7843 13.7219 27.146 13.7219C27.5077 13.7219 27.8548 13.5792 28.1119 13.3248L33.6052 7.83153C33.8582 7.57461 34 7.22849 34 6.86791C34 6.50733 33.8582 6.16122 33.6052 5.9043L28.1119 0.411015C27.8584 0.152934 27.5133 0.0052817 27.1516 0.000138959C26.7899 -0.00500379 26.4408 0.132779 26.1801 0.38355Z" fill="#BC420F"/>
<path opacity="0.8" d="M12.8451 8.21143H14.4199C14.7841 8.21143 15.1334 8.06675 15.391 7.8092C15.6485 7.55165 15.7932 7.20233 15.7932 6.8381C15.7932 6.47388 15.6485 6.12457 15.391 5.86703C15.1334 5.60948 14.7841 5.46478 14.4199 5.46478H12.8451C12.4809 5.46478 12.1316 5.60948 11.874 5.86703C11.6165 6.12457 11.4718 6.47388 11.4718 6.8381C11.4718 7.20233 11.6165 7.55165 11.874 7.8092C12.1316 8.06675 12.4809 8.21143 12.8451 8.21143Z" fill="#BC420F"/>
<path opacity="0.6" d="M7.91491 5.47858H7.71807C7.14669 5.47858 6.6835 5.94177 6.6835 6.51315V7.17234C6.6835 7.74372 7.14669 8.20691 7.71807 8.20691H7.91491C8.48629 8.20691 8.94948 7.74372 8.94948 7.17234V6.51315C8.94948 5.94177 8.48629 5.47858 7.91491 5.47858Z" fill="#BC420F"/>
<path opacity="0.4" d="M4.01925 5.75781H3.86818C3.41058 5.75781 3.03961 6.12878 3.03961 6.58638V7.10825C3.03961 7.56585 3.41058 7.93682 3.86818 7.93682H4.01925C4.47685 7.93682 4.84782 7.56585 4.84782 7.10825V6.58638C4.84782 6.12878 4.47685 5.75781 4.01925 5.75781Z" fill="#BC420F"/>
<path opacity="0.2" d="M0.828571 5.92719H0.695816C0.311528 5.92719 0 6.23871 0 6.623V7.06704C0 7.45133 0.311528 7.76286 0.695816 7.76286H0.828571C1.21286 7.76286 1.52439 7.45133 1.52439 7.06704V6.623C1.52439 6.23871 1.21286 5.92719 0.828571 5.92719Z" fill="#BC420F"/>
</svg>
