<svg width="8" height="10" viewBox="0 0 8 10" fill="none" xmlns="http://www.w3.org/2000/svg">
<path d="M3.73098 5.29553e-05C4.43299 -0.00423853 5.11367 0.252431 5.65188 0.724387C6.19008 1.19634 6.55088 1.85295 6.67004 2.57734C6.74879 3.1709 6.67261 3.77571 6.44961 4.3276C6.14422 5.11614 5.7482 5.86278 5.27031 6.551C4.88456 7.12416 4.46942 7.67808 4.05795 8.23585C4.02904 8.28518 3.98852 8.32593 3.94028 8.3542C3.89204 8.38246 3.83769 8.39729 3.78241 8.39729C3.72714 8.39729 3.67278 8.38246 3.62454 8.3542C3.5763 8.32593 3.53579 8.28518 3.50688 8.23585C2.73497 7.28398 2.05677 6.25296 1.4826 5.15848C1.21105 4.66021 1.01639 4.12015 0.905808 3.55826C0.775928 2.84583 0.907096 2.1083 1.27319 1.49257C1.48894 1.10559 1.78472 0.774126 2.13883 0.522508C2.49294 0.270889 2.89637 0.105507 3.31951 0.0385107C3.45569 0.0160568 3.59316 0.00321493 3.73098 5.29553e-05ZM3.78609 7.51652L3.85221 7.44343C4.07632 7.13185 4.3041 6.82411 4.52085 6.50868C5.02317 5.80075 5.45177 5.03861 5.79934 4.23527C6.02091 3.74825 6.10382 3.20471 6.03814 2.66966C5.94897 2.1485 5.6985 1.67254 5.32536 1.31521C4.95222 0.957883 4.47715 0.739047 3.97345 0.692456C3.59246 0.656998 3.20922 0.725953 2.86139 0.89254C2.51356 1.05913 2.21312 1.31761 1.98959 1.64259C1.6402 2.11183 1.47941 2.70524 1.54138 3.29668C1.57705 3.60224 1.65631 3.90049 1.7765 4.18143C2.08898 4.92791 2.47694 5.63719 2.93376 6.29712C3.20562 6.70487 3.49585 7.10107 3.79711 7.51652H3.78609Z" fill="white"/>
<path d="M3.79709 9.75148C2.9546 9.76857 2.11528 9.63856 1.31359 9.36681C0.986714 9.26141 0.681466 9.09314 0.413497 8.8706C0.215396 8.71317 0.0752549 8.48897 0.0167291 8.23588C-0.011557 8.08569 -0.00388301 7.93051 0.0390683 7.78418C0.0820196 7.63785 0.158911 7.50493 0.262875 7.3973C0.518594 7.12674 0.830337 6.92141 1.17398 6.79721C1.28787 6.75105 1.40911 6.70874 1.54136 6.67028C1.62226 6.63907 1.71165 6.64258 1.79009 6.68004C1.86853 6.7175 1.92966 6.78588 1.96018 6.8703C1.98825 6.95702 1.98235 7.05186 1.9438 7.13405C1.90524 7.21623 1.83716 7.27908 1.75445 7.30883C1.54137 7.39346 1.32828 7.47038 1.12622 7.57424C1.00323 7.64112 0.889516 7.72525 0.788229 7.82429C0.756353 7.84856 0.730415 7.88036 0.712528 7.91714C0.694642 7.95391 0.685318 7.99459 0.685318 8.03585C0.685318 8.07712 0.694642 8.1178 0.712528 8.15457C0.730415 8.19134 0.756353 8.22315 0.788229 8.24742C1.01039 8.467 1.28021 8.62674 1.57443 8.71288C2.10632 8.89903 2.66013 9.00776 3.2203 9.036C3.71956 9.0764 4.22131 9.06867 4.71922 9.01292C5.35791 8.96903 5.98208 8.79388 6.55614 8.49746C6.67077 8.43118 6.7759 8.3483 6.86841 8.25127C6.90331 8.22798 6.93203 8.19586 6.95193 8.15787C6.97183 8.11988 6.98226 8.07726 6.98226 8.03393C6.98226 7.9906 6.97183 7.94797 6.95193 7.90999C6.93203 7.872 6.90331 7.83988 6.86841 7.81659C6.73037 7.69693 6.58004 7.59372 6.42021 7.50886C6.26561 7.43284 6.106 7.36857 5.94261 7.31652C5.89895 7.30498 5.85798 7.28432 5.82213 7.25579C5.78629 7.22727 5.75632 7.19146 5.73402 7.1505C5.71172 7.10955 5.69755 7.0643 5.69236 7.01748C5.68717 6.97065 5.69106 6.9232 5.70381 6.87799C5.71729 6.83297 5.73951 6.79136 5.76907 6.75576C5.79864 6.72016 5.83491 6.69135 5.87562 6.67112C5.91632 6.65089 5.96058 6.6397 6.00562 6.63823C6.05065 6.63676 6.09549 6.64504 6.13732 6.66258C6.56276 6.781 6.95794 6.99643 7.29458 7.29344C7.46149 7.44487 7.57741 7.64853 7.62522 7.87429C7.64901 8.00516 7.64488 8.13994 7.61313 8.26895C7.58137 8.39796 7.52278 8.51802 7.44153 8.62055C7.24689 8.87549 6.99425 9.07522 6.70676 9.20141C6.25978 9.41304 5.7858 9.55558 5.29969 9.62455C4.82576 9.68994 4.34817 9.72456 3.87057 9.77456L3.79709 9.75148Z" fill="white"/>
<path d="M3.7971 4.31225C3.56111 4.31149 3.33063 4.23752 3.13476 4.09969C2.93889 3.96185 2.78643 3.76634 2.69662 3.53783C2.60681 3.30933 2.58369 3.05807 2.63017 2.81581C2.67666 2.57355 2.79067 2.35116 2.95779 2.1767C3.12492 2.00225 3.33768 1.88356 3.56919 1.83563C3.8007 1.78771 4.04058 1.81268 4.25854 1.90742C4.4765 2.00215 4.66276 2.16239 4.7938 2.3679C4.92483 2.57341 4.99477 2.81497 4.99477 3.06207C4.99283 3.39368 4.86592 3.71107 4.64162 3.9452C4.41733 4.17932 4.11381 4.31124 3.7971 4.31225ZM3.7971 3.62368C3.86799 3.6242 3.93826 3.6099 4.00381 3.58162C4.06935 3.55334 4.12884 3.51165 4.17879 3.45898C4.22875 3.40632 4.26816 3.34374 4.29472 3.27492C4.32128 3.20611 4.33446 3.13243 4.33348 3.05822C4.33253 2.91024 4.27622 2.76854 4.17663 2.66354C4.07703 2.55854 3.94209 2.49861 3.80077 2.4966C3.65721 2.49761 3.51985 2.55805 3.41868 2.6647C3.3175 2.77136 3.26072 2.91558 3.26072 3.0659C3.26072 3.13948 3.27462 3.21233 3.30162 3.28025C3.32862 3.34818 3.36819 3.40984 3.41805 3.46168C3.4679 3.51353 3.52706 3.55453 3.59211 3.58234C3.65717 3.61014 3.72684 3.62419 3.7971 3.62368Z" fill="white"/>
</svg>
