<svg width="39" height="14" viewBox="0 0 39 14" fill="none" xmlns="http://www.w3.org/2000/svg">
<path d="M36.4502 3.04309L37.8521 2.22443L36.8538 1L27.869 6.90147" fill="#BC420F"/>
<path d="M36.4502 3.04309L37.8521 2.22443L36.8538 1L27.869 6.90147" stroke="#BC420F" stroke-miterlimit="10"/>
<path d="M36.4643 10.7141L37.8662 11.5328L36.875 12.7572L27.869 6.88422" fill="#BC420F"/>
<path d="M36.4643 10.7141L37.8662 11.5328L36.875 12.7572L27.869 6.88422" stroke="#BC420F" stroke-miterlimit="10"/>
<path d="M18.6318 12.5252L27.6972 7.03829L18.6195 1.58388L9.55419 7.07076L18.6318 12.5252Z" fill="#BC420F" stroke="#BC420F"/>
<circle cx="1.5" cy="1.5" r="1.5" transform="matrix(-1 0 0 1 6.86621 6)" fill="#BC420F"/>
<path d="M7.15256e-07 7.5C7.15256e-07 8.05228 0.447716 8.5 1 8.5C1.55229 8.5 2 8.05228 2 7.5C2 6.94772 1.55229 6.5 1 6.5C0.447716 6.5 7.15256e-07 6.94772 7.15256e-07 7.5Z" fill="#BC420F"/>
</svg>
