<svg width="261" height="13" viewBox="0 0 261 13" fill="none" xmlns="http://www.w3.org/2000/svg">
<path d="M1.47612 2.74358L0.0148315 1.94946L1.05331 0.754822L10.4738 6.48632" fill="url(#paint0_linear_19_1617)"/>
<path d="M1.46871 10.2014L0 10.9956L1.03848 12.1833L10.4738 6.48633" fill="url(#paint1_linear_19_1617)"/>
<path d="M20.7029 12.2108L10.192 6.32052L20.7178 0.464722L31.2287 6.35504L20.7029 12.2108Z" fill="url(#paint2_linear_19_1617)"/>
<path d="M4.3913 0.444031L10.192 4.17986L17.1201 0.457842L4.3913 0.444031Z" fill="url(#paint3_linear_19_1617)"/>
<path d="M4.36902 12.1901L10.1845 8.46808L17.0978 12.2039L4.36902 12.1901Z" fill="url(#paint4_linear_19_1617)"/>
<path d="M62.947 2.82646L64.4157 2.03234L63.3772 0.844604L53.9418 6.54157" fill="url(#paint5_linear_19_1617)"/>
<path d="M62.9321 10.2842L64.4008 11.0784L63.3549 12.2661L53.9418 6.5415" fill="url(#paint6_linear_19_1617)"/>
<path d="M43.6978 12.2385L54.2236 6.38268L43.7126 0.499268L33.1869 6.35506L43.6978 12.2385Z" fill="url(#paint7_linear_19_1617)"/>
<path d="M60.0464 0.519984L54.2309 4.2351L47.3176 0.499268L60.0464 0.519984Z" fill="url(#paint8_linear_19_1617)"/>
<path d="M60.0241 12.2662L54.2234 8.53033L47.2953 12.2454L60.0241 12.2662Z" fill="url(#paint9_linear_19_1617)"/>
<path d="M31.1795 0.493087L31.1619 12.2392L33.1202 12.2417L33.1378 0.495632L31.1795 0.493087Z" fill="url(#paint10_linear_19_1617)"/>
<path d="M67.0044 2.83336L65.5431 2.03234L66.589 0.844604L76.0021 6.56919" fill="url(#paint11_linear_19_1617)"/>
<path d="M66.9969 10.2911L65.5282 11.0852L66.5667 12.2729L76.002 6.56903" fill="url(#paint12_linear_19_1617)"/>
<path d="M86.231 12.3006L75.7201 6.41024L86.2458 0.554443L96.7568 6.43786L86.231 12.3006Z" fill="url(#paint13_linear_19_1617)"/>
<path d="M69.9196 0.533813L75.7202 4.26964L82.6484 0.547624L69.9196 0.533813Z" fill="url(#paint14_linear_19_1617)"/>
<path d="M69.8973 12.273L75.7128 8.55786L82.6261 12.2937L69.8973 12.273Z" fill="url(#paint15_linear_19_1617)"/>
<path d="M128.475 2.91613L129.944 2.12201L128.905 0.927368L119.47 6.63124" fill="url(#paint16_linear_19_1617)"/>
<path d="M128.46 10.3739L129.929 11.168L128.883 12.3558L119.47 6.63116" fill="url(#paint17_linear_19_1617)"/>
<path d="M109.343 12.1901L119.869 6.33435L109.358 0.444031L98.832 6.30673L109.343 12.1901Z" fill="url(#paint18_linear_19_1617)"/>
<path d="M125.575 0.609706L119.759 4.32482L112.846 0.588989L125.575 0.609706Z" fill="url(#paint19_linear_19_1617)"/>
<path d="M125.553 12.3489L119.752 8.6131L112.824 12.3351L125.553 12.3489Z" fill="url(#paint20_linear_19_1617)"/>
<path d="M96.6953 0.583015L96.6777 12.329L98.636 12.3316L98.6536 0.58556L96.6953 0.583015Z" fill="url(#paint21_linear_19_1617)"/>
<path d="M132.54 2.91618L131.071 2.12206L132.117 0.934326L141.53 6.65892" fill="url(#paint22_linear_19_1617)"/>
<path d="M132.525 10.3809L131.056 11.1681L132.095 12.3627L141.53 6.65887" fill="url(#paint23_linear_19_1617)"/>
<path d="M151.759 12.3834L141.248 6.50002L151.774 0.644226L162.285 6.52764L151.759 12.3834Z" fill="url(#paint24_linear_19_1617)"/>
<path d="M135.448 0.623596L141.248 4.35252L148.177 0.637407L135.448 0.623596Z" fill="url(#paint25_linear_19_1617)"/>
<path d="M135.426 12.3628L141.241 8.64771L148.154 12.3835L135.426 12.3628Z" fill="url(#paint26_linear_19_1617)"/>
<path d="M194.003 2.99913L195.472 2.21191L194.433 1.01727L184.998 6.72115" fill="url(#paint27_linear_19_1617)"/>
<path d="M193.996 10.4637L195.457 11.2578L194.419 12.4455L184.998 6.72095" fill="url(#paint28_linear_19_1617)"/>
<path d="M174.754 12.418L185.28 6.56226L174.769 0.671936L164.243 6.53463L174.754 12.418Z" fill="url(#paint29_linear_19_1617)"/>
<path d="M191.103 0.692644L185.287 4.41466L178.374 0.678833L191.103 0.692644Z" fill="url(#paint30_linear_19_1617)"/>
<path d="M191.081 12.4388L185.28 8.70294L178.352 12.425L191.081 12.4388Z" fill="url(#paint31_linear_19_1617)"/>
<path d="M162.226 0.672897L162.208 12.419L164.166 12.4216L164.184 0.675442L162.226 0.672897Z" fill="url(#paint32_linear_19_1617)"/>
<path d="M198.068 3.00596L196.599 2.21184L197.638 1.02411L207.058 6.7487" fill="url(#paint33_linear_19_1617)"/>
<path d="M198.053 10.4638L196.585 11.2579L197.623 12.4525L207.059 6.74866" fill="url(#paint34_linear_19_1617)"/>
<path d="M217.287 12.4732L206.776 6.58975L217.302 0.727051L227.813 6.61737L217.287 12.4732Z" fill="url(#paint35_linear_19_1617)"/>
<path d="M200.976 0.70636L206.777 4.44219L213.705 0.727076L200.976 0.70636Z" fill="url(#paint36_linear_19_1617)"/>
<path d="M200.954 12.4525L206.769 8.73047L213.682 12.4732L200.954 12.4525Z" fill="url(#paint37_linear_19_1617)"/>
<path d="M259.531 3.08879L261 2.29467L259.962 1.10693L250.526 6.8039" fill="url(#paint38_linear_19_1617)"/>
<path d="M259.524 10.5467L260.985 11.3477L259.939 12.5355L250.526 6.80396" fill="url(#paint39_linear_19_1617)"/>
<path d="M240.282 12.5077L250.808 6.64501L240.297 0.761597L229.771 6.61739L240.282 12.5077Z" fill="url(#paint40_linear_19_1617)"/>
<path d="M256.631 0.782427L250.816 4.50445L243.902 0.768616L256.631 0.782427Z" fill="url(#paint41_linear_19_1617)"/>
<path d="M256.609 12.5285L250.808 8.79266L243.88 12.5078L256.609 12.5285Z" fill="url(#paint42_linear_19_1617)"/>
<path d="M227.764 0.755965L227.746 12.5021L229.705 12.5046L229.722 0.758511L227.764 0.755965Z" fill="url(#paint43_linear_19_1617)"/>
<defs>
<linearGradient id="paint0_linear_19_1617" x1="0.0148315" y1="3.62057" x2="10.4738" y2="3.62057" gradientUnits="userSpaceOnUse">
<stop offset="0.005" stop-color="#561E07"/>
<stop offset="0.294" stop-color="#96350C"/>
<stop offset="0.539" stop-color="#A2390D"/>
<stop offset="0.779" stop-color="#89300B"/>
<stop offset="1" stop-color="#561E07"/>
</linearGradient>
<linearGradient id="paint1_linear_19_1617" x1="0" y1="9.33481" x2="10.4738" y2="9.33481" gradientUnits="userSpaceOnUse">
<stop offset="0.005" stop-color="#561E07"/>
<stop offset="0.294" stop-color="#96350C"/>
<stop offset="0.539" stop-color="#A2390D"/>
<stop offset="0.779" stop-color="#89300B"/>
<stop offset="1" stop-color="#561E07"/>
</linearGradient>
<linearGradient id="paint2_linear_19_1617" x1="10.192" y1="6.33778" x2="31.2287" y2="6.33778" gradientUnits="userSpaceOnUse">
<stop offset="0.005" stop-color="#561E07"/>
<stop offset="0.294" stop-color="#96350C"/>
<stop offset="0.539" stop-color="#A2390D"/>
<stop offset="0.779" stop-color="#89300B"/>
<stop offset="1" stop-color="#561E07"/>
</linearGradient>
<linearGradient id="paint3_linear_19_1617" x1="4.3913" y1="2.31195" x2="17.1201" y2="2.31195" gradientUnits="userSpaceOnUse">
<stop offset="0.005" stop-color="#561E07"/>
<stop offset="0.294" stop-color="#96350C"/>
<stop offset="0.539" stop-color="#A2390D"/>
<stop offset="0.779" stop-color="#89300B"/>
<stop offset="1" stop-color="#561E07"/>
</linearGradient>
<linearGradient id="paint4_linear_19_1617" x1="4.36902" y1="10.336" x2="17.0978" y2="10.336" gradientUnits="userSpaceOnUse">
<stop offset="0.005" stop-color="#561E07"/>
<stop offset="0.294" stop-color="#96350C"/>
<stop offset="0.539" stop-color="#A2390D"/>
<stop offset="0.779" stop-color="#89300B"/>
<stop offset="1" stop-color="#561E07"/>
</linearGradient>
<linearGradient id="paint5_linear_19_1617" x1="53.9418" y1="3.69309" x2="64.4157" y2="3.69309" gradientUnits="userSpaceOnUse">
<stop offset="0.005" stop-color="#561E07"/>
<stop offset="0.294" stop-color="#96350C"/>
<stop offset="0.539" stop-color="#A2390D"/>
<stop offset="0.779" stop-color="#89300B"/>
<stop offset="1" stop-color="#561E07"/>
</linearGradient>
<linearGradient id="paint6_linear_19_1617" x1="53.9418" y1="9.4038" x2="64.4008" y2="9.4038" gradientUnits="userSpaceOnUse">
<stop offset="0.005" stop-color="#561E07"/>
<stop offset="0.294" stop-color="#96350C"/>
<stop offset="0.539" stop-color="#A2390D"/>
<stop offset="0.779" stop-color="#89300B"/>
<stop offset="1" stop-color="#561E07"/>
</linearGradient>
<linearGradient id="paint7_linear_19_1617" x1="33.1869" y1="6.36887" x2="54.2236" y2="6.36887" gradientUnits="userSpaceOnUse">
<stop offset="0.005" stop-color="#561E07"/>
<stop offset="0.294" stop-color="#96350C"/>
<stop offset="0.539" stop-color="#A2390D"/>
<stop offset="0.779" stop-color="#89300B"/>
<stop offset="1" stop-color="#561E07"/>
</linearGradient>
<linearGradient id="paint8_linear_19_1617" x1="47.3176" y1="2.36718" x2="60.0464" y2="2.36718" gradientUnits="userSpaceOnUse">
<stop offset="0.005" stop-color="#561E07"/>
<stop offset="0.294" stop-color="#96350C"/>
<stop offset="0.539" stop-color="#A2390D"/>
<stop offset="0.779" stop-color="#89300B"/>
<stop offset="1" stop-color="#561E07"/>
</linearGradient>
<linearGradient id="paint9_linear_19_1617" x1="47.2953" y1="10.3982" x2="60.0241" y2="10.3982" gradientUnits="userSpaceOnUse">
<stop offset="0.005" stop-color="#561E07"/>
<stop offset="0.294" stop-color="#96350C"/>
<stop offset="0.539" stop-color="#A2390D"/>
<stop offset="0.779" stop-color="#89300B"/>
<stop offset="1" stop-color="#561E07"/>
</linearGradient>
<linearGradient id="paint10_linear_19_1617" x1="32.141" y1="12.2405" x2="32.1563" y2="0.494356" gradientUnits="userSpaceOnUse">
<stop offset="0.005" stop-color="#561E07"/>
<stop offset="0.294" stop-color="#96350C"/>
<stop offset="0.539" stop-color="#A2390D"/>
<stop offset="0.779" stop-color="#89300B"/>
<stop offset="1" stop-color="#561E07"/>
</linearGradient>
<linearGradient id="paint11_linear_19_1617" x1="65.5431" y1="3.7069" x2="76.0021" y2="3.7069" gradientUnits="userSpaceOnUse">
<stop offset="0.005" stop-color="#561E07"/>
<stop offset="0.294" stop-color="#96350C"/>
<stop offset="0.539" stop-color="#A2390D"/>
<stop offset="0.779" stop-color="#89300B"/>
<stop offset="1" stop-color="#561E07"/>
</linearGradient>
<linearGradient id="paint12_linear_19_1617" x1="65.5282" y1="9.42097" x2="76.002" y2="9.42097" gradientUnits="userSpaceOnUse">
<stop offset="0.005" stop-color="#561E07"/>
<stop offset="0.294" stop-color="#96350C"/>
<stop offset="0.539" stop-color="#A2390D"/>
<stop offset="0.779" stop-color="#89300B"/>
<stop offset="1" stop-color="#561E07"/>
</linearGradient>
<linearGradient id="paint13_linear_19_1617" x1="75.7201" y1="6.4275" x2="96.7568" y2="6.4275" gradientUnits="userSpaceOnUse">
<stop offset="0.005" stop-color="#561E07"/>
<stop offset="0.294" stop-color="#96350C"/>
<stop offset="0.539" stop-color="#A2390D"/>
<stop offset="0.779" stop-color="#89300B"/>
<stop offset="1" stop-color="#561E07"/>
</linearGradient>
<linearGradient id="paint14_linear_19_1617" x1="69.9196" y1="2.40173" x2="82.6484" y2="2.40173" gradientUnits="userSpaceOnUse">
<stop offset="0.005" stop-color="#561E07"/>
<stop offset="0.294" stop-color="#96350C"/>
<stop offset="0.539" stop-color="#A2390D"/>
<stop offset="0.779" stop-color="#89300B"/>
<stop offset="1" stop-color="#561E07"/>
</linearGradient>
<linearGradient id="paint15_linear_19_1617" x1="69.8973" y1="10.4258" x2="82.6261" y2="10.4258" gradientUnits="userSpaceOnUse">
<stop offset="0.005" stop-color="#561E07"/>
<stop offset="0.294" stop-color="#96350C"/>
<stop offset="0.539" stop-color="#A2390D"/>
<stop offset="0.779" stop-color="#89300B"/>
<stop offset="1" stop-color="#561E07"/>
</linearGradient>
<linearGradient id="paint16_linear_19_1617" x1="119.47" y1="3.77931" x2="129.944" y2="3.77931" gradientUnits="userSpaceOnUse">
<stop offset="0.005" stop-color="#561E07"/>
<stop offset="0.294" stop-color="#96350C"/>
<stop offset="0.539" stop-color="#A2390D"/>
<stop offset="0.779" stop-color="#89300B"/>
<stop offset="1" stop-color="#561E07"/>
</linearGradient>
<linearGradient id="paint17_linear_19_1617" x1="119.47" y1="9.49346" x2="129.929" y2="9.49346" gradientUnits="userSpaceOnUse">
<stop offset="0.005" stop-color="#561E07"/>
<stop offset="0.294" stop-color="#96350C"/>
<stop offset="0.539" stop-color="#A2390D"/>
<stop offset="0.779" stop-color="#89300B"/>
<stop offset="1" stop-color="#561E07"/>
</linearGradient>
<linearGradient id="paint18_linear_19_1617" x1="98.832" y1="6.31709" x2="119.869" y2="6.31709" gradientUnits="userSpaceOnUse">
<stop offset="0.005" stop-color="#561E07"/>
<stop offset="0.294" stop-color="#96350C"/>
<stop offset="0.539" stop-color="#A2390D"/>
<stop offset="0.779" stop-color="#89300B"/>
<stop offset="1" stop-color="#561E07"/>
</linearGradient>
<linearGradient id="paint19_linear_19_1617" x1="112.846" y1="2.4569" x2="125.575" y2="2.4569" gradientUnits="userSpaceOnUse">
<stop offset="0.005" stop-color="#561E07"/>
<stop offset="0.294" stop-color="#96350C"/>
<stop offset="0.539" stop-color="#A2390D"/>
<stop offset="0.779" stop-color="#89300B"/>
<stop offset="1" stop-color="#561E07"/>
</linearGradient>
<linearGradient id="paint20_linear_19_1617" x1="112.824" y1="10.481" x2="125.553" y2="10.481" gradientUnits="userSpaceOnUse">
<stop offset="0.005" stop-color="#561E07"/>
<stop offset="0.294" stop-color="#96350C"/>
<stop offset="0.539" stop-color="#A2390D"/>
<stop offset="0.779" stop-color="#89300B"/>
<stop offset="1" stop-color="#561E07"/>
</linearGradient>
<linearGradient id="paint21_linear_19_1617" x1="97.6568" y1="12.3303" x2="97.6721" y2="0.584284" gradientUnits="userSpaceOnUse">
<stop offset="0.005" stop-color="#561E07"/>
<stop offset="0.294" stop-color="#96350C"/>
<stop offset="0.539" stop-color="#A2390D"/>
<stop offset="0.779" stop-color="#89300B"/>
<stop offset="1" stop-color="#561E07"/>
</linearGradient>
<linearGradient id="paint22_linear_19_1617" x1="131.071" y1="3.79662" x2="141.53" y2="3.79662" gradientUnits="userSpaceOnUse">
<stop offset="0.005" stop-color="#561E07"/>
<stop offset="0.294" stop-color="#96350C"/>
<stop offset="0.539" stop-color="#A2390D"/>
<stop offset="0.779" stop-color="#89300B"/>
<stop offset="1" stop-color="#561E07"/>
</linearGradient>
<linearGradient id="paint23_linear_19_1617" x1="131.056" y1="9.51081" x2="141.53" y2="9.51081" gradientUnits="userSpaceOnUse">
<stop offset="0.005" stop-color="#561E07"/>
<stop offset="0.294" stop-color="#96350C"/>
<stop offset="0.539" stop-color="#A2390D"/>
<stop offset="0.779" stop-color="#89300B"/>
<stop offset="1" stop-color="#561E07"/>
</linearGradient>
<linearGradient id="paint24_linear_19_1617" x1="141.248" y1="6.51383" x2="162.285" y2="6.51383" gradientUnits="userSpaceOnUse">
<stop offset="0.005" stop-color="#561E07"/>
<stop offset="0.294" stop-color="#96350C"/>
<stop offset="0.539" stop-color="#A2390D"/>
<stop offset="0.779" stop-color="#89300B"/>
<stop offset="1" stop-color="#561E07"/>
</linearGradient>
<linearGradient id="paint25_linear_19_1617" x1="135.448" y1="2.48806" x2="148.177" y2="2.48806" gradientUnits="userSpaceOnUse">
<stop offset="0.005" stop-color="#561E07"/>
<stop offset="0.294" stop-color="#96350C"/>
<stop offset="0.539" stop-color="#A2390D"/>
<stop offset="0.779" stop-color="#89300B"/>
<stop offset="1" stop-color="#561E07"/>
</linearGradient>
<linearGradient id="paint26_linear_19_1617" x1="135.426" y1="10.5156" x2="148.154" y2="10.5156" gradientUnits="userSpaceOnUse">
<stop offset="0.005" stop-color="#561E07"/>
<stop offset="0.294" stop-color="#96350C"/>
<stop offset="0.539" stop-color="#A2390D"/>
<stop offset="0.779" stop-color="#89300B"/>
<stop offset="1" stop-color="#561E07"/>
</linearGradient>
<linearGradient id="paint27_linear_19_1617" x1="184.998" y1="3.86921" x2="195.472" y2="3.86921" gradientUnits="userSpaceOnUse">
<stop offset="0.005" stop-color="#561E07"/>
<stop offset="0.294" stop-color="#96350C"/>
<stop offset="0.539" stop-color="#A2390D"/>
<stop offset="0.779" stop-color="#89300B"/>
<stop offset="1" stop-color="#561E07"/>
</linearGradient>
<linearGradient id="paint28_linear_19_1617" x1="184.998" y1="9.58324" x2="195.457" y2="9.58324" gradientUnits="userSpaceOnUse">
<stop offset="0.005" stop-color="#561E07"/>
<stop offset="0.294" stop-color="#96350C"/>
<stop offset="0.539" stop-color="#A2390D"/>
<stop offset="0.779" stop-color="#89300B"/>
<stop offset="1" stop-color="#561E07"/>
</linearGradient>
<linearGradient id="paint29_linear_19_1617" x1="164.243" y1="6.54499" x2="185.28" y2="6.54499" gradientUnits="userSpaceOnUse">
<stop offset="0.005" stop-color="#561E07"/>
<stop offset="0.294" stop-color="#96350C"/>
<stop offset="0.539" stop-color="#A2390D"/>
<stop offset="0.779" stop-color="#89300B"/>
<stop offset="1" stop-color="#561E07"/>
</linearGradient>
<linearGradient id="paint30_linear_19_1617" x1="178.374" y1="2.54675" x2="191.103" y2="2.54675" gradientUnits="userSpaceOnUse">
<stop offset="0.005" stop-color="#561E07"/>
<stop offset="0.294" stop-color="#96350C"/>
<stop offset="0.539" stop-color="#A2390D"/>
<stop offset="0.779" stop-color="#89300B"/>
<stop offset="1" stop-color="#561E07"/>
</linearGradient>
<linearGradient id="paint31_linear_19_1617" x1="178.352" y1="10.5709" x2="191.081" y2="10.5709" gradientUnits="userSpaceOnUse">
<stop offset="0.005" stop-color="#561E07"/>
<stop offset="0.294" stop-color="#96350C"/>
<stop offset="0.539" stop-color="#A2390D"/>
<stop offset="0.779" stop-color="#89300B"/>
<stop offset="1" stop-color="#561E07"/>
</linearGradient>
<linearGradient id="paint32_linear_19_1617" x1="163.187" y1="12.4203" x2="163.203" y2="0.674165" gradientUnits="userSpaceOnUse">
<stop offset="0.005" stop-color="#561E07"/>
<stop offset="0.294" stop-color="#96350C"/>
<stop offset="0.539" stop-color="#A2390D"/>
<stop offset="0.779" stop-color="#89300B"/>
<stop offset="1" stop-color="#561E07"/>
</linearGradient>
<linearGradient id="paint33_linear_19_1617" x1="196.599" y1="3.8864" x2="207.058" y2="3.8864" gradientUnits="userSpaceOnUse">
<stop offset="0.005" stop-color="#561E07"/>
<stop offset="0.294" stop-color="#96350C"/>
<stop offset="0.539" stop-color="#A2390D"/>
<stop offset="0.779" stop-color="#89300B"/>
<stop offset="1" stop-color="#561E07"/>
</linearGradient>
<linearGradient id="paint34_linear_19_1617" x1="196.585" y1="9.60059" x2="207.059" y2="9.60059" gradientUnits="userSpaceOnUse">
<stop offset="0.005" stop-color="#561E07"/>
<stop offset="0.294" stop-color="#96350C"/>
<stop offset="0.539" stop-color="#A2390D"/>
<stop offset="0.779" stop-color="#89300B"/>
<stop offset="1" stop-color="#561E07"/>
</linearGradient>
<linearGradient id="paint35_linear_19_1617" x1="206.776" y1="6.60011" x2="227.813" y2="6.60011" gradientUnits="userSpaceOnUse">
<stop offset="0.005" stop-color="#561E07"/>
<stop offset="0.294" stop-color="#96350C"/>
<stop offset="0.539" stop-color="#A2390D"/>
<stop offset="0.779" stop-color="#89300B"/>
<stop offset="1" stop-color="#561E07"/>
</linearGradient>
<linearGradient id="paint36_linear_19_1617" x1="200.976" y1="2.57428" x2="213.705" y2="2.57428" gradientUnits="userSpaceOnUse">
<stop offset="0.005" stop-color="#561E07"/>
<stop offset="0.294" stop-color="#96350C"/>
<stop offset="0.539" stop-color="#A2390D"/>
<stop offset="0.779" stop-color="#89300B"/>
<stop offset="1" stop-color="#561E07"/>
</linearGradient>
<linearGradient id="paint37_linear_19_1617" x1="200.954" y1="10.6018" x2="213.682" y2="10.6018" gradientUnits="userSpaceOnUse">
<stop offset="0.005" stop-color="#561E07"/>
<stop offset="0.294" stop-color="#96350C"/>
<stop offset="0.539" stop-color="#A2390D"/>
<stop offset="0.779" stop-color="#89300B"/>
<stop offset="1" stop-color="#561E07"/>
</linearGradient>
<linearGradient id="paint38_linear_19_1617" x1="250.526" y1="3.95542" x2="261" y2="3.95542" gradientUnits="userSpaceOnUse">
<stop offset="0.005" stop-color="#561E07"/>
<stop offset="0.294" stop-color="#96350C"/>
<stop offset="0.539" stop-color="#A2390D"/>
<stop offset="0.779" stop-color="#89300B"/>
<stop offset="1" stop-color="#561E07"/>
</linearGradient>
<linearGradient id="paint39_linear_19_1617" x1="250.526" y1="9.6697" x2="260.985" y2="9.6697" gradientUnits="userSpaceOnUse">
<stop offset="0.005" stop-color="#561E07"/>
<stop offset="0.294" stop-color="#96350C"/>
<stop offset="0.539" stop-color="#A2390D"/>
<stop offset="0.779" stop-color="#89300B"/>
<stop offset="1" stop-color="#561E07"/>
</linearGradient>
<linearGradient id="paint40_linear_19_1617" x1="229.771" y1="6.63465" x2="250.808" y2="6.63465" gradientUnits="userSpaceOnUse">
<stop offset="0.005" stop-color="#561E07"/>
<stop offset="0.294" stop-color="#96350C"/>
<stop offset="0.539" stop-color="#A2390D"/>
<stop offset="0.779" stop-color="#89300B"/>
<stop offset="1" stop-color="#561E07"/>
</linearGradient>
<linearGradient id="paint41_linear_19_1617" x1="243.902" y1="2.63653" x2="256.631" y2="2.63653" gradientUnits="userSpaceOnUse">
<stop offset="0.005" stop-color="#561E07"/>
<stop offset="0.294" stop-color="#96350C"/>
<stop offset="0.539" stop-color="#A2390D"/>
<stop offset="0.779" stop-color="#89300B"/>
<stop offset="1" stop-color="#561E07"/>
</linearGradient>
<linearGradient id="paint42_linear_19_1617" x1="243.88" y1="10.6606" x2="256.609" y2="10.6606" gradientUnits="userSpaceOnUse">
<stop offset="0.005" stop-color="#561E07"/>
<stop offset="0.294" stop-color="#96350C"/>
<stop offset="0.539" stop-color="#A2390D"/>
<stop offset="0.779" stop-color="#89300B"/>
<stop offset="1" stop-color="#561E07"/>
</linearGradient>
<linearGradient id="paint43_linear_19_1617" x1="228.725" y1="12.5033" x2="228.741" y2="0.757234" gradientUnits="userSpaceOnUse">
<stop offset="0.005" stop-color="#561E07"/>
<stop offset="0.294" stop-color="#96350C"/>
<stop offset="0.539" stop-color="#A2390D"/>
<stop offset="0.779" stop-color="#89300B"/>
<stop offset="1" stop-color="#561E07"/>
</linearGradient>
</defs>
</svg>
