<svg width="39" height="14" viewBox="0 0 39 14" fill="none" xmlns="http://www.w3.org/2000/svg">
<path d="M2.41603 3.04309L1.01417 2.22443L2.01246 1L10.9972 6.90147" fill="#BC420F"/>
<path d="M2.41603 3.04309L1.01417 2.22443L2.01246 1L10.9972 6.90147" stroke="#BC420F" stroke-miterlimit="10"/>
<path d="M2.40188 10.7141L1 11.5328L1.99122 12.7572L10.9972 6.88422" fill="#BC420F"/>
<path d="M2.40188 10.7141L1 11.5328L1.99122 12.7572L10.9972 6.88422" stroke="#BC420F" stroke-miterlimit="10"/>
<path d="M20.2344 12.5252L11.169 7.03829L20.2467 1.58388L29.312 7.07076L20.2344 12.5252Z" fill="#BC420F" stroke="#BC420F"/>
<circle cx="33.5" cy="7.5" r="1.5" fill="#BC420F"/>
<path d="M38.8662 7.5C38.8662 8.05228 38.4185 8.5 37.8662 8.5C37.3139 8.5 36.8662 8.05228 36.8662 7.5C36.8662 6.94772 37.3139 6.5 37.8662 6.5C38.4185 6.5 38.8662 6.94772 38.8662 7.5Z" fill="#BC420F"/>
</svg>
