<svg width="13" height="11" viewBox="0 0 13 11" fill="none" xmlns="http://www.w3.org/2000/svg">
<path d="M1.54199 5.25554H0.44947C0.389292 5.26131 0.328637 5.25314 0.271812 5.23162C0.214986 5.2101 0.163379 5.17575 0.120649 5.13101C0.0779196 5.08627 0.0451157 5.03223 0.0245608 4.97273C0.00400597 4.91323 -0.00379211 4.84973 0.00171392 4.78672C0.0153403 3.64719 0.411209 2.54898 1.12006 1.6842C1.82892 0.819428 2.80562 0.24317 3.87927 0.0562572C4.09534 0.0187266 4.31399 -8.79334e-05 4.533 3.08954e-07C5.64791 3.08954e-07 6.77178 3.08954e-07 7.87326 3.08954e-07C8.90355 0.018885 9.89811 0.39849 10.6983 1.07828C11.4985 1.75807 12.0582 2.69889 12.2881 3.75061C12.3525 4.09258 12.3944 4.43876 12.4135 4.78672C12.4198 4.84991 12.4126 4.91379 12.3923 4.97369C12.3721 5.03358 12.3393 5.08798 12.2964 5.13291C12.2535 5.17785 12.2015 5.21218 12.1443 5.2334C12.0871 5.25461 12.0261 5.26217 11.9657 5.25554H10.8867C10.9225 5.56809 10.9583 5.88065 10.9941 6.1932C11.0658 6.77923 11.1374 7.36526 11.2046 7.9513C11.2493 8.32167 11.2852 8.69673 11.3389 9.06711C11.3829 9.44737 11.2898 9.83116 11.0778 10.1433C10.8658 10.4555 10.5501 10.6736 10.1926 10.7549C10.1203 10.7696 10.0469 10.7775 9.97323 10.7783H2.45094C2.26117 10.7717 2.07455 10.7257 1.90192 10.6429C1.7293 10.5601 1.57411 10.4422 1.44537 10.2961C1.31664 10.1499 1.21693 9.97848 1.15204 9.79165C1.08715 9.60481 1.05836 9.40633 1.06737 9.20775C1.09423 8.828 1.15245 8.45294 1.19722 8.07787C1.26886 7.48715 1.3405 6.89643 1.40767 6.30571C1.44796 5.9916 1.48378 5.67279 1.52408 5.36806C1.53751 5.32586 1.54199 5.29774 1.54199 5.25554ZM6.22552 9.94381H8.58519C9.03295 9.94381 9.4807 9.94381 9.89711 9.94381C9.98712 9.94789 10.0769 9.93218 10.1608 9.89768C10.2446 9.86319 10.3207 9.81067 10.3839 9.74353C10.4472 9.67639 10.4964 9.59611 10.5282 9.50786C10.56 9.41962 10.5738 9.32538 10.5687 9.2312C10.5329 8.81863 10.4747 8.40136 10.4255 7.9888C10.318 7.11053 10.212 6.23383 10.1076 5.35869C10.1076 5.2743 10.0717 5.25085 9.99562 5.25085H8.92996C8.86978 5.25662 8.80913 5.24845 8.75231 5.22693C8.69548 5.20541 8.64388 5.17106 8.60115 5.12632C8.55842 5.08158 8.52561 5.02753 8.50506 4.96803C8.4845 4.90854 8.4767 4.84503 8.4822 4.78202C8.4822 4.45385 8.4822 4.12566 8.4822 3.79748C8.4918 3.69792 8.48029 3.59737 8.44849 3.50301C8.41668 3.40864 8.36538 3.32279 8.29823 3.25158C8.23108 3.18038 8.14974 3.12557 8.06003 3.09108C7.97031 3.05659 7.87443 3.04326 7.77923 3.05205H4.7121C4.61672 3.04338 4.5207 3.05675 4.4308 3.09121C4.3409 3.12567 4.25932 3.18039 4.19184 3.2515C4.12436 3.3226 4.07262 3.40836 4.04028 3.50271C4.00793 3.59705 3.99576 3.69768 4.00465 3.79748V4.77735C4.00936 4.84017 4.00101 4.90331 3.98018 4.96243C3.95934 5.02155 3.92652 5.07523 3.88396 5.11979C3.8414 5.16435 3.79013 5.19873 3.73367 5.22055C3.6772 5.24236 3.61689 5.25111 3.55689 5.24617H2.49124C2.43303 5.24617 2.38825 5.24616 2.3793 5.32117L2.17781 7.02771C2.10617 7.61843 2.03452 8.20915 1.96736 8.79987C1.93119 8.98968 1.91467 9.18302 1.91811 9.37653C1.94657 9.54462 2.03399 9.69551 2.16321 9.79959C2.29244 9.90367 2.45414 9.95343 2.61661 9.93912L6.22552 9.94381ZM3.18078 4.40228V3.72716C3.18195 3.323 3.3355 2.93568 3.60802 2.64945C3.88054 2.36323 4.24999 2.20127 4.63598 2.1988C5.69716 2.1988 6.75387 2.1988 7.81505 2.1988C8.20026 2.20373 8.56809 2.36742 8.83881 2.65439C9.10953 2.94136 9.26133 3.32849 9.2613 3.73186C9.2613 3.95689 9.2613 4.17724 9.2613 4.40228H11.6075C11.6075 4.28038 11.5807 4.16787 11.5583 4.05535C11.3842 3.13235 10.9059 2.30274 10.2069 1.71146C9.508 1.12018 8.63288 0.80481 7.73445 0.820447C6.72252 0.820447 5.71508 0.820447 4.70315 0.820447C4.4721 0.81566 4.24115 0.8345 4.0136 0.876704C3.27992 0.998051 2.59659 1.34282 2.04878 1.86805C1.50098 2.39328 1.11294 3.07573 0.933047 3.83031C0.883794 4.01315 0.865879 4.20536 0.830058 4.39758L3.18078 4.40228Z" fill="white"/>
<path d="M6.21656 8.84203C5.82255 8.841 5.43777 8.71712 5.11127 8.48621C4.78477 8.25529 4.53134 7.92778 4.38331 7.54546C4.23527 7.16314 4.19933 6.74332 4.28007 6.33953C4.36082 5.93574 4.55458 5.56628 4.83665 5.27825C5.11873 4.99021 5.47634 4.79666 5.86389 4.72227C6.25144 4.64789 6.65136 4.69604 7.01267 4.86058C7.37398 5.02512 7.68031 5.2986 7.89259 5.64615C8.10487 5.9937 8.21349 6.39958 8.20459 6.81202C8.19061 7.35472 7.97515 7.87032 7.60395 8.24936C7.23275 8.6284 6.73505 8.84101 6.21656 8.84203ZM6.21656 8.00752C6.44996 8.00659 6.67789 7.93333 6.87159 7.79697C7.0653 7.66062 7.21611 7.46727 7.30502 7.2413C7.39394 7.01533 7.41697 6.76687 7.37121 6.52721C7.32546 6.28756 7.21297 6.06745 7.04793 5.89464C6.88288 5.72183 6.67266 5.60405 6.44378 5.55614C6.2149 5.50823 5.9776 5.53235 5.76178 5.62544C5.54597 5.71854 5.36131 5.87646 5.23108 6.07928C5.10086 6.2821 5.03089 6.52074 5.03001 6.76513C5.03 6.92868 5.06084 7.09062 5.12075 7.24166C5.18066 7.3927 5.26846 7.52987 5.37912 7.6453C5.48977 7.76073 5.62111 7.85213 5.76559 7.91429C5.91007 7.97645 6.06484 8.00814 6.22104 8.00752H6.21656Z" fill="white"/>
</svg>
